<svg width="676" height="654" viewBox="0 0 676 654" fill="none" xmlns="http://www.w3.org/2000/svg">
<g clip-path="url(#clip0_542_2)">
<rect width="676" height="654" fill="#252424"/>
<circle cx="174.172" cy="255" r="15.5" fill="#D9D9D9" stroke="#008000" stroke-width="5"/>
<circle cx="20.1719" cy="320" r="15.5" fill="#D9D9D9" stroke="#008000" stroke-width="5"/>
<circle cx="73.1719" cy="578" r="15.5" fill="#D9D9D9" stroke="#008000" stroke-width="5"/>
<circle cx="91.1719" cy="464" r="15.5" fill="#D9D9D9" stroke="#008000" stroke-width="5"/>
<circle cx="100.172" cy="320" r="15.5" fill="#D9D9D9" stroke="#008000" stroke-width="5"/>
<circle cx="175.172" cy="578" r="15.5" fill="#D9D9D9" stroke="#008000" stroke-width="5"/>
<circle cx="178.172" cy="417" r="15.5" fill="#D9D9D9" stroke="#008000" stroke-width="5"/>
<circle cx="180" cy="320" r="15.5" fill="#D9D9D9" stroke="#008000" stroke-width="5"/>
<circle cx="178" cy="504" r="15.5" fill="#D9D9D9" stroke="#008000" stroke-width="5"/>
<path d="M170.733 260.068V255.743H170.626C170.534 255.892 170.403 256.08 170.232 256.308C170.062 256.531 169.819 256.732 169.502 256.909C169.186 257.083 168.766 257.17 168.24 257.17C167.558 257.17 166.956 256.998 166.434 256.654C165.912 256.306 165.504 255.816 165.209 255.184C164.914 254.548 164.767 253.797 164.767 252.93C164.767 252.071 164.914 251.325 165.209 250.693C165.504 250.061 165.914 249.573 166.44 249.228C166.965 248.884 167.572 248.712 168.261 248.712C168.794 248.712 169.215 248.8 169.524 248.978C169.836 249.152 170.074 249.351 170.238 249.575C170.404 249.795 170.534 249.976 170.626 250.118H170.776V248.818H171.99V260.068H170.733ZM168.411 256.041C168.915 256.041 169.341 255.91 169.689 255.647C170.037 255.381 170.301 255.013 170.483 254.544C170.664 254.072 170.754 253.527 170.754 252.909C170.754 252.298 170.665 251.764 170.488 251.306C170.31 250.844 170.048 250.485 169.7 250.23C169.352 249.971 168.922 249.841 168.411 249.841C167.878 249.841 167.434 249.978 167.079 250.251C166.727 250.521 166.463 250.888 166.285 251.354C166.111 251.815 166.024 252.334 166.024 252.909C166.024 253.491 166.113 254.021 166.29 254.496C166.472 254.969 166.738 255.345 167.089 255.626C167.445 255.903 167.885 256.041 168.411 256.041Z" fill="black"/>
<path d="M17.733 325.068V320.743H17.6264C17.5341 320.892 17.4027 321.08 17.2322 321.308C17.0618 321.531 16.8185 321.732 16.5025 321.909C16.1864 322.083 15.7656 322.17 15.2401 322.17C14.5582 322.17 13.9563 321.998 13.4343 321.654C12.9123 321.306 12.5039 320.816 12.2092 320.184C11.9144 319.548 11.767 318.797 11.767 317.93C11.767 317.071 11.9144 316.325 12.2092 315.693C12.5039 315.061 12.9141 314.573 13.4396 314.228C13.9652 313.884 14.5724 313.712 15.2614 313.712C15.794 313.712 16.2148 313.8 16.5238 313.978C16.8363 314.152 17.0742 314.351 17.2376 314.575C17.4045 314.795 17.5341 314.976 17.6264 315.118H17.7756V313.818H18.9901V325.068H17.733ZM15.4105 321.041C15.9148 321.041 16.3409 320.91 16.6889 320.647C17.0369 320.381 17.3015 320.013 17.4826 319.544C17.6637 319.072 17.7543 318.527 17.7543 317.909C17.7543 317.298 17.6655 316.764 17.4879 316.306C17.3104 315.844 17.0476 315.485 16.6996 315.23C16.3516 314.971 15.9219 314.841 15.4105 314.841C14.8778 314.841 14.4339 314.978 14.0788 315.251C13.7273 315.521 13.4627 315.888 13.2852 316.354C13.1112 316.815 13.0241 317.334 13.0241 317.909C13.0241 318.491 13.1129 319.021 13.2905 319.496C13.4716 319.969 13.7379 320.345 14.0895 320.626C14.4446 320.903 14.8849 321.041 15.4105 321.041Z" fill="black"/>
<path d="M86.733 473.068V468.743H86.6264C86.5341 468.892 86.4027 469.08 86.2322 469.308C86.0618 469.531 85.8185 469.732 85.5025 469.909C85.1864 470.083 84.7656 470.17 84.2401 470.17C83.5582 470.17 82.9563 469.998 82.4343 469.654C81.9123 469.306 81.5039 468.816 81.2092 468.184C80.9144 467.548 80.767 466.797 80.767 465.93C80.767 465.071 80.9144 464.325 81.2092 463.693C81.5039 463.061 81.9141 462.573 82.4396 462.228C82.9652 461.884 83.5724 461.712 84.2614 461.712C84.794 461.712 85.2148 461.8 85.5238 461.978C85.8363 462.152 86.0742 462.351 86.2376 462.575C86.4045 462.795 86.5341 462.976 86.6264 463.118H86.7756V461.818H87.9901V473.068H86.733ZM84.4105 469.041C84.9148 469.041 85.3409 468.91 85.6889 468.647C86.0369 468.381 86.3015 468.013 86.4826 467.544C86.6637 467.072 86.7543 466.527 86.7543 465.909C86.7543 465.298 86.6655 464.764 86.4879 464.306C86.3104 463.844 86.0476 463.485 85.6996 463.23C85.3516 462.971 84.9219 462.841 84.4105 462.841C83.8778 462.841 83.4339 462.978 83.0788 463.251C82.7273 463.521 82.4627 463.888 82.2852 464.354C82.1112 464.815 82.0241 465.334 82.0241 465.909C82.0241 466.491 82.1129 467.021 82.2905 467.496C82.4716 467.969 82.7379 468.345 83.0895 468.626C83.4446 468.903 83.8849 469.041 84.4105 469.041Z" fill="black"/>
<path d="M72.733 581.068V576.743H72.6264C72.5341 576.892 72.4027 577.08 72.2322 577.308C72.0618 577.531 71.8185 577.732 71.5025 577.909C71.1864 578.083 70.7656 578.17 70.2401 578.17C69.5582 578.17 68.9563 577.998 68.4343 577.654C67.9123 577.306 67.5039 576.816 67.2092 576.184C66.9144 575.548 66.767 574.797 66.767 573.93C66.767 573.071 66.9144 572.325 67.2092 571.693C67.5039 571.061 67.9141 570.573 68.4396 570.228C68.9652 569.884 69.5724 569.712 70.2614 569.712C70.794 569.712 71.2148 569.8 71.5238 569.978C71.8363 570.152 72.0742 570.351 72.2376 570.575C72.4045 570.795 72.5341 570.976 72.6264 571.118H72.7756V569.818H73.9901V581.068H72.733ZM70.4105 577.041C70.9148 577.041 71.3409 576.91 71.6889 576.647C72.0369 576.381 72.3015 576.013 72.4826 575.544C72.6637 575.072 72.7543 574.527 72.7543 573.909C72.7543 573.298 72.6655 572.764 72.4879 572.306C72.3104 571.844 72.0476 571.485 71.6996 571.23C71.3516 570.971 70.9219 570.841 70.4105 570.841C69.8778 570.841 69.4339 570.978 69.0788 571.251C68.7273 571.521 68.4627 571.888 68.2852 572.354C68.1112 572.815 68.0241 573.334 68.0241 573.909C68.0241 574.491 68.1129 575.021 68.2905 575.496C68.4716 575.969 68.7379 576.345 69.0895 576.626C69.4446 576.903 69.8849 577.041 70.4105 577.041Z" fill="black"/>
<path d="M96.733 325.068V320.743H96.6264C96.5341 320.892 96.4027 321.08 96.2322 321.308C96.0618 321.531 95.8185 321.732 95.5025 321.909C95.1864 322.083 94.7656 322.17 94.2401 322.17C93.5582 322.17 92.9563 321.998 92.4343 321.654C91.9123 321.306 91.5039 320.816 91.2092 320.184C90.9144 319.548 90.767 318.797 90.767 317.93C90.767 317.071 90.9144 316.325 91.2092 315.693C91.5039 315.061 91.9141 314.573 92.4396 314.228C92.9652 313.884 93.5724 313.712 94.2614 313.712C94.794 313.712 95.2148 313.8 95.5238 313.978C95.8363 314.152 96.0742 314.351 96.2376 314.575C96.4045 314.795 96.5341 314.976 96.6264 315.118H96.7756V313.818H97.9901V325.068H96.733ZM94.4105 321.041C94.9148 321.041 95.3409 320.91 95.6889 320.647C96.0369 320.381 96.3015 320.013 96.4826 319.544C96.6637 319.072 96.7543 318.527 96.7543 317.909C96.7543 317.298 96.6655 316.764 96.4879 316.306C96.3104 315.844 96.0476 315.485 95.6996 315.23C95.3516 314.971 94.9219 314.841 94.4105 314.841C93.8778 314.841 93.4339 314.978 93.0788 315.251C92.7273 315.521 92.4627 315.888 92.2852 316.354C92.1112 316.815 92.0241 317.334 92.0241 317.909C92.0241 318.491 92.1129 319.021 92.2905 319.496C92.4716 319.969 92.7379 320.345 93.0895 320.626C93.4446 320.903 93.8849 321.041 94.4105 321.041Z" fill="black"/>
<path d="M171.733 583.068V578.743H171.626C171.534 578.892 171.403 579.08 171.232 579.308C171.062 579.531 170.819 579.732 170.502 579.909C170.186 580.083 169.766 580.17 169.24 580.17C168.558 580.17 167.956 579.998 167.434 579.654C166.912 579.306 166.504 578.816 166.209 578.184C165.914 577.548 165.767 576.797 165.767 575.93C165.767 575.071 165.914 574.325 166.209 573.693C166.504 573.061 166.914 572.573 167.44 572.228C167.965 571.884 168.572 571.712 169.261 571.712C169.794 571.712 170.215 571.8 170.524 571.978C170.836 572.152 171.074 572.351 171.238 572.575C171.404 572.795 171.534 572.976 171.626 573.118H171.776V571.818H172.99V583.068H171.733ZM169.411 579.041C169.915 579.041 170.341 578.91 170.689 578.647C171.037 578.381 171.301 578.013 171.483 577.544C171.664 577.072 171.754 576.527 171.754 575.909C171.754 575.298 171.665 574.764 171.488 574.306C171.31 573.844 171.048 573.485 170.7 573.23C170.352 572.971 169.922 572.841 169.411 572.841C168.878 572.841 168.434 572.978 168.079 573.251C167.727 573.521 167.463 573.888 167.285 574.354C167.111 574.815 167.024 575.334 167.024 575.909C167.024 576.491 167.113 577.021 167.29 577.496C167.472 577.969 167.738 578.345 168.089 578.626C168.445 578.903 168.885 579.041 169.411 579.041Z" fill="black"/>
<path d="M174.733 422.068V417.743H174.626C174.534 417.892 174.403 418.08 174.232 418.308C174.062 418.531 173.819 418.732 173.502 418.909C173.186 419.083 172.766 419.17 172.24 419.17C171.558 419.17 170.956 418.998 170.434 418.654C169.912 418.306 169.504 417.816 169.209 417.184C168.914 416.548 168.767 415.797 168.767 414.93C168.767 414.071 168.914 413.325 169.209 412.693C169.504 412.061 169.914 411.573 170.44 411.228C170.965 410.884 171.572 410.712 172.261 410.712C172.794 410.712 173.215 410.8 173.524 410.978C173.836 411.152 174.074 411.351 174.238 411.575C174.404 411.795 174.534 411.976 174.626 412.118H174.776V410.818H175.99V422.068H174.733ZM172.411 418.041C172.915 418.041 173.341 417.91 173.689 417.647C174.037 417.381 174.301 417.013 174.483 416.544C174.664 416.072 174.754 415.527 174.754 414.909C174.754 414.298 174.665 413.764 174.488 413.306C174.31 412.844 174.048 412.485 173.7 412.23C173.352 411.971 172.922 411.841 172.411 411.841C171.878 411.841 171.434 411.978 171.079 412.251C170.727 412.521 170.463 412.888 170.285 413.354C170.111 413.815 170.024 414.334 170.024 414.909C170.024 415.491 170.113 416.021 170.29 416.496C170.472 416.969 170.738 417.345 171.089 417.626C171.445 417.903 171.885 418.041 172.411 418.041Z" fill="black"/>
<path d="M176.561 325.068V320.743H176.455C176.362 320.892 176.231 321.08 176.06 321.308C175.89 321.531 175.647 321.732 175.331 321.909C175.015 322.083 174.594 322.17 174.068 322.17C173.386 322.17 172.784 321.998 172.262 321.654C171.74 321.306 171.332 320.816 171.037 320.184C170.743 319.548 170.595 318.797 170.595 317.93C170.595 317.071 170.743 316.325 171.037 315.693C171.332 315.061 171.742 314.573 172.268 314.228C172.793 313.884 173.401 313.712 174.089 313.712C174.622 313.712 175.043 313.8 175.352 313.978C175.664 314.152 175.902 314.351 176.066 314.575C176.233 314.795 176.362 314.976 176.455 315.118H176.604V313.818H177.818V325.068H176.561ZM174.239 321.041C174.743 321.041 175.169 320.91 175.517 320.647C175.865 320.381 176.13 320.013 176.311 319.544C176.492 319.072 176.582 318.527 176.582 317.909C176.582 317.298 176.494 316.764 176.316 316.306C176.138 315.844 175.876 315.485 175.528 315.23C175.18 314.971 174.75 314.841 174.239 314.841C173.706 314.841 173.262 314.978 172.907 315.251C172.555 315.521 172.291 315.888 172.113 316.354C171.939 316.815 171.852 317.334 171.852 317.909C171.852 318.491 171.941 319.021 172.119 319.496C172.3 319.969 172.566 320.345 172.918 320.626C173.273 320.903 173.713 321.041 174.239 321.041Z" fill="black"/>
<path d="M174.561 509.068V504.743H174.455C174.362 504.892 174.231 505.08 174.06 505.308C173.89 505.531 173.647 505.732 173.331 505.909C173.015 506.083 172.594 506.17 172.068 506.17C171.386 506.17 170.784 505.998 170.262 505.654C169.74 505.306 169.332 504.816 169.037 504.184C168.743 503.548 168.595 502.797 168.595 501.93C168.595 501.071 168.743 500.325 169.037 499.693C169.332 499.061 169.742 498.573 170.268 498.228C170.793 497.884 171.401 497.712 172.089 497.712C172.622 497.712 173.043 497.8 173.352 497.978C173.664 498.152 173.902 498.351 174.066 498.575C174.233 498.795 174.362 498.976 174.455 499.118H174.604V497.818H175.818V509.068H174.561ZM172.239 505.041C172.743 505.041 173.169 504.91 173.517 504.647C173.865 504.381 174.13 504.013 174.311 503.544C174.492 503.072 174.582 502.527 174.582 501.909C174.582 501.298 174.494 500.764 174.316 500.306C174.138 499.844 173.876 499.485 173.528 499.23C173.18 498.971 172.75 498.841 172.239 498.841C171.706 498.841 171.262 498.978 170.907 499.251C170.555 499.521 170.291 499.888 170.113 500.354C169.939 500.815 169.852 501.334 169.852 501.909C169.852 502.491 169.941 503.021 170.119 503.496C170.3 503.969 170.566 504.345 170.918 504.626C171.273 504.903 171.713 505.041 172.239 505.041Z" fill="black"/>
<path d="M176.75 264.119C176.108 264.119 175.561 263.945 175.109 263.595C174.658 263.243 174.313 262.733 174.074 262.065C173.835 261.395 173.716 260.585 173.716 259.636C173.716 258.693 173.835 257.888 174.074 257.22C174.315 256.55 174.662 256.038 175.114 255.686C175.568 255.331 176.114 255.153 176.75 255.153C177.386 255.153 177.93 255.331 178.382 255.686C178.837 256.038 179.183 256.55 179.422 257.22C179.663 257.888 179.784 258.693 179.784 259.636C179.784 260.585 179.665 261.395 179.426 262.065C179.188 262.733 178.842 263.243 178.391 263.595C177.939 263.945 177.392 264.119 176.75 264.119ZM176.75 263.182C177.386 263.182 177.881 262.875 178.233 262.261C178.585 261.648 178.761 260.773 178.761 259.636C178.761 258.881 178.68 258.237 178.518 257.706C178.359 257.175 178.129 256.77 177.828 256.491C177.53 256.213 177.17 256.074 176.75 256.074C176.119 256.074 175.626 256.385 175.271 257.007C174.916 257.626 174.739 258.503 174.739 259.636C174.739 260.392 174.818 261.034 174.977 261.562C175.136 262.091 175.365 262.493 175.663 262.768C175.964 263.044 176.327 263.182 176.75 263.182Z" fill="black"/>
<path d="M23.75 326.119C23.108 326.119 22.5611 325.945 22.1094 325.595C21.6577 325.243 21.3125 324.733 21.0739 324.065C20.8352 323.395 20.7159 322.585 20.7159 321.636C20.7159 320.693 20.8352 319.888 21.0739 319.22C21.3153 318.55 21.6619 318.038 22.1136 317.686C22.5682 317.331 23.1136 317.153 23.75 317.153C24.3864 317.153 24.9304 317.331 25.3821 317.686C25.8366 318.038 26.1832 318.55 26.4219 319.22C26.6634 319.888 26.7841 320.693 26.7841 321.636C26.7841 322.585 26.6648 323.395 26.4261 324.065C26.1875 324.733 25.8423 325.243 25.3906 325.595C24.9389 325.945 24.392 326.119 23.75 326.119ZM23.75 325.182C24.3864 325.182 24.8807 324.875 25.233 324.261C25.5852 323.648 25.7614 322.773 25.7614 321.636C25.7614 320.881 25.6804 320.237 25.5185 319.706C25.3594 319.175 25.1293 318.77 24.8281 318.491C24.5298 318.213 24.1705 318.074 23.75 318.074C23.1193 318.074 22.6264 318.385 22.2713 319.007C21.9162 319.626 21.7386 320.503 21.7386 321.636C21.7386 322.392 21.8182 323.034 21.9773 323.562C22.1364 324.091 22.3651 324.493 22.6634 324.768C22.9645 325.044 23.3267 325.182 23.75 325.182Z" fill="black"/>
<path d="M78.75 584.119C78.108 584.119 77.5611 583.945 77.1094 583.595C76.6577 583.243 76.3125 582.733 76.0739 582.065C75.8352 581.395 75.7159 580.585 75.7159 579.636C75.7159 578.693 75.8352 577.888 76.0739 577.22C76.3153 576.55 76.6619 576.038 77.1136 575.686C77.5682 575.331 78.1136 575.153 78.75 575.153C79.3864 575.153 79.9304 575.331 80.3821 575.686C80.8366 576.038 81.1832 576.55 81.4219 577.22C81.6634 577.888 81.7841 578.693 81.7841 579.636C81.7841 580.585 81.6648 581.395 81.4261 582.065C81.1875 582.733 80.8423 583.243 80.3906 583.595C79.9389 583.945 79.392 584.119 78.75 584.119ZM78.75 583.182C79.3864 583.182 79.8807 582.875 80.233 582.261C80.5852 581.648 80.7614 580.773 80.7614 579.636C80.7614 578.881 80.6804 578.237 80.5185 577.706C80.3594 577.175 80.1293 576.77 79.8281 576.491C79.5298 576.213 79.1705 576.074 78.75 576.074C78.1193 576.074 77.6264 576.385 77.2713 577.007C76.9162 577.626 76.7386 578.503 76.7386 579.636C76.7386 580.392 76.8182 581.034 76.9773 581.562C77.1364 582.091 77.3651 582.493 77.6634 582.768C77.9645 583.044 78.3267 583.182 78.75 583.182Z" fill="black"/>
<path d="M93.75 473.119C93.108 473.119 92.5611 472.945 92.1094 472.595C91.6577 472.243 91.3125 471.733 91.0739 471.065C90.8352 470.395 90.7159 469.585 90.7159 468.636C90.7159 467.693 90.8352 466.888 91.0739 466.22C91.3153 465.55 91.6619 465.038 92.1136 464.686C92.5682 464.331 93.1136 464.153 93.75 464.153C94.3864 464.153 94.9304 464.331 95.3821 464.686C95.8366 465.038 96.1832 465.55 96.4219 466.22C96.6634 466.888 96.7841 467.693 96.7841 468.636C96.7841 469.585 96.6648 470.395 96.4261 471.065C96.1875 471.733 95.8423 472.243 95.3906 472.595C94.9389 472.945 94.392 473.119 93.75 473.119ZM93.75 472.182C94.3864 472.182 94.8807 471.875 95.233 471.261C95.5852 470.648 95.7614 469.773 95.7614 468.636C95.7614 467.881 95.6804 467.237 95.5185 466.706C95.3594 466.175 95.1293 465.77 94.8281 465.491C94.5298 465.213 94.1705 465.074 93.75 465.074C93.1193 465.074 92.6264 465.385 92.2713 466.007C91.9162 466.626 91.7386 467.503 91.7386 468.636C91.7386 469.392 91.8182 470.034 91.9773 470.562C92.1364 471.091 92.3651 471.493 92.6634 471.768C92.9645 472.044 93.3267 472.182 93.75 472.182Z" fill="black"/>
<path d="M102.972 320.273V329H101.915V321.381H101.864L99.733 322.795V321.722L101.915 320.273H102.972Z" fill="black"/>
<path d="M177.972 578.273V587H176.915V579.381H176.864L174.733 580.795V579.722L176.915 578.273H177.972Z" fill="black"/>
<path d="M180.972 417.273V426H179.915V418.381H179.864L177.733 419.795V418.722L179.915 417.273H180.972Z" fill="black"/>
<path d="M179.732 329V328.233L182.612 325.08C182.95 324.71 183.229 324.389 183.447 324.116C183.666 323.841 183.828 323.582 183.933 323.341C184.041 323.097 184.095 322.841 184.095 322.574C184.095 322.267 184.021 322.001 183.874 321.777C183.729 321.553 183.53 321.379 183.277 321.257C183.024 321.135 182.74 321.074 182.425 321.074C182.089 321.074 181.797 321.143 181.547 321.283C181.3 321.419 181.108 321.611 180.972 321.858C180.838 322.105 180.771 322.395 180.771 322.727H179.766C179.766 322.216 179.884 321.767 180.119 321.381C180.355 320.994 180.676 320.693 181.082 320.477C181.491 320.261 181.95 320.153 182.459 320.153C182.97 320.153 183.423 320.261 183.818 320.477C184.213 320.693 184.523 320.984 184.747 321.351C184.972 321.717 185.084 322.125 185.084 322.574C185.084 322.895 185.026 323.209 184.909 323.516C184.795 323.82 184.597 324.159 184.312 324.534C184.031 324.906 183.641 325.361 183.141 325.898L181.18 327.994V328.062H185.237V329H179.732Z" fill="black"/>
<path d="M177.732 513V512.233L180.612 509.08C180.95 508.71 181.229 508.389 181.447 508.116C181.666 507.841 181.828 507.582 181.933 507.341C182.041 507.097 182.095 506.841 182.095 506.574C182.095 506.267 182.021 506.001 181.874 505.777C181.729 505.553 181.53 505.379 181.277 505.257C181.024 505.135 180.74 505.074 180.425 505.074C180.089 505.074 179.797 505.143 179.547 505.283C179.3 505.419 179.108 505.611 178.972 505.858C178.838 506.105 178.771 506.395 178.771 506.727H177.766C177.766 506.216 177.884 505.767 178.119 505.381C178.355 504.994 178.676 504.693 179.082 504.477C179.491 504.261 179.95 504.153 180.459 504.153C180.97 504.153 181.423 504.261 181.818 504.477C182.213 504.693 182.523 504.984 182.747 505.351C182.972 505.717 183.084 506.125 183.084 506.574C183.084 506.895 183.026 507.209 182.909 507.516C182.795 507.82 182.597 508.159 182.312 508.534C182.031 508.906 181.641 509.361 181.141 509.898L179.18 511.994V512.062H183.237V513H177.732Z" fill="black"/>
<path d="M182.456 215.302L182.138 216.251L182.138 216.251L182.456 215.302ZM181.477 237.03C181.592 237.57 182.123 237.916 182.663 237.801L191.468 235.936C192.008 235.822 192.353 235.291 192.239 234.751C192.124 234.21 191.593 233.865 191.053 233.979L183.227 235.637L181.569 227.811C181.454 227.271 180.924 226.926 180.383 227.04C179.843 227.154 179.498 227.685 179.612 228.226L181.477 237.03ZM165.71 236.057C159.875 232.86 157.651 229.862 157.326 227.418C157.007 225.024 158.462 222.678 161.262 220.625C164.032 218.594 167.9 217.03 171.797 216.215C175.711 215.397 179.502 215.367 182.138 216.251L182.774 214.354C179.664 213.312 175.475 213.404 171.388 214.258C167.286 215.115 163.134 216.772 160.079 219.012C157.054 221.23 154.88 224.205 155.343 227.682C155.799 231.11 158.767 234.534 164.75 237.811L165.71 236.057ZM182.138 216.251C184.687 217.105 185.876 218.665 186.332 220.528C186.809 222.475 186.504 224.843 185.805 227.226C185.112 229.589 184.067 231.854 183.186 233.539C182.746 234.378 182.352 235.067 182.068 235.545C181.926 235.784 181.812 235.969 181.734 236.094C181.695 236.156 181.665 236.204 181.645 236.234C181.635 236.25 181.628 236.261 181.623 236.269C181.621 236.272 181.619 236.275 181.618 236.276C181.618 236.277 181.618 236.278 181.617 236.278C181.617 236.278 181.617 236.278 181.617 236.278C181.617 236.278 181.617 236.278 182.456 236.823C183.294 237.368 183.294 237.368 183.295 237.367C183.295 237.367 183.295 237.367 183.295 237.366C183.296 237.366 183.296 237.364 183.297 237.363C183.299 237.36 183.302 237.356 183.305 237.352C183.311 237.342 183.32 237.328 183.332 237.31C183.355 237.274 183.388 237.221 183.43 237.153C183.515 237.017 183.637 236.819 183.787 236.567C184.086 236.064 184.499 235.342 184.958 234.466C185.872 232.717 186.981 230.324 187.724 227.789C188.462 225.274 188.875 222.502 188.275 220.052C187.654 217.519 185.97 215.426 182.774 214.354L182.138 216.251Z" fill="white"/>
<path d="M166.744 208.256C166.053 208.256 165.426 208.125 164.862 207.865C164.299 207.6 163.851 207.219 163.52 206.722C163.188 206.22 163.023 205.614 163.023 204.903C163.023 204.278 163.146 203.772 163.392 203.384C163.638 202.991 163.967 202.683 164.379 202.46C164.791 202.238 165.246 202.072 165.743 201.963C166.245 201.849 166.749 201.759 167.256 201.693C167.919 201.608 168.456 201.544 168.868 201.501C169.285 201.454 169.588 201.376 169.777 201.267C169.971 201.158 170.068 200.969 170.068 200.699V200.642C170.068 199.941 169.876 199.397 169.493 199.009C169.114 198.62 168.539 198.426 167.767 198.426C166.967 198.426 166.339 198.601 165.885 198.952C165.43 199.302 165.111 199.676 164.926 200.074L163.335 199.506C163.619 198.843 163.998 198.327 164.472 197.957C164.95 197.583 165.471 197.323 166.034 197.176C166.602 197.025 167.161 196.949 167.71 196.949C168.061 196.949 168.463 196.991 168.918 197.077C169.377 197.157 169.82 197.325 170.246 197.581C170.677 197.837 171.034 198.223 171.318 198.739C171.602 199.255 171.744 199.946 171.744 200.812V208H170.068V206.523H169.983C169.869 206.759 169.68 207.013 169.415 207.283C169.15 207.553 168.797 207.782 168.357 207.972C167.916 208.161 167.379 208.256 166.744 208.256ZM167 206.75C167.663 206.75 168.222 206.62 168.676 206.359C169.135 206.099 169.481 205.763 169.713 205.351C169.95 204.939 170.068 204.506 170.068 204.051V202.517C169.997 202.602 169.841 202.68 169.599 202.751C169.363 202.818 169.088 202.877 168.776 202.929C168.468 202.976 168.167 203.019 167.874 203.057C167.585 203.09 167.35 203.118 167.17 203.142C166.735 203.199 166.328 203.291 165.949 203.419C165.575 203.542 165.272 203.729 165.04 203.98C164.813 204.226 164.699 204.562 164.699 204.989C164.699 205.571 164.914 206.011 165.345 206.31C165.781 206.603 166.332 206.75 167 206.75ZM177.304 206.011L177.19 206.778C177.109 207.318 176.986 207.896 176.821 208.511C176.66 209.127 176.492 209.707 176.316 210.251C176.141 210.796 175.997 211.229 175.883 211.551H174.605C174.666 211.248 174.747 210.848 174.846 210.351C174.946 209.854 175.045 209.297 175.145 208.682C175.249 208.071 175.334 207.446 175.4 206.807L175.485 206.011H177.304ZM180.636 208V193.455H182.312V198.824H182.455C182.578 198.634 182.748 198.393 182.966 198.099C183.188 197.801 183.506 197.536 183.918 197.304C184.334 197.067 184.898 196.949 185.608 196.949C186.527 196.949 187.336 197.179 188.037 197.638C188.738 198.097 189.285 198.748 189.678 199.591C190.071 200.434 190.267 201.428 190.267 202.574C190.267 203.729 190.071 204.731 189.678 205.578C189.285 206.421 188.74 207.074 188.044 207.538C187.348 207.998 186.545 208.227 185.636 208.227C184.936 208.227 184.375 208.111 183.953 207.879C183.532 207.643 183.207 207.375 182.98 207.077C182.753 206.774 182.578 206.523 182.455 206.324H182.256V208H180.636ZM182.284 202.545C182.284 203.369 182.405 204.096 182.646 204.726C182.888 205.351 183.241 205.841 183.705 206.196C184.169 206.546 184.737 206.722 185.409 206.722C186.11 206.722 186.695 206.537 187.163 206.168C187.637 205.794 187.992 205.292 188.229 204.662C188.47 204.027 188.591 203.322 188.591 202.545C188.591 201.778 188.473 201.087 188.236 200.472C188.004 199.851 187.651 199.361 187.178 199.001C186.709 198.637 186.119 198.455 185.409 198.455C184.727 198.455 184.154 198.627 183.69 198.973C183.226 199.314 182.876 199.792 182.639 200.408C182.402 201.018 182.284 201.731 182.284 202.545Z" fill="white"/>
<path d="M527.744 463.256C527.053 463.256 526.426 463.125 525.862 462.865C525.299 462.6 524.851 462.219 524.52 461.722C524.188 461.22 524.023 460.614 524.023 459.903C524.023 459.278 524.146 458.772 524.392 458.384C524.638 457.991 524.967 457.683 525.379 457.46C525.791 457.238 526.246 457.072 526.743 456.963C527.245 456.849 527.749 456.759 528.256 456.693C528.919 456.608 529.456 456.544 529.868 456.501C530.285 456.454 530.588 456.376 530.777 456.267C530.971 456.158 531.068 455.969 531.068 455.699V455.642C531.068 454.941 530.876 454.397 530.493 454.009C530.114 453.62 529.539 453.426 528.767 453.426C527.967 453.426 527.339 453.601 526.885 453.952C526.43 454.302 526.111 454.676 525.926 455.074L524.335 454.506C524.619 453.843 524.998 453.327 525.472 452.957C525.95 452.583 526.471 452.323 527.034 452.176C527.602 452.025 528.161 451.949 528.71 451.949C529.061 451.949 529.463 451.991 529.918 452.077C530.377 452.157 530.82 452.325 531.246 452.581C531.677 452.837 532.034 453.223 532.318 453.739C532.602 454.255 532.744 454.946 532.744 455.812V463H531.068V461.523H530.983C530.869 461.759 530.68 462.013 530.415 462.283C530.15 462.553 529.797 462.782 529.357 462.972C528.916 463.161 528.379 463.256 527.744 463.256ZM528 461.75C528.663 461.75 529.222 461.62 529.676 461.359C530.135 461.099 530.481 460.763 530.713 460.351C530.95 459.939 531.068 459.506 531.068 459.051V457.517C530.997 457.602 530.841 457.68 530.599 457.751C530.363 457.818 530.088 457.877 529.776 457.929C529.468 457.976 529.167 458.019 528.874 458.057C528.585 458.09 528.35 458.118 528.17 458.142C527.735 458.199 527.328 458.291 526.949 458.419C526.575 458.542 526.272 458.729 526.04 458.98C525.813 459.226 525.699 459.562 525.699 459.989C525.699 460.571 525.914 461.011 526.345 461.31C526.781 461.603 527.332 461.75 528 461.75ZM540.065 462.006V452.631H541.656V462.006H540.065ZM536.173 458.114V456.523H545.548V458.114H536.173ZM549.214 463V448.455H550.891V453.824H551.033C551.156 453.634 551.326 453.393 551.544 453.099C551.767 452.801 552.084 452.536 552.496 452.304C552.912 452.067 553.476 451.949 554.186 451.949C555.105 451.949 555.914 452.179 556.615 452.638C557.316 453.097 557.863 453.748 558.256 454.591C558.649 455.434 558.845 456.428 558.845 457.574C558.845 458.729 558.649 459.731 558.256 460.578C557.863 461.421 557.318 462.074 556.622 462.538C555.926 462.998 555.124 463.227 554.214 463.227C553.514 463.227 552.953 463.111 552.531 462.879C552.11 462.643 551.786 462.375 551.558 462.077C551.331 461.774 551.156 461.523 551.033 461.324H550.834V463H549.214ZM550.862 457.545C550.862 458.369 550.983 459.096 551.224 459.726C551.466 460.351 551.819 460.841 552.283 461.196C552.747 461.546 553.315 461.722 553.987 461.722C554.688 461.722 555.273 461.537 555.741 461.168C556.215 460.794 556.57 460.292 556.807 459.662C557.048 459.027 557.169 458.322 557.169 457.545C557.169 456.778 557.051 456.087 556.814 455.472C556.582 454.851 556.229 454.361 555.756 454.001C555.287 453.637 554.697 453.455 553.987 453.455C553.305 453.455 552.732 453.627 552.268 453.973C551.804 454.314 551.454 454.792 551.217 455.408C550.981 456.018 550.862 456.731 550.862 457.545Z" fill="white"/>
<path d="M525.131 245.864C525.131 244.074 525.363 242.429 525.827 240.928C526.295 239.422 526.963 238.037 527.83 236.773H529.307C528.966 237.241 528.646 237.819 528.348 238.506C528.054 239.187 527.796 239.938 527.574 240.757C527.351 241.571 527.176 242.414 527.048 243.286C526.925 244.157 526.864 245.016 526.864 245.864C526.864 246.991 526.973 248.134 527.19 249.294C527.408 250.454 527.702 251.531 528.071 252.526C528.44 253.52 528.852 254.33 529.307 254.955H527.83C526.963 253.69 526.295 252.308 525.827 250.807C525.363 249.301 525.131 247.653 525.131 245.864ZM534.99 252.256C534.299 252.256 533.672 252.125 533.108 251.865C532.545 251.6 532.097 251.219 531.766 250.722C531.435 250.22 531.269 249.614 531.269 248.903C531.269 248.278 531.392 247.772 531.638 247.384C531.884 246.991 532.213 246.683 532.625 246.46C533.037 246.238 533.492 246.072 533.989 245.963C534.491 245.849 534.995 245.759 535.502 245.693C536.165 245.608 536.702 245.544 537.114 245.501C537.531 245.454 537.834 245.376 538.023 245.267C538.217 245.158 538.314 244.969 538.314 244.699V244.642C538.314 243.941 538.123 243.397 537.739 243.009C537.36 242.62 536.785 242.426 536.013 242.426C535.213 242.426 534.586 242.601 534.131 242.952C533.676 243.302 533.357 243.676 533.172 244.074L531.581 243.506C531.865 242.843 532.244 242.327 532.718 241.957C533.196 241.583 533.717 241.323 534.28 241.176C534.848 241.025 535.407 240.949 535.956 240.949C536.307 240.949 536.709 240.991 537.164 241.077C537.623 241.157 538.066 241.325 538.492 241.581C538.923 241.837 539.28 242.223 539.564 242.739C539.848 243.255 539.99 243.946 539.99 244.812V252H538.314V250.523H538.229C538.115 250.759 537.926 251.013 537.661 251.283C537.396 251.553 537.043 251.782 536.603 251.972C536.162 252.161 535.625 252.256 534.99 252.256ZM535.246 250.75C535.909 250.75 536.468 250.62 536.922 250.359C537.382 250.099 537.727 249.763 537.959 249.351C538.196 248.939 538.314 248.506 538.314 248.051V246.517C538.243 246.602 538.087 246.68 537.846 246.751C537.609 246.818 537.334 246.877 537.022 246.929C536.714 246.976 536.413 247.019 536.12 247.057C535.831 247.09 535.596 247.118 535.417 247.142C534.981 247.199 534.574 247.291 534.195 247.419C533.821 247.542 533.518 247.729 533.286 247.98C533.059 248.226 532.945 248.562 532.945 248.989C532.945 249.571 533.16 250.011 533.591 250.31C534.027 250.603 534.578 250.75 535.246 250.75ZM547.311 251.006V241.631H548.902V251.006H547.311ZM543.419 247.114V245.523H552.794V247.114H543.419ZM556.461 252V237.455H558.137V242.824H558.279C558.402 242.634 558.572 242.393 558.79 242.099C559.013 241.801 559.33 241.536 559.742 241.304C560.158 241.067 560.722 240.949 561.432 240.949C562.351 240.949 563.16 241.179 563.861 241.638C564.562 242.097 565.109 242.748 565.502 243.591C565.895 244.434 566.091 245.428 566.091 246.574C566.091 247.729 565.895 248.731 565.502 249.578C565.109 250.421 564.564 251.074 563.868 251.538C563.172 251.998 562.37 252.227 561.461 252.227C560.76 252.227 560.199 252.111 559.777 251.879C559.356 251.643 559.032 251.375 558.804 251.077C558.577 250.774 558.402 250.523 558.279 250.324H558.08V252H556.461ZM558.108 246.545C558.108 247.369 558.229 248.096 558.471 248.726C558.712 249.351 559.065 249.841 559.529 250.196C559.993 250.546 560.561 250.722 561.233 250.722C561.934 250.722 562.519 250.537 562.988 250.168C563.461 249.794 563.816 249.292 564.053 248.662C564.294 248.027 564.415 247.322 564.415 246.545C564.415 245.778 564.297 245.087 564.06 244.472C563.828 243.851 563.475 243.361 563.002 243.001C562.533 242.637 561.944 242.455 561.233 242.455C560.551 242.455 559.979 242.627 559.515 242.973C559.051 243.314 558.7 243.792 558.463 244.408C558.227 245.018 558.108 245.731 558.108 246.545ZM572 245.864C572 247.653 571.766 249.301 571.297 250.807C570.833 252.308 570.168 253.69 569.301 254.955H567.824C568.165 254.486 568.482 253.908 568.776 253.222C569.074 252.54 569.335 251.792 569.557 250.977C569.78 250.158 569.953 249.313 570.076 248.442C570.203 247.566 570.267 246.706 570.267 245.864C570.267 244.737 570.158 243.593 569.941 242.433C569.723 241.273 569.429 240.196 569.06 239.202C568.691 238.207 568.279 237.398 567.824 236.773H569.301C570.168 238.037 570.833 239.422 571.297 240.928C571.766 242.429 572 244.074 572 245.864ZM578.451 245.636L578.565 242.511L575.923 244.188L575.241 242.994L578.025 241.545L575.241 240.097L575.923 238.903L578.565 240.58L578.451 237.455H579.815L579.701 240.58L582.343 238.903L583.025 240.097L580.241 241.545L583.025 242.994L582.343 244.188L579.701 242.511L579.815 245.636H578.451Z" fill="white"/>
<path d="M80.7071 320.707C81.0976 320.317 81.0976 319.683 80.7071 319.293L74.3431 312.929C73.9526 312.538 73.3195 312.538 72.9289 312.929C72.5384 313.319 72.5384 313.953 72.9289 314.343L78.5858 320L72.9289 325.657C72.5384 326.047 72.5384 326.681 72.9289 327.071C73.3195 327.462 73.9526 327.462 74.3431 327.071L80.7071 320.707ZM40 321H80V319H40V321Z" fill="white"/>
<path d="M160.989 428.151C161.072 427.605 160.697 427.095 160.151 427.011L151.255 425.651C150.709 425.567 150.198 425.942 150.115 426.488C150.031 427.034 150.406 427.544 150.952 427.628L158.86 428.837L157.651 436.745C157.567 437.291 157.942 437.802 158.488 437.885C159.034 437.969 159.544 437.594 159.628 437.048L160.989 428.151ZM111.592 464.806L160.592 428.806L159.408 427.194L110.408 463.194L111.592 464.806Z" fill="white"/>
<path d="M160.707 320.707C161.098 320.317 161.098 319.683 160.707 319.293L154.343 312.929C153.953 312.538 153.319 312.538 152.929 312.929C152.538 313.319 152.538 313.953 152.929 314.343L158.586 320L152.929 325.657C152.538 326.047 152.538 326.681 152.929 327.071C153.319 327.462 153.953 327.462 154.343 327.071L160.707 320.707ZM120 321H160V319H120V321Z" fill="white"/>
<path d="M160.128 501.992C160.676 501.921 161.063 501.419 160.992 500.872L159.837 491.946C159.766 491.398 159.264 491.012 158.717 491.083C158.169 491.154 157.782 491.655 157.853 492.203L158.88 500.137L150.946 501.163C150.398 501.234 150.012 501.736 150.083 502.283C150.154 502.831 150.655 503.218 151.203 503.147L160.128 501.992ZM111.389 464.792L159.389 501.792L160.611 500.208L112.611 463.208L111.389 464.792Z" fill="white"/>
<path d="M526.744 321.256C526.053 321.256 525.426 321.125 524.862 320.865C524.299 320.6 523.851 320.219 523.52 319.722C523.188 319.22 523.023 318.614 523.023 317.903C523.023 317.278 523.146 316.772 523.392 316.384C523.638 315.991 523.967 315.683 524.379 315.46C524.791 315.238 525.246 315.072 525.743 314.963C526.245 314.849 526.749 314.759 527.256 314.693C527.919 314.608 528.456 314.544 528.868 314.501C529.285 314.454 529.588 314.376 529.777 314.267C529.971 314.158 530.068 313.969 530.068 313.699V313.642C530.068 312.941 529.876 312.397 529.493 312.009C529.114 311.62 528.539 311.426 527.767 311.426C526.967 311.426 526.339 311.601 525.885 311.952C525.43 312.302 525.111 312.676 524.926 313.074L523.335 312.506C523.619 311.843 523.998 311.327 524.472 310.957C524.95 310.583 525.471 310.323 526.034 310.176C526.602 310.025 527.161 309.949 527.71 309.949C528.061 309.949 528.463 309.991 528.918 310.077C529.377 310.157 529.82 310.325 530.246 310.581C530.677 310.837 531.034 311.223 531.318 311.739C531.602 312.255 531.744 312.946 531.744 313.812V321H530.068V319.523H529.983C529.869 319.759 529.68 320.013 529.415 320.283C529.15 320.553 528.797 320.782 528.357 320.972C527.916 321.161 527.379 321.256 526.744 321.256ZM527 319.75C527.663 319.75 528.222 319.62 528.676 319.359C529.135 319.099 529.481 318.763 529.713 318.351C529.95 317.939 530.068 317.506 530.068 317.051V315.517C529.997 315.602 529.841 315.68 529.599 315.751C529.363 315.818 529.088 315.877 528.776 315.929C528.468 315.976 528.167 316.019 527.874 316.057C527.585 316.09 527.35 316.118 527.17 316.142C526.735 316.199 526.328 316.291 525.949 316.419C525.575 316.542 525.272 316.729 525.04 316.98C524.813 317.226 524.699 317.562 524.699 317.989C524.699 318.571 524.914 319.011 525.345 319.31C525.781 319.603 526.332 319.75 527 319.75ZM535.031 321V306.455H536.707V311.824H536.849C536.972 311.634 537.143 311.393 537.36 311.099C537.583 310.801 537.9 310.536 538.312 310.304C538.729 310.067 539.292 309.949 540.002 309.949C540.921 309.949 541.731 310.179 542.431 310.638C543.132 311.097 543.679 311.748 544.072 312.591C544.465 313.434 544.662 314.428 544.662 315.574C544.662 316.729 544.465 317.731 544.072 318.578C543.679 319.421 543.135 320.074 542.439 320.538C541.743 320.998 540.94 321.227 540.031 321.227C539.33 321.227 538.769 321.111 538.348 320.879C537.926 320.643 537.602 320.375 537.375 320.077C537.147 319.774 536.972 319.523 536.849 319.324H536.65V321H535.031ZM536.679 315.545C536.679 316.369 536.799 317.096 537.041 317.726C537.282 318.351 537.635 318.841 538.099 319.196C538.563 319.546 539.131 319.722 539.804 319.722C540.504 319.722 541.089 319.537 541.558 319.168C542.031 318.794 542.386 318.292 542.623 317.662C542.865 317.027 542.985 316.322 542.985 315.545C542.985 314.778 542.867 314.087 542.63 313.472C542.398 312.851 542.046 312.361 541.572 312.001C541.103 311.637 540.514 311.455 539.804 311.455C539.122 311.455 538.549 311.627 538.085 311.973C537.621 312.314 537.27 312.792 537.034 313.408C536.797 314.018 536.679 314.731 536.679 315.545Z" fill="white"/>
<path d="M172.207 561.978C172.747 561.864 173.093 561.334 172.978 560.793L171.119 551.988C171.004 551.447 170.474 551.102 169.933 551.216C169.393 551.33 169.048 551.861 169.162 552.401L170.815 560.228L162.988 561.881C162.447 561.996 162.102 562.526 162.216 563.067C162.33 563.607 162.861 563.952 163.401 563.838L172.207 561.978ZM78.5442 561.839C98.2423 549.063 112.971 543.614 126.949 544.021C140.938 544.429 154.36 550.706 171.454 561.838L172.546 560.162C155.389 548.989 141.574 542.447 127.007 542.022C112.429 541.597 97.2835 547.301 77.4558 560.161L78.5442 561.839Z" fill="white"/>
<path d="M75.7872 594.619C75.2475 594.737 74.9054 595.269 75.0229 595.809L76.9386 604.603C77.0562 605.142 77.589 605.485 78.1286 605.367C78.6682 605.25 79.0104 604.717 78.8928 604.177L77.19 596.36L85.0066 594.658C85.5463 594.54 85.8884 594.007 85.7709 593.468C85.6533 592.928 85.1205 592.586 84.5809 592.703L75.7872 594.619ZM169.449 594.164C149.832 607.066 135.138 612.608 121.158 612.289C107.167 611.97 93.7045 605.778 76.5404 594.755L75.4596 596.438C92.6872 607.502 106.543 613.956 121.112 614.288C135.693 614.621 150.802 608.821 170.548 595.836L169.449 594.164Z" fill="white"/>
<path d="M519.131 580.864C519.131 579.074 519.363 577.429 519.827 575.928C520.295 574.422 520.963 573.037 521.83 571.773H523.307C522.966 572.241 522.646 572.819 522.348 573.506C522.054 574.187 521.796 574.938 521.574 575.757C521.351 576.571 521.176 577.414 521.048 578.286C520.925 579.157 520.864 580.016 520.864 580.864C520.864 581.991 520.973 583.134 521.19 584.294C521.408 585.454 521.702 586.531 522.071 587.526C522.44 588.52 522.852 589.33 523.307 589.955H521.83C520.963 588.69 520.295 587.308 519.827 585.807C519.363 584.301 519.131 582.653 519.131 580.864ZM528.99 587.256C528.299 587.256 527.672 587.125 527.108 586.865C526.545 586.6 526.097 586.219 525.766 585.722C525.435 585.22 525.269 584.614 525.269 583.903C525.269 583.278 525.392 582.772 525.638 582.384C525.884 581.991 526.213 581.683 526.625 581.46C527.037 581.238 527.492 581.072 527.989 580.963C528.491 580.849 528.995 580.759 529.502 580.693C530.165 580.608 530.702 580.544 531.114 580.501C531.531 580.454 531.834 580.376 532.023 580.267C532.217 580.158 532.314 579.969 532.314 579.699V579.642C532.314 578.941 532.123 578.397 531.739 578.009C531.36 577.62 530.785 577.426 530.013 577.426C529.213 577.426 528.586 577.601 528.131 577.952C527.676 578.302 527.357 578.676 527.172 579.074L525.581 578.506C525.865 577.843 526.244 577.327 526.718 576.957C527.196 576.583 527.717 576.323 528.28 576.176C528.848 576.025 529.407 575.949 529.956 575.949C530.307 575.949 530.709 575.991 531.164 576.077C531.623 576.157 532.066 576.325 532.492 576.581C532.923 576.837 533.28 577.223 533.564 577.739C533.848 578.255 533.99 578.946 533.99 579.812V587H532.314V585.523H532.229C532.115 585.759 531.926 586.013 531.661 586.283C531.396 586.553 531.043 586.782 530.603 586.972C530.162 587.161 529.625 587.256 528.99 587.256ZM529.246 585.75C529.909 585.75 530.468 585.62 530.922 585.359C531.382 585.099 531.727 584.763 531.959 584.351C532.196 583.939 532.314 583.506 532.314 583.051V581.517C532.243 581.602 532.087 581.68 531.846 581.751C531.609 581.818 531.334 581.877 531.022 581.929C530.714 581.976 530.413 582.019 530.12 582.057C529.831 582.09 529.596 582.118 529.417 582.142C528.981 582.199 528.574 582.291 528.195 582.419C527.821 582.542 527.518 582.729 527.286 582.98C527.059 583.226 526.945 583.562 526.945 583.989C526.945 584.571 527.16 585.011 527.591 585.31C528.027 585.603 528.578 585.75 529.246 585.75ZM537.277 587V572.455H538.953V577.824H539.095C539.218 577.634 539.389 577.393 539.607 577.099C539.829 576.801 540.146 576.536 540.558 576.304C540.975 576.067 541.538 575.949 542.249 575.949C543.167 575.949 543.977 576.179 544.678 576.638C545.378 577.097 545.925 577.748 546.318 578.591C546.711 579.434 546.908 580.428 546.908 581.574C546.908 582.729 546.711 583.731 546.318 584.578C545.925 585.421 545.381 586.074 544.685 586.538C543.989 586.998 543.186 587.227 542.277 587.227C541.576 587.227 541.015 587.111 540.594 586.879C540.172 586.643 539.848 586.375 539.621 586.077C539.393 585.774 539.218 585.523 539.095 585.324H538.896V587H537.277ZM538.925 581.545C538.925 582.369 539.045 583.096 539.287 583.726C539.528 584.351 539.881 584.841 540.345 585.196C540.809 585.546 541.377 585.722 542.05 585.722C542.75 585.722 543.335 585.537 543.804 585.168C544.277 584.794 544.633 584.292 544.869 583.662C545.111 583.027 545.232 582.322 545.232 581.545C545.232 580.778 545.113 580.087 544.876 579.472C544.644 578.851 544.292 578.361 543.818 578.001C543.349 577.637 542.76 577.455 542.05 577.455C541.368 577.455 540.795 577.627 540.331 577.973C539.867 578.314 539.517 578.792 539.28 579.408C539.043 580.018 538.925 580.731 538.925 581.545ZM552.817 580.864C552.817 582.653 552.582 584.301 552.114 585.807C551.65 587.308 550.984 588.69 550.118 589.955H548.641C548.982 589.486 549.299 588.908 549.592 588.222C549.891 587.54 550.151 586.792 550.374 585.977C550.596 585.158 550.769 584.313 550.892 583.442C551.02 582.566 551.084 581.706 551.084 580.864C551.084 579.737 550.975 578.593 550.757 577.433C550.539 576.273 550.246 575.196 549.876 574.202C549.507 573.207 549.095 572.398 548.641 571.773H550.118C550.984 573.037 551.65 574.422 552.114 575.928C552.582 577.429 552.817 579.074 552.817 580.864ZM559.267 580.636L559.381 577.511L556.739 579.188L556.057 577.994L558.841 576.545L556.057 575.097L556.739 573.903L559.381 575.58L559.267 572.455H560.631L560.517 575.58L563.159 573.903L563.841 575.097L561.057 576.545L563.841 577.994L563.159 579.188L560.517 577.511L560.631 580.636H559.267Z" fill="white"/>
<path d="M58.7443 312.256C58.053 312.256 57.4257 312.125 56.8622 311.865C56.2988 311.6 55.8513 311.219 55.5199 310.722C55.1884 310.22 55.0227 309.614 55.0227 308.903C55.0227 308.278 55.1458 307.772 55.392 307.384C55.6383 306.991 55.9673 306.683 56.3793 306.46C56.7912 306.238 57.2457 306.072 57.7429 305.963C58.2448 305.849 58.7491 305.759 59.2557 305.693C59.9186 305.608 60.456 305.544 60.8679 305.501C61.2846 305.454 61.5876 305.376 61.777 305.267C61.9711 305.158 62.0682 304.969 62.0682 304.699V304.642C62.0682 303.941 61.8764 303.397 61.4929 303.009C61.1141 302.62 60.5388 302.426 59.767 302.426C58.9669 302.426 58.3395 302.601 57.8849 302.952C57.4304 303.302 57.1108 303.676 56.9261 304.074L55.3352 303.506C55.6193 302.843 55.9981 302.327 56.4716 301.957C56.9498 301.583 57.4706 301.323 58.0341 301.176C58.6023 301.025 59.161 300.949 59.7102 300.949C60.0606 300.949 60.4631 300.991 60.9176 301.077C61.3769 301.157 61.8196 301.325 62.2457 301.581C62.6766 301.837 63.0341 302.223 63.3182 302.739C63.6023 303.255 63.7443 303.946 63.7443 304.812V312H62.0682V310.523H61.983C61.8693 310.759 61.6799 311.013 61.4148 311.283C61.1496 311.553 60.7969 311.782 60.3565 311.972C59.9162 312.161 59.3788 312.256 58.7443 312.256ZM59 310.75C59.6629 310.75 60.2216 310.62 60.6761 310.359C61.1354 310.099 61.4811 309.763 61.7131 309.351C61.9498 308.939 62.0682 308.506 62.0682 308.051V306.517C61.9972 306.602 61.8409 306.68 61.5994 306.751C61.3627 306.818 61.0881 306.877 60.7756 306.929C60.4678 306.976 60.1671 307.019 59.8736 307.057C59.5848 307.09 59.3504 307.118 59.1705 307.142C58.7348 307.199 58.3277 307.291 57.9489 307.419C57.5748 307.542 57.2718 307.729 57.0398 307.98C56.8125 308.226 56.6989 308.562 56.6989 308.989C56.6989 309.571 56.9143 310.011 57.3452 310.31C57.7808 310.603 58.3324 310.75 59 310.75Z" fill="white"/>
<path d="M132.761 317V302.455H134.438V307.824H134.58C134.703 307.634 134.873 307.393 135.091 307.099C135.313 306.801 135.631 306.536 136.043 306.304C136.459 306.067 137.023 305.949 137.733 305.949C138.652 305.949 139.461 306.179 140.162 306.638C140.863 307.097 141.41 307.748 141.803 308.591C142.196 309.434 142.392 310.428 142.392 311.574C142.392 312.729 142.196 313.731 141.803 314.578C141.41 315.421 140.865 316.074 140.169 316.538C139.473 316.998 138.67 317.227 137.761 317.227C137.061 317.227 136.5 317.111 136.078 316.879C135.657 316.643 135.332 316.375 135.105 316.077C134.878 315.774 134.703 315.523 134.58 315.324H134.381V317H132.761ZM134.409 311.545C134.409 312.369 134.53 313.096 134.771 313.726C135.013 314.351 135.366 314.841 135.83 315.196C136.294 315.546 136.862 315.722 137.534 315.722C138.235 315.722 138.82 315.537 139.288 315.168C139.762 314.794 140.117 314.292 140.354 313.662C140.595 313.027 140.716 312.322 140.716 311.545C140.716 310.778 140.598 310.087 140.361 309.472C140.129 308.851 139.776 308.361 139.303 308.001C138.834 307.637 138.244 307.455 137.534 307.455C136.852 307.455 136.279 307.627 135.815 307.973C135.351 308.314 135.001 308.792 134.764 309.408C134.527 310.018 134.409 310.731 134.409 311.545Z" fill="white"/>
<path d="M123.761 495V480.455H125.438V485.824H125.58C125.703 485.634 125.873 485.393 126.091 485.099C126.313 484.801 126.631 484.536 127.043 484.304C127.459 484.067 128.023 483.949 128.733 483.949C129.652 483.949 130.461 484.179 131.162 484.638C131.863 485.097 132.41 485.748 132.803 486.591C133.196 487.434 133.392 488.428 133.392 489.574C133.392 490.729 133.196 491.731 132.803 492.578C132.41 493.421 131.865 494.074 131.169 494.538C130.473 494.998 129.67 495.227 128.761 495.227C128.061 495.227 127.5 495.111 127.078 494.879C126.657 494.643 126.332 494.375 126.105 494.077C125.878 493.774 125.703 493.523 125.58 493.324H125.381V495H123.761ZM125.409 489.545C125.409 490.369 125.53 491.096 125.771 491.726C126.013 492.351 126.366 492.841 126.83 493.196C127.294 493.546 127.862 493.722 128.534 493.722C129.235 493.722 129.82 493.537 130.288 493.168C130.762 492.794 131.117 492.292 131.354 491.662C131.595 491.027 131.716 490.322 131.716 489.545C131.716 488.778 131.598 488.087 131.361 487.472C131.129 486.851 130.776 486.361 130.303 486.001C129.834 485.637 129.244 485.455 128.534 485.455C127.852 485.455 127.279 485.627 126.815 485.973C126.351 486.314 126.001 486.792 125.764 487.408C125.527 488.018 125.409 488.731 125.409 489.545Z" fill="white"/>
<path d="M114.761 633V618.455H116.438V623.824H116.58C116.703 623.634 116.873 623.393 117.091 623.099C117.313 622.801 117.631 622.536 118.043 622.304C118.459 622.067 119.023 621.949 119.733 621.949C120.652 621.949 121.461 622.179 122.162 622.638C122.863 623.097 123.41 623.748 123.803 624.591C124.196 625.434 124.392 626.428 124.392 627.574C124.392 628.729 124.196 629.731 123.803 630.578C123.41 631.421 122.865 632.074 122.169 632.538C121.473 632.998 120.67 633.227 119.761 633.227C119.061 633.227 118.5 633.111 118.078 632.879C117.657 632.643 117.332 632.375 117.105 632.077C116.878 631.774 116.703 631.523 116.58 631.324H116.381V633H114.761ZM116.409 627.545C116.409 628.369 116.53 629.096 116.771 629.726C117.013 630.351 117.366 630.841 117.83 631.196C118.294 631.546 118.862 631.722 119.534 631.722C120.235 631.722 120.82 631.537 121.288 631.168C121.762 630.794 122.117 630.292 122.354 629.662C122.595 629.027 122.716 628.322 122.716 627.545C122.716 626.778 122.598 626.087 122.361 625.472C122.129 624.851 121.776 624.361 121.303 624.001C120.834 623.637 120.244 623.455 119.534 623.455C118.852 623.455 118.279 623.627 117.815 623.973C117.351 624.314 117.001 624.792 116.764 625.408C116.527 626.018 116.409 626.731 116.409 627.545Z" fill="white"/>
<path d="M128.744 440.256C128.053 440.256 127.426 440.125 126.862 439.865C126.299 439.6 125.851 439.219 125.52 438.722C125.188 438.22 125.023 437.614 125.023 436.903C125.023 436.278 125.146 435.772 125.392 435.384C125.638 434.991 125.967 434.683 126.379 434.46C126.791 434.238 127.246 434.072 127.743 433.963C128.245 433.849 128.749 433.759 129.256 433.693C129.919 433.608 130.456 433.544 130.868 433.501C131.285 433.454 131.588 433.376 131.777 433.267C131.971 433.158 132.068 432.969 132.068 432.699V432.642C132.068 431.941 131.876 431.397 131.493 431.009C131.114 430.62 130.539 430.426 129.767 430.426C128.967 430.426 128.339 430.601 127.885 430.952C127.43 431.302 127.111 431.676 126.926 432.074L125.335 431.506C125.619 430.843 125.998 430.327 126.472 429.957C126.95 429.583 127.471 429.323 128.034 429.176C128.602 429.025 129.161 428.949 129.71 428.949C130.061 428.949 130.463 428.991 130.918 429.077C131.377 429.157 131.82 429.325 132.246 429.581C132.677 429.837 133.034 430.223 133.318 430.739C133.602 431.255 133.744 431.946 133.744 432.812V440H132.068V438.523H131.983C131.869 438.759 131.68 439.013 131.415 439.283C131.15 439.553 130.797 439.782 130.357 439.972C129.916 440.161 129.379 440.256 128.744 440.256ZM129 438.75C129.663 438.75 130.222 438.62 130.676 438.359C131.135 438.099 131.481 437.763 131.713 437.351C131.95 436.939 132.068 436.506 132.068 436.051V434.517C131.997 434.602 131.841 434.68 131.599 434.751C131.363 434.818 131.088 434.877 130.776 434.929C130.468 434.976 130.167 435.019 129.874 435.057C129.585 435.09 129.35 435.118 129.17 435.142C128.735 435.199 128.328 435.291 127.949 435.419C127.575 435.542 127.272 435.729 127.04 435.98C126.813 436.226 126.699 436.562 126.699 436.989C126.699 437.571 126.914 438.011 127.345 438.31C127.781 438.603 128.332 438.75 129 438.75Z" fill="white"/>
<path d="M125.744 538.256C125.053 538.256 124.426 538.125 123.862 537.865C123.299 537.6 122.851 537.219 122.52 536.722C122.188 536.22 122.023 535.614 122.023 534.903C122.023 534.278 122.146 533.772 122.392 533.384C122.638 532.991 122.967 532.683 123.379 532.46C123.791 532.238 124.246 532.072 124.743 531.963C125.245 531.849 125.749 531.759 126.256 531.693C126.919 531.608 127.456 531.544 127.868 531.501C128.285 531.454 128.588 531.376 128.777 531.267C128.971 531.158 129.068 530.969 129.068 530.699V530.642C129.068 529.941 128.876 529.397 128.493 529.009C128.114 528.62 127.539 528.426 126.767 528.426C125.967 528.426 125.339 528.601 124.885 528.952C124.43 529.302 124.111 529.676 123.926 530.074L122.335 529.506C122.619 528.843 122.998 528.327 123.472 527.957C123.95 527.583 124.471 527.323 125.034 527.176C125.602 527.025 126.161 526.949 126.71 526.949C127.061 526.949 127.463 526.991 127.918 527.077C128.377 527.157 128.82 527.325 129.246 527.581C129.677 527.837 130.034 528.223 130.318 528.739C130.602 529.255 130.744 529.946 130.744 530.812V538H129.068V536.523H128.983C128.869 536.759 128.68 537.013 128.415 537.283C128.15 537.553 127.797 537.782 127.357 537.972C126.916 538.161 126.379 538.256 125.744 538.256ZM126 536.75C126.663 536.75 127.222 536.62 127.676 536.359C128.135 536.099 128.481 535.763 128.713 535.351C128.95 534.939 129.068 534.506 129.068 534.051V532.517C128.997 532.602 128.841 532.68 128.599 532.751C128.363 532.818 128.088 532.877 127.776 532.929C127.468 532.976 127.167 533.019 126.874 533.057C126.585 533.09 126.35 533.118 126.17 533.142C125.735 533.199 125.328 533.291 124.949 533.419C124.575 533.542 124.272 533.729 124.04 533.98C123.813 534.226 123.699 534.562 123.699 534.989C123.699 535.571 123.914 536.011 124.345 536.31C124.781 536.603 125.332 536.75 126 536.75Z" fill="white"/>
<path d="M86.2642 54V39.4545H92.0881C93.1581 39.4545 94.0507 39.6132 94.7656 39.9304C95.4806 40.2476 96.018 40.688 96.3778 41.2514C96.7377 41.8101 96.9176 42.4541 96.9176 43.1832C96.9176 43.7514 96.804 44.2509 96.5767 44.6818C96.3494 45.108 96.0369 45.4583 95.6392 45.733C95.2462 46.0028 94.7964 46.1946 94.2898 46.3082V46.4503C94.8438 46.474 95.3622 46.6302 95.8452 46.919C96.3329 47.2079 96.7282 47.6127 97.0312 48.1335C97.3343 48.6496 97.4858 49.2652 97.4858 49.9801C97.4858 50.7519 97.294 51.4408 96.9105 52.0469C96.5317 52.6482 95.9706 53.1241 95.2273 53.4744C94.4839 53.8248 93.5677 54 92.4787 54H86.2642ZM89.3395 51.4858H91.8466C92.7036 51.4858 93.3286 51.3224 93.7216 50.9957C94.1146 50.6643 94.3111 50.224 94.3111 49.6747C94.3111 49.2723 94.214 48.9171 94.0199 48.6094C93.8258 48.3016 93.5488 48.0601 93.1889 47.8849C92.8338 47.7098 92.41 47.6222 91.9176 47.6222H89.3395V51.4858ZM89.3395 45.5412H91.6193C92.0407 45.5412 92.4148 45.4678 92.7415 45.321C93.0729 45.1695 93.3333 44.9564 93.5227 44.6818C93.7169 44.4072 93.8139 44.0781 93.8139 43.6946C93.8139 43.169 93.6269 42.7453 93.2528 42.4233C92.8835 42.1013 92.358 41.9403 91.6761 41.9403H89.3395V45.5412ZM102.541 54.206C101.845 54.206 101.225 54.0852 100.68 53.8438C100.136 53.5975 99.7047 53.2353 99.3874 52.7571C99.0749 52.2741 98.9187 51.6728 98.9187 50.9531C98.9187 50.3471 99.0299 49.8381 99.2525 49.4261C99.475 49.0142 99.7781 48.6828 100.162 48.4318C100.545 48.1809 100.981 47.9915 101.468 47.8636C101.961 47.7358 102.477 47.6458 103.017 47.5938C103.651 47.5275 104.163 47.4659 104.551 47.4091C104.939 47.3475 105.221 47.2576 105.396 47.1392C105.571 47.0208 105.659 46.8456 105.659 46.6136V46.571C105.659 46.1212 105.517 45.7732 105.233 45.527C104.953 45.2808 104.556 45.1577 104.039 45.1577C103.495 45.1577 103.062 45.2784 102.74 45.5199C102.418 45.7566 102.205 46.0549 102.1 46.4148L99.3022 46.1875C99.4442 45.5246 99.7236 44.9517 100.14 44.4688C100.557 43.9811 101.094 43.607 101.752 43.3466C102.415 43.0814 103.182 42.9489 104.054 42.9489C104.66 42.9489 105.24 43.0199 105.794 43.1619C106.352 43.304 106.847 43.5241 107.278 43.8224C107.714 44.1207 108.057 44.5043 108.308 44.973C108.559 45.437 108.684 45.9934 108.684 46.642V54H105.815V52.4872H105.73C105.555 52.8281 105.32 53.1288 105.027 53.3892C104.733 53.6449 104.38 53.8461 103.968 53.9929C103.556 54.1349 103.081 54.206 102.541 54.206ZM103.407 52.1179C103.852 52.1179 104.245 52.0303 104.586 51.8551C104.927 51.6752 105.195 51.4337 105.389 51.1307C105.583 50.8277 105.68 50.4844 105.68 50.1009V48.9432C105.585 49.0047 105.455 49.0616 105.289 49.1136C105.128 49.161 104.946 49.206 104.743 49.2486C104.539 49.2865 104.335 49.322 104.132 49.3551C103.928 49.3835 103.743 49.4096 103.578 49.4332C103.223 49.4853 102.913 49.5682 102.647 49.6818C102.382 49.7955 102.176 49.9493 102.029 50.1435C101.883 50.3329 101.809 50.5696 101.809 50.8537C101.809 51.2656 101.958 51.5805 102.257 51.7983C102.56 52.0114 102.943 52.1179 103.407 52.1179ZM120.108 46.2017L117.338 46.3722C117.291 46.1354 117.189 45.9223 117.033 45.733C116.877 45.5388 116.671 45.3849 116.415 45.2713C116.164 45.1529 115.864 45.0938 115.513 45.0938C115.044 45.0938 114.649 45.1932 114.327 45.392C114.005 45.5862 113.844 45.8466 113.844 46.1733C113.844 46.4337 113.948 46.6539 114.157 46.8338C114.365 47.0137 114.722 47.1581 115.229 47.267L117.203 47.6648C118.264 47.8826 119.055 48.233 119.576 48.7159C120.096 49.1989 120.357 49.8333 120.357 50.6193C120.357 51.3343 120.146 51.9616 119.725 52.5014C119.308 53.0412 118.735 53.4626 118.006 53.7656C117.282 54.0639 116.446 54.2131 115.499 54.2131C114.055 54.2131 112.904 53.9124 112.047 53.3111C111.195 52.705 110.695 51.8812 110.549 50.8395L113.525 50.6832C113.614 51.1236 113.832 51.4598 114.178 51.6918C114.524 51.919 114.966 52.0327 115.506 52.0327C116.036 52.0327 116.462 51.9309 116.784 51.7273C117.111 51.5189 117.277 51.2514 117.282 50.9247C117.277 50.6501 117.161 50.4252 116.934 50.25C116.706 50.0701 116.356 49.9328 115.882 49.8381L113.993 49.4616C112.928 49.2486 112.135 48.8793 111.614 48.3537C111.098 47.8281 110.84 47.1581 110.84 46.3438C110.84 45.643 111.029 45.0393 111.408 44.5327C111.792 44.026 112.329 43.6354 113.02 43.3608C113.716 43.0862 114.531 42.9489 115.463 42.9489C116.841 42.9489 117.926 43.2401 118.716 43.8224C119.512 44.4048 119.976 45.1979 120.108 46.2017ZM122.262 54V43.0909H125.288V54H122.262ZM123.782 41.6847C123.332 41.6847 122.946 41.5355 122.624 41.2372C122.307 40.9342 122.148 40.572 122.148 40.1506C122.148 39.7339 122.307 39.3764 122.624 39.0781C122.946 38.7751 123.332 38.6236 123.782 38.6236C124.232 38.6236 124.615 38.7751 124.933 39.0781C125.254 39.3764 125.415 39.7339 125.415 40.1506C125.415 40.572 125.254 40.9342 124.933 41.2372C124.615 41.5355 124.232 41.6847 123.782 41.6847ZM132.64 54.2131C131.523 54.2131 130.562 53.9763 129.757 53.5028C128.957 53.0246 128.341 52.3617 127.91 51.5142C127.484 50.6667 127.271 49.6913 127.271 48.5881C127.271 47.4706 127.486 46.4905 127.917 45.6477C128.353 44.8002 128.971 44.1397 129.771 43.6662C130.571 43.188 131.523 42.9489 132.626 42.9489C133.578 42.9489 134.411 43.1217 135.126 43.4673C135.841 43.813 136.407 44.2983 136.824 44.9233C137.24 45.5483 137.47 46.2822 137.512 47.125H134.657C134.577 46.5805 134.364 46.1425 134.018 45.8111C133.677 45.4749 133.23 45.3068 132.676 45.3068C132.207 45.3068 131.797 45.4347 131.447 45.6903C131.101 45.9413 130.832 46.3082 130.637 46.7912C130.443 47.2741 130.346 47.8589 130.346 48.5455C130.346 49.2415 130.441 49.8333 130.63 50.321C130.824 50.8087 131.097 51.1804 131.447 51.4361C131.797 51.6918 132.207 51.8196 132.676 51.8196C133.021 51.8196 133.332 51.7486 133.606 51.6065C133.886 51.4645 134.115 51.2585 134.295 50.9886C134.48 50.714 134.6 50.3849 134.657 50.0014H137.512C137.465 50.8348 137.238 51.5687 136.831 52.2031C136.428 52.8329 135.872 53.3253 135.162 53.6804C134.451 54.0355 133.611 54.2131 132.64 54.2131ZM157.502 46.7273C157.502 48.3134 157.201 49.6629 156.6 50.7756C156.003 51.8883 155.189 52.7382 154.157 53.3253C153.129 53.9077 151.974 54.1989 150.691 54.1989C149.398 54.1989 148.238 53.9053 147.211 53.3182C146.183 52.7311 145.371 51.8812 144.775 50.7685C144.178 49.6558 143.88 48.3087 143.88 46.7273C143.88 45.1411 144.178 43.7917 144.775 42.679C145.371 41.5663 146.183 40.7187 147.211 40.1364C148.238 39.5492 149.398 39.2557 150.691 39.2557C151.974 39.2557 153.129 39.5492 154.157 40.1364C155.189 40.7187 156.003 41.5663 156.6 42.679C157.201 43.7917 157.502 45.1411 157.502 46.7273ZM154.384 46.7273C154.384 45.6998 154.23 44.8333 153.922 44.1278C153.619 43.4223 153.191 42.8873 152.637 42.5227C152.083 42.1581 151.434 41.9759 150.691 41.9759C149.947 41.9759 149.299 42.1581 148.745 42.5227C148.191 42.8873 147.76 43.4223 147.452 44.1278C147.149 44.8333 146.998 45.6998 146.998 46.7273C146.998 47.7547 147.149 48.6212 147.452 49.3267C147.76 50.0322 148.191 50.5672 148.745 50.9318C149.299 51.2964 149.947 51.4787 150.691 51.4787C151.434 51.4787 152.083 51.2964 152.637 50.9318C153.191 50.5672 153.619 50.0322 153.922 49.3267C154.23 48.6212 154.384 47.7547 154.384 46.7273ZM159.723 58.0909V43.0909H162.706V44.9233H162.841C162.973 44.6297 163.165 44.3314 163.416 44.0284C163.672 43.7206 164.003 43.465 164.411 43.2614C164.822 43.053 165.334 42.9489 165.945 42.9489C166.74 42.9489 167.474 43.1572 168.146 43.5739C168.819 43.9858 169.356 44.6084 169.759 45.4418C170.161 46.2704 170.362 47.3097 170.362 48.5597C170.362 49.7765 170.166 50.804 169.773 51.642C169.384 52.4754 168.854 53.1075 168.182 53.5384C167.514 53.9645 166.766 54.1776 165.938 54.1776C165.35 54.1776 164.851 54.0805 164.439 53.8864C164.032 53.6922 163.698 53.4484 163.438 53.1548C163.177 52.8565 162.978 52.5559 162.841 52.2528H162.749V58.0909H159.723ZM162.685 48.5455C162.685 49.1941 162.775 49.7599 162.955 50.2429C163.134 50.7259 163.395 51.1023 163.736 51.3722C164.077 51.6373 164.491 51.7699 164.979 51.7699C165.471 51.7699 165.888 51.6349 166.229 51.3651C166.57 51.0904 166.828 50.7116 167.003 50.2287C167.183 49.741 167.273 49.1799 167.273 48.5455C167.273 47.9157 167.185 47.3617 167.01 46.8835C166.835 46.4053 166.577 46.0312 166.236 45.7614C165.895 45.4915 165.476 45.3565 164.979 45.3565C164.486 45.3565 164.07 45.4867 163.729 45.7472C163.393 46.0076 163.134 46.3769 162.955 46.8551C162.775 47.3333 162.685 47.8968 162.685 48.5455ZM177.351 54.2131C176.229 54.2131 175.263 53.9858 174.453 53.5312C173.648 53.072 173.028 52.4233 172.592 51.5852C172.157 50.7424 171.939 49.7457 171.939 48.5952C171.939 47.473 172.157 46.4882 172.592 45.6406C173.028 44.7931 173.641 44.1326 174.432 43.6591C175.227 43.1856 176.16 42.9489 177.23 42.9489C177.95 42.9489 178.62 43.0649 179.24 43.2969C179.865 43.5241 180.41 43.8674 180.874 44.3267C181.342 44.786 181.707 45.3636 181.967 46.0597C182.228 46.7509 182.358 47.5606 182.358 48.4886V49.3196H173.146V47.4446H179.51C179.51 47.009 179.415 46.6231 179.226 46.2869C179.036 45.9508 178.774 45.688 178.438 45.4986C178.106 45.3045 177.72 45.2074 177.28 45.2074C176.821 45.2074 176.413 45.3139 176.058 45.527C175.708 45.7353 175.433 46.017 175.234 46.3722C175.036 46.7225 174.934 47.1132 174.929 47.544V49.3267C174.929 49.8665 175.028 50.3329 175.227 50.7259C175.431 51.1188 175.717 51.4219 176.087 51.6349C176.456 51.848 176.894 51.9545 177.401 51.9545C177.737 51.9545 178.045 51.9072 178.324 51.8125C178.603 51.7178 178.842 51.5758 179.041 51.3864C179.24 51.197 179.392 50.965 179.496 50.6903L182.294 50.875C182.152 51.5473 181.861 52.1345 181.42 52.6364C180.985 53.1335 180.421 53.5218 179.73 53.8011C179.044 54.0758 178.25 54.2131 177.351 54.2131ZM184.332 54V43.0909H187.266V44.9943H187.379C187.578 44.3172 187.912 43.8059 188.381 43.4602C188.849 43.1098 189.389 42.9347 190 42.9347C190.152 42.9347 190.315 42.9441 190.49 42.9631C190.665 42.982 190.819 43.008 190.952 43.0412V45.7259C190.81 45.6832 190.613 45.6454 190.362 45.6122C190.111 45.5791 189.882 45.5625 189.673 45.5625C189.228 45.5625 188.83 45.6596 188.48 45.8537C188.134 46.0431 187.86 46.3082 187.656 46.6491C187.457 46.9901 187.358 47.383 187.358 47.8281V54H184.332ZM195.314 54.206C194.618 54.206 193.998 54.0852 193.453 53.8438C192.909 53.5975 192.478 53.2353 192.161 52.7571C191.848 52.2741 191.692 51.6728 191.692 50.9531C191.692 50.3471 191.803 49.8381 192.026 49.4261C192.248 49.0142 192.551 48.6828 192.935 48.4318C193.319 48.1809 193.754 47.9915 194.242 47.8636C194.734 47.7358 195.25 47.6458 195.79 47.5938C196.425 47.5275 196.936 47.4659 197.324 47.4091C197.712 47.3475 197.994 47.2576 198.169 47.1392C198.345 47.0208 198.432 46.8456 198.432 46.6136V46.571C198.432 46.1212 198.29 45.7732 198.006 45.527C197.727 45.2808 197.329 45.1577 196.813 45.1577C196.268 45.1577 195.835 45.2784 195.513 45.5199C195.191 45.7566 194.978 46.0549 194.874 46.4148L192.076 46.1875C192.218 45.5246 192.497 44.9517 192.914 44.4688C193.33 43.9811 193.868 43.607 194.526 43.3466C195.189 43.0814 195.956 42.9489 196.827 42.9489C197.433 42.9489 198.013 43.0199 198.567 43.1619C199.126 43.304 199.621 43.5241 200.051 43.8224C200.487 44.1207 200.83 44.5043 201.081 44.973C201.332 45.437 201.458 45.9934 201.458 46.642V54H198.588V52.4872H198.503C198.328 52.8281 198.094 53.1288 197.8 53.3892C197.507 53.6449 197.154 53.8461 196.742 53.9929C196.33 54.1349 195.854 54.206 195.314 54.206ZM196.181 52.1179C196.626 52.1179 197.019 52.0303 197.36 51.8551C197.701 51.6752 197.968 51.4337 198.162 51.1307C198.356 50.8277 198.453 50.4844 198.453 50.1009V48.9432C198.359 49.0047 198.229 49.0616 198.063 49.1136C197.902 49.161 197.72 49.206 197.516 49.2486C197.312 49.2865 197.109 49.322 196.905 49.3551C196.702 49.3835 196.517 49.4096 196.351 49.4332C195.996 49.4853 195.686 49.5682 195.421 49.6818C195.156 49.7955 194.95 49.9493 194.803 50.1435C194.656 50.3329 194.583 50.5696 194.583 50.8537C194.583 51.2656 194.732 51.5805 195.03 51.7983C195.333 52.0114 195.717 52.1179 196.181 52.1179ZM209.608 43.0909V45.3636H203.038V43.0909H209.608ZM204.529 40.4773H207.555V50.6477C207.555 50.9271 207.598 51.1449 207.683 51.3011C207.768 51.4527 207.886 51.5592 208.038 51.6207C208.194 51.6823 208.374 51.7131 208.578 51.7131C208.72 51.7131 208.862 51.7012 209.004 51.6776C209.146 51.6491 209.255 51.6278 209.331 51.6136L209.806 53.8651C209.655 53.9124 209.442 53.9669 209.167 54.0284C208.893 54.0947 208.559 54.1349 208.166 54.1491C207.437 54.1776 206.797 54.0805 206.248 53.858C205.704 53.6354 205.28 53.2898 204.977 52.821C204.674 52.3523 204.525 51.7604 204.529 51.0455V40.4773ZM211.578 54V43.0909H214.604V54H211.578ZM213.098 41.6847C212.649 41.6847 212.263 41.5355 211.941 41.2372C211.623 40.9342 211.465 40.572 211.465 40.1506C211.465 39.7339 211.623 39.3764 211.941 39.0781C212.263 38.7751 212.649 38.6236 213.098 38.6236C213.548 38.6236 213.932 38.7751 214.249 39.0781C214.571 39.3764 214.732 39.7339 214.732 40.1506C214.732 40.572 214.571 40.9342 214.249 41.2372C213.932 41.5355 213.548 41.6847 213.098 41.6847ZM221.957 54.2131C220.853 54.2131 219.899 53.9787 219.094 53.5099C218.294 53.0365 217.676 52.3783 217.241 51.5355C216.805 50.688 216.587 49.7055 216.587 48.5881C216.587 47.4612 216.805 46.4763 217.241 45.6335C217.676 44.786 218.294 44.1278 219.094 43.6591C219.899 43.1856 220.853 42.9489 221.957 42.9489C223.06 42.9489 224.012 43.1856 224.812 43.6591C225.617 44.1278 226.237 44.786 226.673 45.6335C227.108 46.4763 227.326 47.4612 227.326 48.5881C227.326 49.7055 227.108 50.688 226.673 51.5355C226.237 52.3783 225.617 53.0365 224.812 53.5099C224.012 53.9787 223.06 54.2131 221.957 54.2131ZM221.971 51.8693C222.473 51.8693 222.892 51.7273 223.228 51.4432C223.564 51.1544 223.817 50.7614 223.988 50.2642C224.163 49.767 224.251 49.2012 224.251 48.5668C224.251 47.9323 224.163 47.3665 223.988 46.8693C223.817 46.3722 223.564 45.9792 223.228 45.6903C222.892 45.4015 222.473 45.2571 221.971 45.2571C221.464 45.2571 221.038 45.4015 220.692 45.6903C220.352 45.9792 220.094 46.3722 219.918 46.8693C219.748 47.3665 219.663 47.9323 219.663 48.5668C219.663 49.2012 219.748 49.767 219.918 50.2642C220.094 50.7614 220.352 51.1544 220.692 51.4432C221.038 51.7273 221.464 51.8693 221.971 51.8693ZM232.319 47.6932V54H229.293V43.0909H232.177V45.0156H232.305C232.546 44.3812 232.951 43.8793 233.519 43.5099C234.087 43.1359 234.776 42.9489 235.586 42.9489C236.344 42.9489 237.004 43.1146 237.567 43.446C238.131 43.7775 238.569 44.2509 238.881 44.8665C239.194 45.4773 239.35 46.2064 239.35 47.054V54H236.325V47.5938C236.329 46.9261 236.159 46.4053 235.813 46.0312C235.468 45.6525 234.992 45.4631 234.386 45.4631C233.978 45.4631 233.619 45.5507 233.306 45.7259C232.998 45.901 232.757 46.1567 232.582 46.4929C232.411 46.8243 232.324 47.2244 232.319 47.6932ZM250.811 46.2017L248.042 46.3722C247.994 46.1354 247.892 45.9223 247.736 45.733C247.58 45.5388 247.374 45.3849 247.118 45.2713C246.867 45.1529 246.567 45.0938 246.216 45.0938C245.748 45.0938 245.352 45.1932 245.03 45.392C244.708 45.5862 244.547 45.8466 244.547 46.1733C244.547 46.4337 244.651 46.6539 244.86 46.8338C245.068 47.0137 245.426 47.1581 245.932 47.267L247.907 47.6648C248.967 47.8826 249.758 48.233 250.279 48.7159C250.8 49.1989 251.06 49.8333 251.06 50.6193C251.06 51.3343 250.849 51.9616 250.428 52.5014C250.011 53.0412 249.438 53.4626 248.709 53.7656C247.985 54.0639 247.149 54.2131 246.202 54.2131C244.758 54.2131 243.607 53.9124 242.75 53.3111C241.898 52.705 241.399 51.8812 241.252 50.8395L244.228 50.6832C244.318 51.1236 244.535 51.4598 244.881 51.6918C245.227 51.919 245.669 52.0327 246.209 52.0327C246.739 52.0327 247.166 51.9309 247.488 51.7273C247.814 51.5189 247.98 51.2514 247.985 50.9247C247.98 50.6501 247.864 50.4252 247.637 50.25C247.409 50.0701 247.059 49.9328 246.586 49.8381L244.696 49.4616C243.631 49.2486 242.838 48.8793 242.317 48.3537C241.801 47.8281 241.543 47.1581 241.543 46.3438C241.543 45.643 241.732 45.0393 242.111 44.5327C242.495 44.026 243.032 43.6354 243.723 43.3608C244.419 43.0862 245.234 42.9489 246.167 42.9489C247.544 42.9489 248.629 43.2401 249.419 43.8224C250.215 44.4048 250.679 45.1979 250.811 46.2017ZM262.523 54.2131C261.42 54.2131 260.466 53.9787 259.661 53.5099C258.861 53.0365 258.243 52.3783 257.807 51.5355C257.372 50.688 257.154 49.7055 257.154 48.5881C257.154 47.4612 257.372 46.4763 257.807 45.6335C258.243 44.786 258.861 44.1278 259.661 43.6591C260.466 43.1856 261.42 42.9489 262.523 42.9489C263.626 42.9489 264.578 43.1856 265.378 43.6591C266.183 44.1278 266.803 44.786 267.239 45.6335C267.675 46.4763 267.892 47.4612 267.892 48.5881C267.892 49.7055 267.675 50.688 267.239 51.5355C266.803 52.3783 266.183 53.0365 265.378 53.5099C264.578 53.9787 263.626 54.2131 262.523 54.2131ZM262.537 51.8693C263.039 51.8693 263.458 51.7273 263.794 51.4432C264.131 51.1544 264.384 50.7614 264.554 50.2642C264.73 49.767 264.817 49.2012 264.817 48.5668C264.817 47.9323 264.73 47.3665 264.554 46.8693C264.384 46.3722 264.131 45.9792 263.794 45.6903C263.458 45.4015 263.039 45.2571 262.537 45.2571C262.031 45.2571 261.605 45.4015 261.259 45.6903C260.918 45.9792 260.66 46.3722 260.485 46.8693C260.314 47.3665 260.229 47.9323 260.229 48.5668C260.229 49.2012 260.314 49.767 260.485 50.2642C260.66 50.7614 260.918 51.1544 261.259 51.4432C261.605 51.7273 262.031 51.8693 262.537 51.8693ZM275.726 43.0909V45.3636H268.993V43.0909H275.726ZM270.534 54V42.3026C270.534 41.5118 270.688 40.8561 270.996 40.3352C271.309 39.8144 271.735 39.4238 272.275 39.1634C272.814 38.9029 273.427 38.7727 274.114 38.7727C274.578 38.7727 275.002 38.8082 275.385 38.8793C275.774 38.9503 276.062 39.0142 276.252 39.071L275.712 41.3438C275.594 41.3059 275.447 41.2704 275.272 41.2372C275.101 41.2041 274.926 41.1875 274.746 41.1875C274.301 41.1875 273.991 41.2917 273.816 41.5C273.641 41.7036 273.553 41.9901 273.553 42.3594V54H270.534ZM294.426 39.4545V54H291.77L285.442 44.8452H285.336V54H282.26V39.4545H284.959L291.238 48.6023H291.365V39.4545H294.426ZM296.967 54V39.4545H306.598V41.9901H300.043V45.456H305.959V47.9915H300.043V54H296.967ZM309.357 54H306.062L311.083 39.4545H315.046L320.06 54H316.765L313.121 42.7784H313.008L309.357 54ZM309.151 48.2827H316.935V50.6832H309.151V48.2827ZM332.186 43.0909V45.3636H325.616V43.0909H332.186ZM327.108 40.4773H330.133V50.6477C330.133 50.9271 330.176 51.1449 330.261 51.3011C330.346 51.4527 330.465 51.5592 330.616 51.6207C330.772 51.6823 330.952 51.7131 331.156 51.7131C331.298 51.7131 331.44 51.7012 331.582 51.6776C331.724 51.6491 331.833 51.6278 331.909 51.6136L332.385 53.8651C332.233 53.9124 332.02 53.9669 331.745 54.0284C331.471 54.0947 331.137 54.1349 330.744 54.1491C330.015 54.1776 329.376 54.0805 328.826 53.858C328.282 53.6354 327.858 53.2898 327.555 52.821C327.252 52.3523 327.103 51.7604 327.108 51.0455V40.4773ZM338.968 54.2131C337.865 54.2131 336.911 53.9787 336.106 53.5099C335.306 53.0365 334.688 52.3783 334.252 51.5355C333.817 50.688 333.599 49.7055 333.599 48.5881C333.599 47.4612 333.817 46.4763 334.252 45.6335C334.688 44.786 335.306 44.1278 336.106 43.6591C336.911 43.1856 337.865 42.9489 338.968 42.9489C340.072 42.9489 341.023 43.1856 341.824 43.6591C342.628 44.1278 343.249 44.786 343.684 45.6335C344.12 46.4763 344.338 47.4612 344.338 48.5881C344.338 49.7055 344.12 50.688 343.684 51.5355C343.249 52.3783 342.628 53.0365 341.824 53.5099C341.023 53.9787 340.072 54.2131 338.968 54.2131ZM338.983 51.8693C339.484 51.8693 339.904 51.7273 340.24 51.4432C340.576 51.1544 340.829 50.7614 341 50.2642C341.175 49.767 341.262 49.2012 341.262 48.5668C341.262 47.9323 341.175 47.3665 341 46.8693C340.829 46.3722 340.576 45.9792 340.24 45.6903C339.904 45.4015 339.484 45.2571 338.983 45.2571C338.476 45.2571 338.05 45.4015 337.704 45.6903C337.363 45.9792 337.105 46.3722 336.93 46.8693C336.76 47.3665 336.674 47.9323 336.674 48.5668C336.674 49.2012 336.76 49.767 336.93 50.2642C337.105 50.7614 337.363 51.1544 337.704 51.4432C338.05 51.7273 338.476 51.8693 338.983 51.8693ZM350.991 54V39.4545H356.729C357.828 39.4545 358.765 39.651 359.542 40.044C360.323 40.4323 360.917 40.9839 361.325 41.6989C361.737 42.4091 361.942 43.2448 361.942 44.206C361.942 45.1719 361.734 46.0028 361.317 46.6989C360.901 47.3902 360.297 47.9205 359.506 48.2898C358.72 48.6591 357.769 48.8438 356.651 48.8438H352.809V46.3722H356.154C356.741 46.3722 357.229 46.2917 357.617 46.1307C358.005 45.9697 358.294 45.7282 358.484 45.4062C358.678 45.0843 358.775 44.6842 358.775 44.206C358.775 43.723 358.678 43.3158 358.484 42.9844C358.294 42.6529 358.003 42.402 357.61 42.2315C357.222 42.0563 356.732 41.9688 356.14 41.9688H354.066V54H350.991ZM358.846 47.3807L362.461 54H359.066L355.529 47.3807H358.846ZM368.855 54.2131C367.733 54.2131 366.767 53.9858 365.957 53.5312C365.152 53.072 364.532 52.4233 364.096 51.5852C363.661 50.7424 363.443 49.7457 363.443 48.5952C363.443 47.473 363.661 46.4882 364.096 45.6406C364.532 44.7931 365.145 44.1326 365.936 43.6591C366.731 43.1856 367.664 42.9489 368.734 42.9489C369.454 42.9489 370.124 43.0649 370.744 43.2969C371.369 43.5241 371.913 43.8674 372.377 44.3267C372.846 44.786 373.211 45.3636 373.471 46.0597C373.732 46.7509 373.862 47.5606 373.862 48.4886V49.3196H364.65V47.4446H371.014C371.014 47.009 370.919 46.6231 370.73 46.2869C370.54 45.9508 370.278 45.688 369.941 45.4986C369.61 45.3045 369.224 45.2074 368.784 45.2074C368.324 45.2074 367.917 45.3139 367.562 45.527C367.212 45.7353 366.937 46.017 366.738 46.3722C366.539 46.7225 366.438 47.1132 366.433 47.544V49.3267C366.433 49.8665 366.532 50.3329 366.731 50.7259C366.935 51.1188 367.221 51.4219 367.591 51.6349C367.96 51.848 368.398 51.9545 368.904 51.9545C369.241 51.9545 369.548 51.9072 369.828 51.8125C370.107 51.7178 370.346 51.5758 370.545 51.3864C370.744 51.197 370.895 50.965 371 50.6903L373.798 50.875C373.656 51.5473 373.365 52.1345 372.924 52.6364C372.489 53.1335 371.925 53.5218 371.234 53.8011C370.547 54.0758 369.754 54.2131 368.855 54.2131ZM380.751 58.3182C379.771 58.3182 378.931 58.1832 378.23 57.9134C377.534 57.6482 376.98 57.286 376.568 56.8267C376.156 56.3674 375.888 55.8513 375.765 55.2784L378.564 54.902C378.649 55.1198 378.784 55.3234 378.968 55.5128C379.153 55.7022 379.397 55.8537 379.7 55.9673C380.008 56.0857 380.382 56.1449 380.822 56.1449C381.48 56.1449 382.022 55.9839 382.449 55.6619C382.879 55.3447 383.095 54.812 383.095 54.0639V52.0682H382.967C382.834 52.3712 382.636 52.6577 382.37 52.9276C382.105 53.1974 381.764 53.4176 381.348 53.5881C380.931 53.7585 380.434 53.8438 379.856 53.8438C379.037 53.8438 378.291 53.6544 377.619 53.2756C376.951 52.892 376.419 52.3073 376.021 51.5213C375.628 50.7306 375.431 49.7315 375.431 48.5241C375.431 47.2884 375.633 46.2562 376.035 45.4276C376.438 44.599 376.973 43.9787 377.64 43.5668C378.313 43.1548 379.049 42.9489 379.849 42.9489C380.46 42.9489 380.971 43.053 381.383 43.2614C381.795 43.465 382.127 43.7206 382.377 44.0284C382.633 44.3314 382.83 44.6297 382.967 44.9233H383.081V43.0909H386.085V54.1065C386.085 55.0346 385.858 55.8111 385.403 56.4361C384.949 57.0611 384.319 57.5298 383.514 57.8423C382.714 58.1596 381.793 58.3182 380.751 58.3182ZM380.815 51.571C381.303 51.571 381.715 51.4503 382.051 51.2088C382.392 50.9626 382.652 50.6122 382.832 50.1577C383.017 49.6984 383.109 49.1491 383.109 48.5099C383.109 47.8707 383.019 47.3168 382.839 46.848C382.659 46.3745 382.399 46.0076 382.058 45.7472C381.717 45.4867 381.303 45.3565 380.815 45.3565C380.318 45.3565 379.899 45.4915 379.558 45.7614C379.217 46.0265 378.959 46.3958 378.784 46.8693C378.609 47.3428 378.521 47.8897 378.521 48.5099C378.521 49.1397 378.609 49.6842 378.784 50.1435C378.964 50.598 379.222 50.9508 379.558 51.2017C379.899 51.4479 380.318 51.571 380.815 51.571ZM395.488 49.3551V43.0909H398.514V54H395.609V52.0185H395.495C395.249 52.6577 394.84 53.1714 394.267 53.5597C393.699 53.9479 393.005 54.142 392.186 54.142C391.457 54.142 390.815 53.9763 390.261 53.6449C389.707 53.3134 389.274 52.8423 388.961 52.2315C388.654 51.6207 388.497 50.8892 388.493 50.0369V43.0909H391.518V49.4972C391.523 50.1411 391.696 50.6501 392.037 51.0241C392.377 51.3982 392.834 51.5852 393.407 51.5852C393.772 51.5852 394.113 51.5024 394.43 51.3366C394.747 51.1662 395.003 50.9152 395.197 50.5838C395.396 50.2524 395.493 49.8428 395.488 49.3551ZM403.96 39.4545V54H400.934V39.4545H403.96ZM409.494 54.206C408.798 54.206 408.178 54.0852 407.633 53.8438C407.089 53.5975 406.658 53.2353 406.341 52.7571C406.028 52.2741 405.872 51.6728 405.872 50.9531C405.872 50.3471 405.983 49.8381 406.206 49.4261C406.428 49.0142 406.731 48.6828 407.115 48.4318C407.498 48.1809 407.934 47.9915 408.422 47.8636C408.914 47.7358 409.43 47.6458 409.97 47.5938C410.604 47.5275 411.116 47.4659 411.504 47.4091C411.892 47.3475 412.174 47.2576 412.349 47.1392C412.524 47.0208 412.612 46.8456 412.612 46.6136V46.571C412.612 46.1212 412.47 45.7732 412.186 45.527C411.906 45.2808 411.509 45.1577 410.993 45.1577C410.448 45.1577 410.015 45.2784 409.693 45.5199C409.371 45.7566 409.158 46.0549 409.054 46.4148L406.255 46.1875C406.397 45.5246 406.677 44.9517 407.093 44.4688C407.51 43.9811 408.047 43.607 408.706 43.3466C409.368 43.0814 410.136 42.9489 411.007 42.9489C411.613 42.9489 412.193 43.0199 412.747 43.1619C413.306 43.304 413.8 43.5241 414.231 43.8224C414.667 44.1207 415.01 44.5043 415.261 44.973C415.512 45.437 415.637 45.9934 415.637 46.642V54H412.768V52.4872H412.683C412.508 52.8281 412.273 53.1288 411.98 53.3892C411.686 53.6449 411.333 53.8461 410.922 53.9929C410.51 54.1349 410.034 54.206 409.494 54.206ZM410.36 52.1179C410.806 52.1179 411.199 52.0303 411.539 51.8551C411.88 51.6752 412.148 51.4337 412.342 51.1307C412.536 50.8277 412.633 50.4844 412.633 50.1009V48.9432C412.538 49.0047 412.408 49.0616 412.243 49.1136C412.082 49.161 411.899 49.206 411.696 49.2486C411.492 49.2865 411.288 49.322 411.085 49.3551C410.881 49.3835 410.697 49.4096 410.531 49.4332C410.176 49.4853 409.866 49.5682 409.6 49.6818C409.335 49.7955 409.129 49.9493 408.983 50.1435C408.836 50.3329 408.762 50.5696 408.762 50.8537C408.762 51.2656 408.912 51.5805 409.21 51.7983C409.513 52.0114 409.896 52.1179 410.36 52.1179ZM417.985 54V43.0909H420.918V44.9943H421.032C421.23 44.3172 421.564 43.8059 422.033 43.4602C422.502 43.1098 423.042 42.9347 423.652 42.9347C423.804 42.9347 423.967 42.9441 424.142 42.9631C424.318 42.982 424.471 43.008 424.604 43.0412V45.7259C424.462 45.6832 424.266 45.6454 424.015 45.6122C423.764 45.5791 423.534 45.5625 423.326 45.5625C422.881 45.5625 422.483 45.6596 422.132 45.8537C421.787 46.0431 421.512 46.3082 421.309 46.6491C421.11 46.9901 421.01 47.383 421.01 47.8281V54H417.985ZM430.854 54V39.4545H440.655V41.9901H433.929V45.456H440.151V47.9915H433.929V51.4645H440.684V54H430.854ZM445.572 43.0909L447.575 46.9048L449.627 43.0909H452.731L449.57 48.5455L452.816 54H449.727L447.575 50.2287L445.458 54H442.333L445.572 48.5455L442.447 43.0909H445.572ZM454.528 58.0909V43.0909H457.511V44.9233H457.646C457.778 44.6297 457.97 44.3314 458.221 44.0284C458.477 43.7206 458.808 43.465 459.215 43.2614C459.627 43.053 460.138 42.9489 460.749 42.9489C461.545 42.9489 462.279 43.1572 462.951 43.5739C463.623 43.9858 464.161 44.6084 464.563 45.4418C464.966 46.2704 465.167 47.3097 465.167 48.5597C465.167 49.7765 464.97 50.804 464.577 51.642C464.189 52.4754 463.659 53.1075 462.987 53.5384C462.319 53.9645 461.571 54.1776 460.742 54.1776C460.155 54.1776 459.656 54.0805 459.244 53.8864C458.836 53.6922 458.503 53.4484 458.242 53.1548C457.982 52.8565 457.783 52.5559 457.646 52.2528H457.553V58.0909H454.528ZM457.489 48.5455C457.489 49.1941 457.579 49.7599 457.759 50.2429C457.939 50.7259 458.2 51.1023 458.54 51.3722C458.881 51.6373 459.296 51.7699 459.783 51.7699C460.276 51.7699 460.692 51.6349 461.033 51.3651C461.374 51.0904 461.632 50.7116 461.808 50.2287C461.987 49.741 462.077 49.1799 462.077 48.5455C462.077 47.9157 461.99 47.3617 461.815 46.8835C461.639 46.4053 461.381 46.0312 461.04 45.7614C460.7 45.4915 460.281 45.3565 459.783 45.3565C459.291 45.3565 458.874 45.4867 458.533 45.7472C458.197 46.0076 457.939 46.3769 457.759 46.8551C457.579 47.3333 457.489 47.8968 457.489 48.5455ZM467.184 54V43.0909H470.117V44.9943H470.231C470.43 44.3172 470.763 43.8059 471.232 43.4602C471.701 43.1098 472.241 42.9347 472.852 42.9347C473.003 42.9347 473.166 42.9441 473.342 42.9631C473.517 42.982 473.671 43.008 473.803 43.0412V45.7259C473.661 45.6832 473.465 45.6454 473.214 45.6122C472.963 45.5791 472.733 45.5625 472.525 45.5625C472.08 45.5625 471.682 45.6596 471.332 45.8537C470.986 46.0431 470.711 46.3082 470.508 46.6491C470.309 46.9901 470.21 47.383 470.21 47.8281V54H467.184ZM479.831 54.2131C478.709 54.2131 477.743 53.9858 476.934 53.5312C476.129 53.072 475.508 52.4233 475.073 51.5852C474.637 50.7424 474.419 49.7457 474.419 48.5952C474.419 47.473 474.637 46.4882 475.073 45.6406C475.508 44.7931 476.122 44.1326 476.912 43.6591C477.708 43.1856 478.641 42.9489 479.711 42.9489C480.43 42.9489 481.1 43.0649 481.721 43.2969C482.346 43.5241 482.89 43.8674 483.354 44.3267C483.823 44.786 484.187 45.3636 484.448 46.0597C484.708 46.7509 484.838 47.5606 484.838 48.4886V49.3196H475.627V47.4446H481.99C481.99 47.009 481.896 46.6231 481.706 46.2869C481.517 45.9508 481.254 45.688 480.918 45.4986C480.587 45.3045 480.201 45.2074 479.76 45.2074C479.301 45.2074 478.894 45.3139 478.539 45.527C478.188 45.7353 477.914 46.017 477.715 46.3722C477.516 46.7225 477.414 47.1132 477.409 47.544V49.3267C477.409 49.8665 477.509 50.3329 477.708 50.7259C477.911 51.1188 478.198 51.4219 478.567 51.6349C478.936 51.848 479.374 51.9545 479.881 51.9545C480.217 51.9545 480.525 51.9072 480.804 51.8125C481.084 51.7178 481.323 51.5758 481.522 51.3864C481.721 51.197 481.872 50.965 481.976 50.6903L484.775 50.875C484.632 51.5473 484.341 52.1345 483.901 52.6364C483.465 53.1335 482.902 53.5218 482.211 53.8011C481.524 54.0758 480.731 54.2131 479.831 54.2131ZM495.89 46.2017L493.12 46.3722C493.072 46.1354 492.971 45.9223 492.814 45.733C492.658 45.5388 492.452 45.3849 492.196 45.2713C491.945 45.1529 491.645 45.0938 491.294 45.0938C490.826 45.0938 490.43 45.1932 490.108 45.392C489.786 45.5862 489.625 45.8466 489.625 46.1733C489.625 46.4337 489.73 46.6539 489.938 46.8338C490.146 47.0137 490.504 47.1581 491.01 47.267L492.985 47.6648C494.045 47.8826 494.836 48.233 495.357 48.7159C495.878 49.1989 496.138 49.8333 496.138 50.6193C496.138 51.3343 495.927 51.9616 495.506 52.5014C495.089 53.0412 494.516 53.4626 493.787 53.7656C493.063 54.0639 492.227 54.2131 491.28 54.2131C489.836 54.2131 488.685 53.9124 487.828 53.3111C486.976 52.705 486.477 51.8812 486.33 50.8395L489.306 50.6832C489.396 51.1236 489.614 51.4598 489.959 51.6918C490.305 51.919 490.748 52.0327 491.287 52.0327C491.818 52.0327 492.244 51.9309 492.566 51.7273C492.892 51.5189 493.058 51.2514 493.063 50.9247C493.058 50.6501 492.942 50.4252 492.715 50.25C492.488 50.0701 492.137 49.9328 491.664 49.8381L489.775 49.4616C488.709 49.2486 487.916 48.8793 487.395 48.3537C486.879 47.8281 486.621 47.1581 486.621 46.3438C486.621 45.643 486.81 45.0393 487.189 44.5327C487.573 44.026 488.11 43.6354 488.801 43.3608C489.498 43.0862 490.312 42.9489 491.245 42.9489C492.623 42.9489 493.707 43.2401 494.498 43.8224C495.293 44.4048 495.757 45.1979 495.89 46.2017ZM507.12 46.2017L504.35 46.3722C504.303 46.1354 504.201 45.9223 504.045 45.733C503.888 45.5388 503.683 45.3849 503.427 45.2713C503.176 45.1529 502.875 45.0938 502.525 45.0938C502.056 45.0938 501.661 45.1932 501.339 45.392C501.017 45.5862 500.856 45.8466 500.856 46.1733C500.856 46.4337 500.96 46.6539 501.168 46.8338C501.377 47.0137 501.734 47.1581 502.241 47.267L504.215 47.6648C505.276 47.8826 506.067 48.233 506.587 48.7159C507.108 49.1989 507.369 49.8333 507.369 50.6193C507.369 51.3343 507.158 51.9616 506.737 52.5014C506.32 53.0412 505.747 53.4626 505.018 53.7656C504.293 54.0639 503.458 54.2131 502.511 54.2131C501.067 54.2131 499.916 53.9124 499.059 53.3111C498.207 52.705 497.707 51.8812 497.56 50.8395L500.536 50.6832C500.626 51.1236 500.844 51.4598 501.19 51.6918C501.535 51.919 501.978 52.0327 502.518 52.0327C503.048 52.0327 503.474 51.9309 503.796 51.7273C504.123 51.5189 504.289 51.2514 504.293 50.9247C504.289 50.6501 504.173 50.4252 503.945 50.25C503.718 50.0701 503.368 49.9328 502.894 49.8381L501.005 49.4616C499.94 49.2486 499.147 48.8793 498.626 48.3537C498.11 47.8281 497.852 47.1581 497.852 46.3438C497.852 45.643 498.041 45.0393 498.42 44.5327C498.803 44.026 499.341 43.6354 500.032 43.3608C500.728 43.0862 501.542 42.9489 502.475 42.9489C503.853 42.9489 504.937 43.2401 505.728 43.8224C506.523 44.4048 506.987 45.1979 507.12 46.2017ZM509.274 54V43.0909H512.299V54H509.274ZM510.794 41.6847C510.344 41.6847 509.958 41.5355 509.636 41.2372C509.319 40.9342 509.16 40.572 509.16 40.1506C509.16 39.7339 509.319 39.3764 509.636 39.0781C509.958 38.7751 510.344 38.6236 510.794 38.6236C511.243 38.6236 511.627 38.7751 511.944 39.0781C512.266 39.3764 512.427 39.7339 512.427 40.1506C512.427 40.572 512.266 40.9342 511.944 41.2372C511.627 41.5355 511.243 41.6847 510.794 41.6847ZM519.652 54.2131C518.549 54.2131 517.595 53.9787 516.79 53.5099C515.99 53.0365 515.372 52.3783 514.936 51.5355C514.5 50.688 514.283 49.7055 514.283 48.5881C514.283 47.4612 514.5 46.4763 514.936 45.6335C515.372 44.786 515.99 44.1278 516.79 43.6591C517.595 43.1856 518.549 42.9489 519.652 42.9489C520.755 42.9489 521.707 43.1856 522.507 43.6591C523.312 44.1278 523.932 44.786 524.368 45.6335C524.804 46.4763 525.021 47.4612 525.021 48.5881C525.021 49.7055 524.804 50.688 524.368 51.5355C523.932 52.3783 523.312 53.0365 522.507 53.5099C521.707 53.9787 520.755 54.2131 519.652 54.2131ZM519.666 51.8693C520.168 51.8693 520.587 51.7273 520.923 51.4432C521.259 51.1544 521.513 50.7614 521.683 50.2642C521.858 49.767 521.946 49.2012 521.946 48.5668C521.946 47.9323 521.858 47.3665 521.683 46.8693C521.513 46.3722 521.259 45.9792 520.923 45.6903C520.587 45.4015 520.168 45.2571 519.666 45.2571C519.16 45.2571 518.733 45.4015 518.388 45.6903C518.047 45.9792 517.789 46.3722 517.614 46.8693C517.443 47.3665 517.358 47.9323 517.358 48.5668C517.358 49.2012 517.443 49.767 517.614 50.2642C517.789 50.7614 518.047 51.1544 518.388 51.4432C518.733 51.7273 519.16 51.8693 519.666 51.8693ZM530.014 47.6932V54H526.989V43.0909H529.872V45.0156H530C530.241 44.3812 530.646 43.8793 531.214 43.5099C531.783 43.1359 532.472 42.9489 533.281 42.9489C534.039 42.9489 534.699 43.1146 535.263 43.446C535.826 43.7775 536.264 44.2509 536.577 44.8665C536.889 45.4773 537.045 46.2064 537.045 47.054V54H534.02V47.5938C534.025 46.9261 533.854 46.4053 533.509 46.0312C533.163 45.6525 532.687 45.4631 532.081 45.4631C531.674 45.4631 531.314 45.5507 531.001 45.7259C530.694 45.901 530.452 46.1567 530.277 46.4929C530.107 46.8243 530.019 47.2244 530.014 47.6932Z" fill="white"/>
<circle cx="169.172" cy="151" r="15.5" fill="#D9D9D9" stroke="#008000" stroke-width="5"/>
<path d="M165.733 156.068V151.743H165.626C165.534 151.892 165.403 152.08 165.232 152.308C165.062 152.531 164.819 152.732 164.502 152.909C164.186 153.083 163.766 153.17 163.24 153.17C162.558 153.17 161.956 152.998 161.434 152.654C160.912 152.306 160.504 151.816 160.209 151.184C159.914 150.548 159.767 149.797 159.767 148.93C159.767 148.071 159.914 147.325 160.209 146.693C160.504 146.061 160.914 145.573 161.44 145.228C161.965 144.884 162.572 144.712 163.261 144.712C163.794 144.712 164.215 144.8 164.524 144.978C164.836 145.152 165.074 145.351 165.238 145.575C165.404 145.795 165.534 145.976 165.626 146.118H165.776V144.818H166.99V156.068H165.733ZM163.411 152.041C163.915 152.041 164.341 151.91 164.689 151.647C165.037 151.381 165.301 151.013 165.483 150.544C165.664 150.072 165.754 149.527 165.754 148.909C165.754 148.298 165.665 147.764 165.488 147.306C165.31 146.844 165.048 146.485 164.7 146.23C164.352 145.971 163.922 145.841 163.411 145.841C162.878 145.841 162.434 145.978 162.079 146.251C161.727 146.521 161.463 146.888 161.285 147.354C161.111 147.815 161.024 148.334 161.024 148.909C161.024 149.491 161.113 150.021 161.29 150.496C161.472 150.969 161.738 151.345 162.089 151.626C162.445 151.903 162.885 152.041 163.411 152.041Z" fill="black"/>
<path d="M171.75 160.119C171.108 160.119 170.561 159.945 170.109 159.595C169.658 159.243 169.313 158.733 169.074 158.065C168.835 157.395 168.716 156.585 168.716 155.636C168.716 154.693 168.835 153.888 169.074 153.22C169.315 152.55 169.662 152.038 170.114 151.686C170.568 151.331 171.114 151.153 171.75 151.153C172.386 151.153 172.93 151.331 173.382 151.686C173.837 152.038 174.183 152.55 174.422 153.22C174.663 153.888 174.784 154.693 174.784 155.636C174.784 156.585 174.665 157.395 174.426 158.065C174.188 158.733 173.842 159.243 173.391 159.595C172.939 159.945 172.392 160.119 171.75 160.119ZM171.75 159.182C172.386 159.182 172.881 158.875 173.233 158.261C173.585 157.648 173.761 156.773 173.761 155.636C173.761 154.881 173.68 154.237 173.518 153.706C173.359 153.175 173.129 152.77 172.828 152.491C172.53 152.213 172.17 152.074 171.75 152.074C171.119 152.074 170.626 152.385 170.271 153.007C169.916 153.626 169.739 154.503 169.739 155.636C169.739 156.392 169.818 157.034 169.977 157.562C170.136 158.091 170.365 158.493 170.663 158.768C170.964 159.044 171.327 159.182 171.75 159.182Z" fill="black"/>
<path d="M180.456 111.302L180.138 112.251L180.138 112.251L180.456 111.302ZM179.477 133.03C179.592 133.57 180.123 133.916 180.663 133.801L189.468 131.936C190.008 131.822 190.353 131.291 190.239 130.751C190.124 130.21 189.593 129.865 189.053 129.979L181.227 131.637L179.569 123.811C179.454 123.271 178.924 122.926 178.383 123.04C177.843 123.154 177.498 123.685 177.612 124.226L179.477 133.03ZM163.71 132.057C157.875 128.86 155.651 125.862 155.326 123.418C155.007 121.024 156.462 118.678 159.262 116.625C162.032 114.594 165.9 113.03 169.797 112.215C173.711 111.397 177.502 111.367 180.138 112.251L180.774 110.354C177.664 109.312 173.475 109.404 169.388 110.258C165.286 111.115 161.134 112.772 158.079 115.012C155.054 117.23 152.88 120.205 153.343 123.682C153.799 127.11 156.767 130.534 162.75 133.811L163.71 132.057ZM180.138 112.251C182.687 113.105 183.876 114.665 184.332 116.528C184.809 118.475 184.504 120.843 183.805 123.226C183.112 125.589 182.067 127.854 181.186 129.539C180.746 130.378 180.352 131.067 180.068 131.545C179.926 131.784 179.812 131.969 179.734 132.094C179.695 132.156 179.665 132.204 179.645 132.234C179.635 132.25 179.628 132.261 179.623 132.269C179.621 132.272 179.619 132.275 179.618 132.276C179.618 132.277 179.618 132.278 179.617 132.278C179.617 132.278 179.617 132.278 179.617 132.278C179.617 132.278 179.617 132.278 180.456 132.823C181.294 133.368 181.294 133.368 181.295 133.367C181.295 133.367 181.295 133.367 181.295 133.366C181.296 133.366 181.296 133.364 181.297 133.363C181.299 133.36 181.302 133.356 181.305 133.352C181.311 133.342 181.32 133.328 181.332 133.31C181.355 133.274 181.388 133.221 181.43 133.153C181.515 133.017 181.637 132.819 181.787 132.567C182.086 132.064 182.499 131.342 182.958 130.466C183.872 128.717 184.981 126.324 185.724 123.789C186.462 121.274 186.875 118.502 186.275 116.052C185.654 113.519 183.97 111.426 180.774 110.354L180.138 112.251Z" fill="white"/>
<path d="M169.744 102.256C169.053 102.256 168.426 102.125 167.862 101.865C167.299 101.6 166.851 101.219 166.52 100.722C166.188 100.22 166.023 99.6136 166.023 98.9034C166.023 98.2784 166.146 97.7718 166.392 97.3835C166.638 96.9905 166.967 96.6828 167.379 96.4602C167.791 96.2377 168.246 96.072 168.743 95.9631C169.245 95.8494 169.749 95.7595 170.256 95.6932C170.919 95.608 171.456 95.544 171.868 95.5014C172.285 95.4541 172.588 95.3759 172.777 95.267C172.971 95.1581 173.068 94.9687 173.068 94.6989V94.642C173.068 93.9413 172.876 93.3968 172.493 93.0085C172.114 92.6203 171.539 92.4261 170.767 92.4261C169.967 92.4261 169.339 92.6013 168.885 92.9517C168.43 93.3021 168.111 93.6761 167.926 94.0739L166.335 93.5057C166.619 92.8428 166.998 92.3267 167.472 91.9574C167.95 91.5833 168.471 91.3229 169.034 91.1761C169.602 91.0246 170.161 90.9489 170.71 90.9489C171.061 90.9489 171.463 90.9915 171.918 91.0767C172.377 91.1572 172.82 91.3253 173.246 91.581C173.677 91.8366 174.034 92.2225 174.318 92.7386C174.602 93.2547 174.744 93.946 174.744 94.8125V102H173.068V100.523H172.983C172.869 100.759 172.68 101.013 172.415 101.283C172.15 101.553 171.797 101.782 171.357 101.972C170.916 102.161 170.379 102.256 169.744 102.256ZM170 100.75C170.663 100.75 171.222 100.62 171.676 100.359C172.135 100.099 172.481 99.7628 172.713 99.3509C172.95 98.9389 173.068 98.5057 173.068 98.0511V96.517C172.997 96.6023 172.841 96.6804 172.599 96.7514C172.363 96.8177 172.088 96.8769 171.776 96.929C171.468 96.9763 171.167 97.0189 170.874 97.0568C170.585 97.09 170.35 97.1184 170.17 97.142C169.735 97.1989 169.328 97.2912 168.949 97.419C168.575 97.5421 168.272 97.7292 168.04 97.9801C167.813 98.2263 167.699 98.5625 167.699 98.9886C167.699 99.571 167.914 100.011 168.345 100.31C168.781 100.603 169.332 100.75 170 100.75Z" fill="white"/>
<path d="M527.744 156.256C527.053 156.256 526.426 156.125 525.862 155.865C525.299 155.6 524.851 155.219 524.52 154.722C524.188 154.22 524.023 153.614 524.023 152.903C524.023 152.278 524.146 151.772 524.392 151.384C524.638 150.991 524.967 150.683 525.379 150.46C525.791 150.238 526.246 150.072 526.743 149.963C527.245 149.849 527.749 149.759 528.256 149.693C528.919 149.608 529.456 149.544 529.868 149.501C530.285 149.454 530.588 149.376 530.777 149.267C530.971 149.158 531.068 148.969 531.068 148.699V148.642C531.068 147.941 530.876 147.397 530.493 147.009C530.114 146.62 529.539 146.426 528.767 146.426C527.967 146.426 527.339 146.601 526.885 146.952C526.43 147.302 526.111 147.676 525.926 148.074L524.335 147.506C524.619 146.843 524.998 146.327 525.472 145.957C525.95 145.583 526.471 145.323 527.034 145.176C527.602 145.025 528.161 144.949 528.71 144.949C529.061 144.949 529.463 144.991 529.918 145.077C530.377 145.157 530.82 145.325 531.246 145.581C531.677 145.837 532.034 146.223 532.318 146.739C532.602 147.255 532.744 147.946 532.744 148.812V156H531.068V154.523H530.983C530.869 154.759 530.68 155.013 530.415 155.283C530.15 155.553 529.797 155.782 529.357 155.972C528.916 156.161 528.379 156.256 527.744 156.256ZM528 154.75C528.663 154.75 529.222 154.62 529.676 154.359C530.135 154.099 530.481 153.763 530.713 153.351C530.95 152.939 531.068 152.506 531.068 152.051V150.517C530.997 150.602 530.841 150.68 530.599 150.751C530.363 150.818 530.088 150.877 529.776 150.929C529.468 150.976 529.167 151.019 528.874 151.057C528.585 151.09 528.35 151.118 528.17 151.142C527.735 151.199 527.328 151.291 526.949 151.419C526.575 151.542 526.272 151.729 526.04 151.98C525.813 152.226 525.699 152.562 525.699 152.989C525.699 153.571 525.914 154.011 526.345 154.31C526.781 154.603 527.332 154.75 528 154.75ZM538.588 149.636L538.701 146.511L536.059 148.188L535.377 146.994L538.162 145.545L535.377 144.097L536.059 142.903L538.701 144.58L538.588 141.455H539.951L539.838 144.58L542.48 142.903L543.162 144.097L540.377 145.545L543.162 146.994L542.48 148.188L539.838 146.511L539.951 149.636H538.588Z" fill="white"/>
<path d="M502.071 150.05C502.651 149.458 502.642 148.508 502.05 147.929L492.407 138.48C491.816 137.9 490.866 137.91 490.286 138.502C489.706 139.094 489.716 140.043 490.308 140.623L498.879 149.022L490.48 157.593C489.9 158.184 489.91 159.134 490.502 159.714C491.094 160.294 492.043 160.284 492.623 159.692L502.071 150.05ZM206.015 153.5L501.015 150.5L500.985 147.5L205.985 150.5L206.015 153.5Z" fill="white"/>
<path d="M502.071 315.05C502.651 314.458 502.642 313.508 502.05 312.929L492.407 303.48C491.816 302.9 490.866 302.91 490.286 303.502C489.706 304.094 489.716 305.043 490.308 305.623L498.879 314.022L490.48 322.593C489.9 323.184 489.91 324.134 490.502 324.714C491.094 325.294 492.043 325.284 492.623 324.692L502.071 315.05ZM206.015 318.5L501.015 315.5L500.985 312.5L205.985 315.5L206.015 318.5Z" fill="white"/>
<path d="M502.071 448.05C502.651 447.458 502.642 446.508 502.05 445.929L492.407 436.48C491.816 435.9 490.866 435.91 490.286 436.502C489.706 437.094 489.716 438.043 490.308 438.623L498.879 447.022L490.48 455.593C489.9 456.184 489.91 457.134 490.502 457.714C491.094 458.294 492.043 458.284 492.623 457.692L502.071 448.05ZM206.015 451.5L501.015 448.5L500.985 445.5L205.985 448.5L206.015 451.5Z" fill="white"/>
<path d="M502.071 580.05C502.651 579.458 502.642 578.508 502.05 577.929L492.407 568.48C491.816 567.9 490.866 567.91 490.286 568.502C489.706 569.094 489.716 570.043 490.308 570.623L498.879 579.022L490.48 587.593C489.9 588.184 489.91 589.134 490.502 589.714C491.094 590.294 492.043 590.284 492.623 589.692L502.071 580.05ZM206.015 583.5L501.015 580.5L500.985 577.5L205.985 580.5L206.015 583.5Z" fill="white"/>
<path d="M502.071 250.05C502.651 249.458 502.642 248.508 502.05 247.929L492.407 238.48C491.816 237.9 490.866 237.91 490.286 238.502C489.706 239.094 489.716 240.043 490.308 240.623L498.879 249.022L490.48 257.593C489.9 258.184 489.91 259.134 490.502 259.714C491.094 260.294 492.043 260.284 492.623 259.692L502.071 250.05ZM206.015 253.5L501.015 250.5L500.985 247.5L205.985 250.5L206.015 253.5Z" fill="white"/>
</g>
<defs>
<clipPath id="clip0_542_2">
<rect width="676" height="654" fill="white"/>
</clipPath>
</defs>
</svg>
