<svg width="708" height="350" viewBox="0 0 708 350" fill="none" xmlns="http://www.w3.org/2000/svg">
<g clip-path="url(#clip0_614_544)">
<rect width="708" height="350" fill="#252424"/>
<circle cx="124.172" cy="183" r="15.5" fill="#D9D9D9" stroke="#008000" stroke-width="5"/>
<circle cx="124.172" cy="183" r="15.5" fill="#D9D9D9" stroke="#008000" stroke-width="5"/>
<circle cx="26.1719" cy="183" r="15.5" fill="#D9D9D9" stroke="#80003D" stroke-width="5"/>
<circle cx="26.1719" cy="183" r="15.5" fill="#D9D9D9" stroke="#80003D" stroke-width="5"/>
<circle cx="342" cy="179" r="15.5" fill="#D9D9D9" stroke="#378AD6" stroke-width="5"/>
<circle cx="342" cy="179" r="15.5" fill="#D9D9D9" stroke="#378AD6" stroke-width="5"/>
<path d="M335.761 188V173.455H340.847C341.86 173.455 342.696 173.63 343.354 173.98C344.012 174.326 344.502 174.792 344.824 175.379C345.146 175.962 345.307 176.608 345.307 177.318C345.307 177.943 345.196 178.459 344.973 178.866C344.755 179.274 344.466 179.596 344.107 179.832C343.751 180.069 343.366 180.244 342.949 180.358V180.5C343.394 180.528 343.841 180.685 344.291 180.969C344.741 181.253 345.117 181.66 345.42 182.19C345.723 182.721 345.875 183.369 345.875 184.136C345.875 184.866 345.709 185.521 345.378 186.104C345.046 186.686 344.523 187.148 343.808 187.489C343.093 187.83 342.163 188 341.017 188H335.761ZM337.523 186.438H341.017C342.168 186.438 342.984 186.215 343.467 185.77C343.955 185.32 344.199 184.776 344.199 184.136C344.199 183.644 344.073 183.189 343.822 182.773C343.571 182.351 343.214 182.015 342.75 181.764C342.286 181.509 341.737 181.381 341.102 181.381H337.523V186.438ZM337.523 179.847H340.79C341.32 179.847 341.798 179.742 342.224 179.534C342.655 179.326 342.996 179.032 343.247 178.653C343.503 178.275 343.631 177.83 343.631 177.318C343.631 176.679 343.408 176.137 342.963 175.692C342.518 175.242 341.813 175.017 340.847 175.017H337.523V179.847Z" fill="black"/>
<path d="M335.761 188V173.455H340.847C341.86 173.455 342.696 173.63 343.354 173.98C344.012 174.326 344.502 174.792 344.824 175.379C345.146 175.962 345.307 176.608 345.307 177.318C345.307 177.943 345.196 178.459 344.973 178.866C344.755 179.274 344.466 179.596 344.107 179.832C343.751 180.069 343.366 180.244 342.949 180.358V180.5C343.394 180.528 343.841 180.685 344.291 180.969C344.741 181.253 345.117 181.66 345.42 182.19C345.723 182.721 345.875 183.369 345.875 184.136C345.875 184.866 345.709 185.521 345.378 186.104C345.046 186.686 344.523 187.148 343.808 187.489C343.093 187.83 342.163 188 341.017 188H335.761ZM337.523 186.438H341.017C342.168 186.438 342.984 186.215 343.467 185.77C343.955 185.32 344.199 184.776 344.199 184.136C344.199 183.644 344.073 183.189 343.822 182.773C343.571 182.351 343.214 182.015 342.75 181.764C342.286 181.509 341.737 181.381 341.102 181.381H337.523V186.438ZM337.523 179.847H340.79C341.32 179.847 341.798 179.742 342.224 179.534C342.655 179.326 342.996 179.032 343.247 178.653C343.503 178.275 343.631 177.83 343.631 177.318C343.631 176.679 343.408 176.137 342.963 175.692C342.518 175.242 341.813 175.017 340.847 175.017H337.523V179.847Z" fill="black"/>
<path d="M324.439 178.898C324.935 178.655 325.14 178.056 324.897 177.56L320.937 169.478C320.694 168.982 320.095 168.777 319.599 169.02C319.103 169.263 318.898 169.862 319.141 170.358L322.661 177.542L315.477 181.062C314.981 181.305 314.776 181.904 315.019 182.4C315.262 182.896 315.861 183.101 316.357 182.858L324.439 178.898ZM144.729 179.492C175.708 168.318 198.775 160.804 224.91 159.752C251.04 158.699 280.32 164.106 323.675 178.946L324.323 177.054C280.863 162.178 251.314 156.687 224.83 157.753C198.352 158.819 175.022 166.439 144.05 177.61L144.729 179.492Z" fill="white"/>
<path d="M324.439 178.898C324.935 178.655 325.14 178.056 324.897 177.56L320.937 169.478C320.694 168.982 320.095 168.777 319.599 169.02C319.103 169.263 318.898 169.862 319.141 170.358L322.661 177.542L315.477 181.062C314.981 181.305 314.776 181.904 315.019 182.4C315.262 182.896 315.861 183.101 316.357 182.858L324.439 178.898ZM144.729 179.492C175.708 168.318 198.775 160.804 224.91 159.752C251.04 158.699 280.32 164.106 323.675 178.946L324.323 177.054C280.863 162.178 251.314 156.687 224.83 157.753C198.352 158.819 175.022 166.439 144.05 177.61L144.729 179.492Z" fill="white"/>
<path d="M141.834 191.066C141.318 191.262 141.059 191.84 141.255 192.356L144.459 200.766C144.656 201.283 145.233 201.542 145.75 201.345C146.266 201.148 146.525 200.571 146.328 200.055L143.48 192.579L150.956 189.731C151.473 189.534 151.732 188.957 151.535 188.44C151.338 187.924 150.761 187.665 150.244 187.862L141.834 191.066ZM323.782 192.331C285.414 209.971 262.034 219.391 237.331 219.589C212.624 219.787 186.475 210.758 142.599 191.088L141.781 192.912C185.634 212.573 212.151 221.791 237.347 221.589C262.546 221.387 286.307 211.762 324.618 194.148L323.782 192.331Z" fill="white"/>
<path d="M141.834 191.066C141.318 191.262 141.059 191.84 141.255 192.356L144.459 200.766C144.656 201.283 145.233 201.542 145.75 201.345C146.266 201.148 146.525 200.571 146.328 200.055L143.48 192.579L150.956 189.731C151.473 189.534 151.732 188.957 151.535 188.44C151.338 187.924 150.761 187.665 150.244 187.862L141.834 191.066ZM323.782 192.331C285.414 209.971 262.034 219.391 237.331 219.589C212.624 219.787 186.475 210.758 142.599 191.088L141.781 192.912C185.634 212.573 212.151 221.791 237.347 221.589C262.546 221.387 286.307 211.762 324.618 194.148L323.782 192.331Z" fill="white"/>
<path d="M227.744 153.256C227.053 153.256 226.426 153.125 225.862 152.865C225.299 152.6 224.851 152.219 224.52 151.722C224.188 151.22 224.023 150.614 224.023 149.903C224.023 149.278 224.146 148.772 224.392 148.384C224.638 147.991 224.967 147.683 225.379 147.46C225.791 147.238 226.246 147.072 226.743 146.963C227.245 146.849 227.749 146.759 228.256 146.693C228.919 146.608 229.456 146.544 229.868 146.501C230.285 146.454 230.588 146.376 230.777 146.267C230.971 146.158 231.068 145.969 231.068 145.699V145.642C231.068 144.941 230.876 144.397 230.493 144.009C230.114 143.62 229.539 143.426 228.767 143.426C227.967 143.426 227.339 143.601 226.885 143.952C226.43 144.302 226.111 144.676 225.926 145.074L224.335 144.506C224.619 143.843 224.998 143.327 225.472 142.957C225.95 142.583 226.471 142.323 227.034 142.176C227.602 142.025 228.161 141.949 228.71 141.949C229.061 141.949 229.463 141.991 229.918 142.077C230.377 142.157 230.82 142.325 231.246 142.581C231.677 142.837 232.034 143.223 232.318 143.739C232.602 144.255 232.744 144.946 232.744 145.812V153H231.068V151.523H230.983C230.869 151.759 230.68 152.013 230.415 152.283C230.15 152.553 229.797 152.782 229.357 152.972C228.916 153.161 228.379 153.256 227.744 153.256ZM228 151.75C228.663 151.75 229.222 151.62 229.676 151.359C230.135 151.099 230.481 150.763 230.713 150.351C230.95 149.939 231.068 149.506 231.068 149.051V147.517C230.997 147.602 230.841 147.68 230.599 147.751C230.363 147.818 230.088 147.877 229.776 147.929C229.468 147.976 229.167 148.019 228.874 148.057C228.585 148.09 228.35 148.118 228.17 148.142C227.735 148.199 227.328 148.291 226.949 148.419C226.575 148.542 226.272 148.729 226.04 148.98C225.813 149.226 225.699 149.562 225.699 149.989C225.699 150.571 225.914 151.011 226.345 151.31C226.781 151.603 227.332 151.75 228 151.75Z" fill="white"/>
<path d="M227.744 153.256C227.053 153.256 226.426 153.125 225.862 152.865C225.299 152.6 224.851 152.219 224.52 151.722C224.188 151.22 224.023 150.614 224.023 149.903C224.023 149.278 224.146 148.772 224.392 148.384C224.638 147.991 224.967 147.683 225.379 147.46C225.791 147.238 226.246 147.072 226.743 146.963C227.245 146.849 227.749 146.759 228.256 146.693C228.919 146.608 229.456 146.544 229.868 146.501C230.285 146.454 230.588 146.376 230.777 146.267C230.971 146.158 231.068 145.969 231.068 145.699V145.642C231.068 144.941 230.876 144.397 230.493 144.009C230.114 143.62 229.539 143.426 228.767 143.426C227.967 143.426 227.339 143.601 226.885 143.952C226.43 144.302 226.111 144.676 225.926 145.074L224.335 144.506C224.619 143.843 224.998 143.327 225.472 142.957C225.95 142.583 226.471 142.323 227.034 142.176C227.602 142.025 228.161 141.949 228.71 141.949C229.061 141.949 229.463 141.991 229.918 142.077C230.377 142.157 230.82 142.325 231.246 142.581C231.677 142.837 232.034 143.223 232.318 143.739C232.602 144.255 232.744 144.946 232.744 145.812V153H231.068V151.523H230.983C230.869 151.759 230.68 152.013 230.415 152.283C230.15 152.553 229.797 152.782 229.357 152.972C228.916 153.161 228.379 153.256 227.744 153.256ZM228 151.75C228.663 151.75 229.222 151.62 229.676 151.359C230.135 151.099 230.481 150.763 230.713 150.351C230.95 149.939 231.068 149.506 231.068 149.051V147.517C230.997 147.602 230.841 147.68 230.599 147.751C230.363 147.818 230.088 147.877 229.776 147.929C229.468 147.976 229.167 148.019 228.874 148.057C228.585 148.09 228.35 148.118 228.17 148.142C227.735 148.199 227.328 148.291 226.949 148.419C226.575 148.542 226.272 148.729 226.04 148.98C225.813 149.226 225.699 149.562 225.699 149.989C225.699 150.571 225.914 151.011 226.345 151.31C226.781 151.603 227.332 151.75 228 151.75Z" fill="white"/>
<path d="M227.761 240V225.455H229.438V230.824H229.58C229.703 230.634 229.873 230.393 230.091 230.099C230.313 229.801 230.631 229.536 231.043 229.304C231.459 229.067 232.023 228.949 232.733 228.949C233.652 228.949 234.461 229.179 235.162 229.638C235.863 230.097 236.41 230.748 236.803 231.591C237.196 232.434 237.392 233.428 237.392 234.574C237.392 235.729 237.196 236.731 236.803 237.578C236.41 238.421 235.865 239.074 235.169 239.538C234.473 239.998 233.67 240.227 232.761 240.227C232.061 240.227 231.5 240.111 231.078 239.879C230.657 239.643 230.332 239.375 230.105 239.077C229.878 238.774 229.703 238.523 229.58 238.324H229.381V240H227.761ZM229.409 234.545C229.409 235.369 229.53 236.096 229.771 236.726C230.013 237.351 230.366 237.841 230.83 238.196C231.294 238.546 231.862 238.722 232.534 238.722C233.235 238.722 233.82 238.537 234.288 238.168C234.762 237.794 235.117 237.292 235.354 236.662C235.595 236.027 235.716 235.322 235.716 234.545C235.716 233.778 235.598 233.087 235.361 232.472C235.129 231.851 234.776 231.361 234.303 231.001C233.834 230.637 233.244 230.455 232.534 230.455C231.852 230.455 231.279 230.627 230.815 230.973C230.351 231.314 230.001 231.792 229.764 232.408C229.527 233.018 229.409 233.731 229.409 234.545Z" fill="white"/>
<path d="M227.761 240V225.455H229.438V230.824H229.58C229.703 230.634 229.873 230.393 230.091 230.099C230.313 229.801 230.631 229.536 231.043 229.304C231.459 229.067 232.023 228.949 232.733 228.949C233.652 228.949 234.461 229.179 235.162 229.638C235.863 230.097 236.41 230.748 236.803 231.591C237.196 232.434 237.392 233.428 237.392 234.574C237.392 235.729 237.196 236.731 236.803 237.578C236.41 238.421 235.865 239.074 235.169 239.538C234.473 239.998 233.67 240.227 232.761 240.227C232.061 240.227 231.5 240.111 231.078 239.879C230.657 239.643 230.332 239.375 230.105 239.077C229.878 238.774 229.703 238.523 229.58 238.324H229.381V240H227.761ZM229.409 234.545C229.409 235.369 229.53 236.096 229.771 236.726C230.013 237.351 230.366 237.841 230.83 238.196C231.294 238.546 231.862 238.722 232.534 238.722C233.235 238.722 233.82 238.537 234.288 238.168C234.762 237.794 235.117 237.292 235.354 236.662C235.595 236.027 235.716 235.322 235.716 234.545C235.716 233.778 235.598 233.087 235.361 232.472C235.129 231.851 234.776 231.361 234.303 231.001C233.834 230.637 233.244 230.455 232.534 230.455C231.852 230.455 231.279 230.627 230.815 230.973C230.351 231.314 230.001 231.792 229.764 232.408C229.527 233.018 229.409 233.731 229.409 234.545Z" fill="white"/>
<path d="M120.358 190H118.511L123.852 175.455H125.67L131.011 190H129.165L124.818 177.756H124.705L120.358 190ZM121.04 184.318H128.483V185.881H121.04V184.318Z" fill="black"/>
<path d="M120.358 190H118.511L123.852 175.455H125.67L131.011 190H129.165L124.818 177.756H124.705L120.358 190ZM121.04 184.318H128.483V185.881H121.04V184.318Z" fill="black"/>
<path d="M29.7159 179.091C29.6307 178.371 29.285 177.812 28.679 177.415C28.0729 177.017 27.3295 176.818 26.4489 176.818C25.8049 176.818 25.2415 176.922 24.7585 177.131C24.2803 177.339 23.9063 177.625 23.6364 177.99C23.3712 178.355 23.2386 178.769 23.2386 179.233C23.2386 179.621 23.331 179.955 23.5156 180.234C23.705 180.509 23.9465 180.739 24.2401 180.923C24.5336 181.103 24.8414 181.252 25.1634 181.371C25.4853 181.484 25.7812 181.577 26.0511 181.648L27.5284 182.045C27.9072 182.145 28.3286 182.282 28.7926 182.457C29.2614 182.633 29.7088 182.872 30.1349 183.175C30.5658 183.473 30.9209 183.857 31.2003 184.325C31.4796 184.794 31.6193 185.369 31.6193 186.051C31.6193 186.837 31.4134 187.547 31.0014 188.182C30.5942 188.816 29.9976 189.321 29.2116 189.695C28.4304 190.069 27.4811 190.256 26.3636 190.256C25.322 190.256 24.42 190.088 23.6577 189.751C22.9001 189.415 22.3035 188.946 21.8679 188.345C21.437 187.744 21.1932 187.045 21.1364 186.25H22.9545C23.0019 186.799 23.1866 187.254 23.5085 187.614C23.8352 187.969 24.2472 188.234 24.7443 188.409C25.2462 188.58 25.786 188.665 26.3636 188.665C27.036 188.665 27.6397 188.556 28.1747 188.338C28.7098 188.116 29.1335 187.808 29.446 187.415C29.7585 187.017 29.9148 186.553 29.9148 186.023C29.9148 185.54 29.7798 185.147 29.5099 184.844C29.2401 184.541 28.8849 184.295 28.4446 184.105C28.0043 183.916 27.5284 183.75 27.017 183.608L25.2273 183.097C24.0909 182.77 23.1913 182.304 22.5284 181.697C21.8655 181.091 21.5341 180.298 21.5341 179.318C21.5341 178.504 21.7543 177.794 22.1946 177.188C22.6397 176.577 23.2363 176.103 23.9844 175.767C24.7372 175.426 25.5777 175.256 26.5057 175.256C27.4432 175.256 28.2765 175.424 29.0057 175.76C29.7348 176.091 30.3125 176.546 30.7386 177.124C31.1695 177.701 31.3968 178.357 31.4205 179.091H29.7159Z" fill="black"/>
<path d="M112.707 183.707C113.098 183.317 113.098 182.683 112.707 182.293L106.343 175.929C105.953 175.538 105.319 175.538 104.929 175.929C104.538 176.319 104.538 176.953 104.929 177.343L110.586 183L104.929 188.657C104.538 189.047 104.538 189.681 104.929 190.071C105.319 190.462 105.953 190.462 106.343 190.071L112.707 183.707ZM44 184L112 184L112 182L44 182L44 184Z" fill="white"/>
<path d="M112.707 183.707C113.098 183.317 113.098 182.683 112.707 182.293L106.343 175.929C105.953 175.538 105.319 175.538 104.929 175.929C104.538 176.319 104.538 176.953 104.929 177.343L110.586 183L104.929 188.657C104.538 189.047 104.538 189.681 104.929 190.071C105.319 190.462 105.953 190.462 106.343 190.071L112.707 183.707ZM44 184L112 184L112 182L44 182L44 184Z" fill="white"/>
<path d="M71.1136 171.318H72.5909V172.114H71.2841C70.7727 172.114 70.33 172.196 69.956 172.362C69.5819 172.528 69.2931 172.75 69.0895 173.03C68.8859 173.304 68.7841 173.615 68.7841 173.96C68.7841 174.472 69.0327 174.884 69.5298 175.196C70.027 175.509 70.6875 175.665 71.5114 175.665C72.3068 175.665 72.92 175.513 73.3509 175.21C73.7817 174.907 74.0682 174.443 74.2102 173.818H75.9716C75.91 174.33 75.7609 174.794 75.5241 175.21C75.2874 175.627 74.9725 175.984 74.5795 176.283C74.1866 176.576 73.7249 176.804 73.1946 176.964C72.6643 177.121 72.0748 177.199 71.4261 177.199C70.5833 177.199 69.8281 177.069 69.1605 176.808C68.4976 176.543 67.9744 176.174 67.5909 175.7C67.2121 175.227 67.0227 174.675 67.0227 174.045C67.0227 173.757 67.0772 173.454 67.1861 173.136C67.2997 172.819 67.5009 172.523 67.7898 172.249C68.0833 171.974 68.4976 171.751 69.0327 171.581C69.5724 171.406 70.2661 171.318 71.1136 171.318ZM72.5909 171.773H71.1136C70.285 171.773 69.6127 171.692 69.0966 171.531C68.5852 171.37 68.1922 171.162 67.9176 170.906C67.6477 170.646 67.4631 170.362 67.3636 170.054C67.2689 169.746 67.2216 169.448 67.2216 169.159C67.2216 168.487 67.3968 167.911 67.7472 167.433C68.0975 166.955 68.5852 166.588 69.2102 166.332C69.84 166.077 70.5691 165.949 71.3977 165.949C72.2263 165.949 72.9508 166.074 73.571 166.325C74.196 166.576 74.6955 166.938 75.0696 167.412C75.4484 167.881 75.6828 168.444 75.7727 169.102H74.0114C73.893 168.61 73.6113 168.212 73.1662 167.909C72.7211 167.606 72.1316 167.455 71.3977 167.455C70.6496 167.455 70.0507 167.613 69.6009 167.93C69.151 168.243 68.9261 168.652 68.9261 169.159C68.9261 169.614 69.1203 169.978 69.5085 170.253C69.9015 170.527 70.4934 170.665 71.2841 170.665H72.5909V171.773Z" fill="white"/>
<path d="M71.1136 171.318H72.5909V172.114H71.2841C70.7727 172.114 70.33 172.196 69.956 172.362C69.5819 172.528 69.2931 172.75 69.0895 173.03C68.8859 173.304 68.7841 173.615 68.7841 173.96C68.7841 174.472 69.0327 174.884 69.5298 175.196C70.027 175.509 70.6875 175.665 71.5114 175.665C72.3068 175.665 72.92 175.513 73.3509 175.21C73.7817 174.907 74.0682 174.443 74.2102 173.818H75.9716C75.91 174.33 75.7609 174.794 75.5241 175.21C75.2874 175.627 74.9725 175.984 74.5795 176.283C74.1866 176.576 73.7249 176.804 73.1946 176.964C72.6643 177.121 72.0748 177.199 71.4261 177.199C70.5833 177.199 69.8281 177.069 69.1605 176.808C68.4976 176.543 67.9744 176.174 67.5909 175.7C67.2121 175.227 67.0227 174.675 67.0227 174.045C67.0227 173.757 67.0772 173.454 67.1861 173.136C67.2997 172.819 67.5009 172.523 67.7898 172.249C68.0833 171.974 68.4976 171.751 69.0327 171.581C69.5724 171.406 70.2661 171.318 71.1136 171.318ZM72.5909 171.773H71.1136C70.285 171.773 69.6127 171.692 69.0966 171.531C68.5852 171.37 68.1922 171.162 67.9176 170.906C67.6477 170.646 67.4631 170.362 67.3636 170.054C67.2689 169.746 67.2216 169.448 67.2216 169.159C67.2216 168.487 67.3968 167.911 67.7472 167.433C68.0975 166.955 68.5852 166.588 69.2102 166.332C69.84 166.077 70.5691 165.949 71.3977 165.949C72.2263 165.949 72.9508 166.074 73.571 166.325C74.196 166.576 74.6955 166.938 75.0696 167.412C75.4484 167.881 75.6828 168.444 75.7727 169.102H74.0114C73.893 168.61 73.6113 168.212 73.1662 167.909C72.7211 167.606 72.1316 167.455 71.3977 167.455C70.6496 167.455 70.0507 167.613 69.6009 167.93C69.151 168.243 68.9261 168.652 68.9261 169.159C68.9261 169.614 69.1203 169.978 69.5085 170.253C69.9015 170.527 70.4934 170.665 71.2841 170.665H72.5909V171.773Z" fill="white"/>
</g>
<defs>
<clipPath id="clip0_614_544">
<rect width="708" height="350" fill="white"/>
</clipPath>
</defs>
</svg>
