<svg width="600" height="600"   viewBox="0 0 347 199" fill="none" xmlns="http://www.w3.org/2000/svg">
<g clip-path="url(#clip0_236_54)">
<rect width="347" height="199" fill="#252424"/>
<circle cx="40" cy="109" r="15.5" fill="#D9D9D9" stroke="#80003D" stroke-width="5"/>
<circle cx="291" cy="109" r="15.5" fill="#D9D9D9" stroke="#378AD6" stroke-width="5"/>
<path d="M271.707 108.707C272.098 108.317 272.098 107.683 271.707 107.293L265.343 100.929C264.953 100.538 264.319 100.538 263.929 100.929C263.538 101.319 263.538 101.953 263.929 102.343L269.586 108L263.929 113.657C263.538 114.047 263.538 114.681 263.929 115.071C264.319 115.462 264.953 115.462 265.343 115.071L271.707 108.707ZM58 109L271 109L271 107L58 107L58 109Z" fill="white"/>
<path d="M41.7159 105.091C41.6307 104.371 41.285 103.812 40.679 103.415C40.0729 103.017 39.3295 102.818 38.4489 102.818C37.8049 102.818 37.2415 102.922 36.7585 103.131C36.2803 103.339 35.9063 103.625 35.6364 103.99C35.3712 104.355 35.2386 104.769 35.2386 105.233C35.2386 105.621 35.331 105.955 35.5156 106.234C35.705 106.509 35.9465 106.739 36.2401 106.923C36.5336 107.103 36.8414 107.252 37.1634 107.371C37.4853 107.484 37.7812 107.577 38.0511 107.648L39.5284 108.045C39.9072 108.145 40.3286 108.282 40.7926 108.457C41.2614 108.633 41.7088 108.872 42.1349 109.175C42.5658 109.473 42.9209 109.857 43.2003 110.325C43.4796 110.794 43.6193 111.369 43.6193 112.051C43.6193 112.837 43.4134 113.547 43.0014 114.182C42.5942 114.816 41.9976 115.321 41.2116 115.695C40.4304 116.069 39.4811 116.256 38.3636 116.256C37.322 116.256 36.42 116.088 35.6577 115.751C34.9001 115.415 34.3035 114.946 33.8679 114.345C33.437 113.744 33.1932 113.045 33.1364 112.25H34.9545C35.0019 112.799 35.1866 113.254 35.5085 113.614C35.8352 113.969 36.2472 114.234 36.7443 114.409C37.2462 114.58 37.786 114.665 38.3636 114.665C39.036 114.665 39.6397 114.556 40.1747 114.338C40.7098 114.116 41.1335 113.808 41.446 113.415C41.7585 113.017 41.9148 112.553 41.9148 112.023C41.9148 111.54 41.7798 111.147 41.5099 110.844C41.2401 110.541 40.8849 110.295 40.4446 110.105C40.0043 109.916 39.5284 109.75 39.017 109.608L37.2273 109.097C36.0909 108.77 35.1913 108.304 34.5284 107.697C33.8655 107.091 33.5341 106.298 33.5341 105.318C33.5341 104.504 33.7543 103.794 34.1946 103.188C34.6397 102.577 35.2363 102.103 35.9844 101.767C36.7372 101.426 37.5777 101.256 38.5057 101.256C39.4432 101.256 40.2765 101.424 41.0057 101.76C41.7348 102.091 42.3125 102.546 42.7386 103.124C43.1695 103.701 43.3968 104.357 43.4205 105.091H41.7159Z" fill="black"/>
<path d="M286.761 116V101.455H295.483V103.017H288.523V107.932H294.83V109.494H288.523V116H286.761Z" fill="black"/>
<path d="M69.7614 103V88.4545H74.6761C75.8125 88.4545 76.7453 88.6487 77.4744 89.0369C78.2036 89.4205 78.7434 89.9484 79.0938 90.6207C79.4441 91.2931 79.6193 92.0578 79.6193 92.9148C79.6193 93.7718 79.4441 94.5317 79.0938 95.1946C78.7434 95.8575 78.206 96.3783 77.4815 96.7571C76.7571 97.1312 75.8314 97.3182 74.7045 97.3182H70.7273V95.7273H74.6477C75.4242 95.7273 76.0492 95.6136 76.5227 95.3864C77.0009 95.1591 77.3466 94.8371 77.5597 94.4205C77.7775 93.9991 77.8864 93.4972 77.8864 92.9148C77.8864 92.3324 77.7775 91.8234 77.5597 91.3878C77.3419 90.9522 76.9938 90.616 76.5156 90.3793C76.0374 90.1378 75.4053 90.017 74.6193 90.017H71.5227V103H69.7614ZM76.608 96.4659L80.1875 103H78.142L74.6193 96.4659H76.608ZM82.5543 103V88.4545H91.3327V90.017H84.3157V94.9318H90.8782V96.4943H84.3157V101.438H91.4464V103H82.5543ZM94.962 94.392V92.858H103.712V94.392H94.962ZM94.962 98.5966V97.0625H103.712V98.5966H94.962Z" fill="white"/>
<path d="M115.744 103.256C115.053 103.256 114.426 103.125 113.862 102.865C113.299 102.6 112.851 102.219 112.52 101.722C112.188 101.22 112.023 100.614 112.023 99.9034C112.023 99.2784 112.146 98.7718 112.392 98.3835C112.638 97.9905 112.967 97.6828 113.379 97.4602C113.791 97.2377 114.246 97.072 114.743 96.9631C115.245 96.8494 115.749 96.7595 116.256 96.6932C116.919 96.608 117.456 96.544 117.868 96.5014C118.285 96.4541 118.588 96.3759 118.777 96.267C118.971 96.1581 119.068 95.9687 119.068 95.6989V95.642C119.068 94.9413 118.876 94.3968 118.493 94.0085C118.114 93.6203 117.539 93.4261 116.767 93.4261C115.967 93.4261 115.339 93.6013 114.885 93.9517C114.43 94.3021 114.111 94.6761 113.926 95.0739L112.335 94.5057C112.619 93.8428 112.998 93.3267 113.472 92.9574C113.95 92.5833 114.471 92.3229 115.034 92.1761C115.602 92.0246 116.161 91.9489 116.71 91.9489C117.061 91.9489 117.463 91.9915 117.918 92.0767C118.377 92.1572 118.82 92.3253 119.246 92.581C119.677 92.8366 120.034 93.2225 120.318 93.7386C120.602 94.2547 120.744 94.946 120.744 95.8125V103H119.068V101.523H118.983C118.869 101.759 118.68 102.013 118.415 102.283C118.15 102.553 117.797 102.782 117.357 102.972C116.916 103.161 116.379 103.256 115.744 103.256ZM116 101.75C116.663 101.75 117.222 101.62 117.676 101.359C118.135 101.099 118.481 100.763 118.713 100.351C118.95 99.9389 119.068 99.5057 119.068 99.0511V97.517C118.997 97.6023 118.841 97.6804 118.599 97.7514C118.363 97.8177 118.088 97.8769 117.776 97.929C117.468 97.9763 117.167 98.0189 116.874 98.0568C116.585 98.09 116.35 98.1184 116.17 98.142C115.735 98.1989 115.328 98.2912 114.949 98.419C114.575 98.5421 114.272 98.7292 114.04 98.9801C113.813 99.2263 113.699 99.5625 113.699 99.9886C113.699 100.571 113.914 101.011 114.345 101.31C114.781 101.603 115.332 101.75 116 101.75ZM127.014 103.256C126.323 103.256 125.695 103.125 125.132 102.865C124.568 102.6 124.121 102.219 123.789 101.722C123.458 101.22 123.292 100.614 123.292 99.9034C123.292 99.2784 123.415 98.7718 123.662 98.3835C123.908 97.9905 124.237 97.6828 124.649 97.4602C125.061 97.2377 125.515 97.072 126.012 96.9631C126.514 96.8494 127.019 96.7595 127.525 96.6932C128.188 96.608 128.725 96.544 129.137 96.5014C129.554 96.4541 129.857 96.3759 130.047 96.267C130.241 96.1581 130.338 95.9687 130.338 95.6989V95.642C130.338 94.9413 130.146 94.3968 129.762 94.0085C129.384 93.6203 128.808 93.4261 128.037 93.4261C127.236 93.4261 126.609 93.6013 126.154 93.9517C125.7 94.3021 125.38 94.6761 125.196 95.0739L123.605 94.5057C123.889 93.8428 124.268 93.3267 124.741 92.9574C125.219 92.5833 125.74 92.3229 126.304 92.1761C126.872 92.0246 127.431 91.9489 127.98 91.9489C128.33 91.9489 128.733 91.9915 129.187 92.0767C129.646 92.1572 130.089 92.3253 130.515 92.581C130.946 92.8366 131.304 93.2225 131.588 93.7386C131.872 94.2547 132.014 94.946 132.014 95.8125V103H130.338V101.523H130.252C130.139 101.759 129.949 102.013 129.684 102.283C129.419 102.553 129.066 102.782 128.626 102.972C128.186 103.161 127.648 103.256 127.014 103.256ZM127.27 101.75C127.932 101.75 128.491 101.62 128.946 101.359C129.405 101.099 129.751 100.763 129.983 100.351C130.219 99.9389 130.338 99.5057 130.338 99.0511V97.517C130.267 97.6023 130.11 97.6804 129.869 97.7514C129.632 97.8177 129.358 97.8769 129.045 97.929C128.737 97.9763 128.437 98.0189 128.143 98.0568C127.854 98.09 127.62 98.1184 127.44 98.142C127.004 98.1989 126.597 98.2912 126.218 98.419C125.844 98.5421 125.541 98.7292 125.309 98.9801C125.082 99.2263 124.968 99.5625 124.968 99.9886C124.968 100.571 125.184 101.011 125.615 101.31C126.05 101.603 126.602 101.75 127.27 101.75ZM137.857 96.6364L137.971 93.5114L135.329 95.1875L134.647 93.9943L137.431 92.5455L134.647 91.0966L135.329 89.9034L137.971 91.5795L137.857 88.4545H139.221L139.107 91.5795L141.749 89.9034L142.431 91.0966L139.647 92.5455L142.431 93.9943L141.749 95.1875L139.107 93.5114L139.221 96.6364H137.857ZM149.335 102.006V92.6307H150.925V102.006H149.335ZM145.442 98.1136V96.5227H154.817V98.1136H145.442ZM158.484 103V88.4545H160.16V93.8239H160.302C160.425 93.6345 160.596 93.393 160.814 93.0994C161.036 92.8011 161.353 92.536 161.765 92.304C162.182 92.0672 162.745 91.9489 163.456 91.9489C164.374 91.9489 165.184 92.1785 165.885 92.6378C166.585 93.0971 167.132 93.7481 167.525 94.5909C167.918 95.4337 168.115 96.428 168.115 97.5739C168.115 98.7292 167.918 99.7306 167.525 100.578C167.132 101.421 166.588 102.074 165.892 102.538C165.196 102.998 164.393 103.227 163.484 103.227C162.783 103.227 162.222 103.111 161.801 102.879C161.379 102.643 161.055 102.375 160.828 102.077C160.6 101.774 160.425 101.523 160.302 101.324H160.103V103H158.484ZM160.132 97.5455C160.132 98.3693 160.252 99.0961 160.494 99.7259C160.735 100.351 161.088 100.841 161.552 101.196C162.016 101.546 162.584 101.722 163.257 101.722C163.958 101.722 164.542 101.537 165.011 101.168C165.484 100.794 165.84 100.292 166.076 99.6619C166.318 99.0275 166.439 98.322 166.439 97.5455C166.439 96.7784 166.32 96.0871 166.083 95.4716C165.851 94.8513 165.499 94.3613 165.025 94.0014C164.556 93.6368 163.967 93.4545 163.257 93.4545C162.575 93.4545 162.002 93.6274 161.538 93.973C161.074 94.3139 160.724 94.7921 160.487 95.4077C160.25 96.0185 160.132 96.7311 160.132 97.5455ZM173.889 103.256C173.198 103.256 172.57 103.125 172.007 102.865C171.443 102.6 170.996 102.219 170.664 101.722C170.333 101.22 170.167 100.614 170.167 99.9034C170.167 99.2784 170.29 98.7718 170.537 98.3835C170.783 97.9905 171.112 97.6828 171.524 97.4602C171.936 97.2377 172.39 97.072 172.887 96.9631C173.389 96.8494 173.894 96.7595 174.4 96.6932C175.063 96.608 175.6 96.544 176.012 96.5014C176.429 96.4541 176.732 96.3759 176.922 96.267C177.116 96.1581 177.213 95.9687 177.213 95.6989V95.642C177.213 94.9413 177.021 94.3968 176.637 94.0085C176.259 93.6203 175.683 93.4261 174.912 93.4261C174.111 93.4261 173.484 93.6013 173.029 93.9517C172.575 94.3021 172.255 94.6761 172.071 95.0739L170.48 94.5057C170.764 93.8428 171.143 93.3267 171.616 92.9574C172.094 92.5833 172.615 92.3229 173.179 92.1761C173.747 92.0246 174.306 91.9489 174.855 91.9489C175.205 91.9489 175.608 91.9915 176.062 92.0767C176.521 92.1572 176.964 92.3253 177.39 92.581C177.821 92.8366 178.179 93.2225 178.463 93.7386C178.747 94.2547 178.889 94.946 178.889 95.8125V103H177.213V101.523H177.127C177.014 101.759 176.824 102.013 176.559 102.283C176.294 102.553 175.941 102.782 175.501 102.972C175.061 103.161 174.523 103.256 173.889 103.256ZM174.145 101.75C174.807 101.75 175.366 101.62 175.821 101.359C176.28 101.099 176.626 100.763 176.858 100.351C177.094 99.9389 177.213 99.5057 177.213 99.0511V97.517C177.142 97.6023 176.985 97.6804 176.744 97.7514C176.507 97.8177 176.233 97.8769 175.92 97.929C175.612 97.9763 175.312 98.0189 175.018 98.0568C174.729 98.09 174.495 98.1184 174.315 98.142C173.879 98.1989 173.472 98.2912 173.093 98.419C172.719 98.5421 172.416 98.7292 172.184 98.9801C171.957 99.2263 171.843 99.5625 171.843 99.9886C171.843 100.571 172.059 101.011 172.49 101.31C172.925 101.603 173.477 101.75 174.145 101.75ZM184.732 96.6364L184.846 93.5114L182.204 95.1875L181.522 93.9943L184.306 92.5455L181.522 91.0966L182.204 89.9034L184.846 91.5795L184.732 88.4545H186.096L185.982 91.5795L188.624 89.9034L189.306 91.0966L186.522 92.5455L189.306 93.9943L188.624 95.1875L185.982 93.5114L186.096 96.6364H184.732Z" fill="white"/>
</g>
<defs>
<clipPath id="clip0_236_54">
<rect width="347" height="199" fill="white"/>
</clipPath>
</defs>
</svg>
