<svg  width="1200" height="600"   viewBox="0 0 708 425" fill="none" xmlns="http://www.w3.org/2000/svg">
<rect width="708" height="425" fill="#252424"/>
<circle cx="132.172" cy="220" r="15.5" fill="#D9D9D9" stroke="#80003D" stroke-width="5"/>
<circle cx="246.172" cy="108" r="15.5" fill="#D9D9D9" stroke="#008000" stroke-width="5"/>
<circle cx="253" cy="345" r="15.5" fill="#D9D9D9" stroke="#008000" stroke-width="5"/>
<circle cx="372.172" cy="224" r="15.5" fill="#D9D9D9" stroke="#378AD6" stroke-width="5"/>
<path d="M134.716 216.091C134.631 215.371 134.285 214.812 133.679 214.415C133.073 214.017 132.33 213.818 131.449 213.818C130.805 213.818 130.241 213.922 129.759 214.131C129.28 214.339 128.906 214.625 128.636 214.99C128.371 215.355 128.239 215.769 128.239 216.233C128.239 216.621 128.331 216.955 128.516 217.234C128.705 217.509 128.946 217.739 129.24 217.923C129.534 218.103 129.841 218.252 130.163 218.371C130.485 218.484 130.781 218.577 131.051 218.648L132.528 219.045C132.907 219.145 133.329 219.282 133.793 219.457C134.261 219.633 134.709 219.872 135.135 220.175C135.566 220.473 135.921 220.857 136.2 221.325C136.48 221.794 136.619 222.369 136.619 223.051C136.619 223.837 136.413 224.547 136.001 225.182C135.594 225.816 134.998 226.321 134.212 226.695C133.43 227.069 132.481 227.256 131.364 227.256C130.322 227.256 129.42 227.088 128.658 226.751C127.9 226.415 127.304 225.946 126.868 225.345C126.437 224.744 126.193 224.045 126.136 223.25H127.955C128.002 223.799 128.187 224.254 128.509 224.614C128.835 224.969 129.247 225.234 129.744 225.409C130.246 225.58 130.786 225.665 131.364 225.665C132.036 225.665 132.64 225.556 133.175 225.338C133.71 225.116 134.134 224.808 134.446 224.415C134.759 224.017 134.915 223.553 134.915 223.023C134.915 222.54 134.78 222.147 134.51 221.844C134.24 221.541 133.885 221.295 133.445 221.105C133.004 220.916 132.528 220.75 132.017 220.608L130.227 220.097C129.091 219.77 128.191 219.304 127.528 218.697C126.866 218.091 126.534 217.298 126.534 216.318C126.534 215.504 126.754 214.794 127.195 214.188C127.64 213.577 128.236 213.103 128.984 212.767C129.737 212.426 130.578 212.256 131.506 212.256C132.443 212.256 133.277 212.424 134.006 212.76C134.735 213.091 135.313 213.546 135.739 214.124C136.17 214.701 136.397 215.357 136.42 216.091H134.716Z" fill="black"/>
<path d="M176.744 161.256C176.053 161.256 175.426 161.125 174.862 160.865C174.299 160.6 173.851 160.219 173.52 159.722C173.188 159.22 173.023 158.614 173.023 157.903C173.023 157.278 173.146 156.772 173.392 156.384C173.638 155.991 173.967 155.683 174.379 155.46C174.791 155.238 175.246 155.072 175.743 154.963C176.245 154.849 176.749 154.759 177.256 154.693C177.919 154.608 178.456 154.544 178.868 154.501C179.285 154.454 179.588 154.376 179.777 154.267C179.971 154.158 180.068 153.969 180.068 153.699V153.642C180.068 152.941 179.876 152.397 179.493 152.009C179.114 151.62 178.539 151.426 177.767 151.426C176.967 151.426 176.339 151.601 175.885 151.952C175.43 152.302 175.111 152.676 174.926 153.074L173.335 152.506C173.619 151.843 173.998 151.327 174.472 150.957C174.95 150.583 175.471 150.323 176.034 150.176C176.602 150.025 177.161 149.949 177.71 149.949C178.061 149.949 178.463 149.991 178.918 150.077C179.377 150.157 179.82 150.325 180.246 150.581C180.677 150.837 181.034 151.223 181.318 151.739C181.602 152.255 181.744 152.946 181.744 153.812V161H180.068V159.523H179.983C179.869 159.759 179.68 160.013 179.415 160.283C179.15 160.553 178.797 160.782 178.357 160.972C177.916 161.161 177.379 161.256 176.744 161.256ZM177 159.75C177.663 159.75 178.222 159.62 178.676 159.359C179.135 159.099 179.481 158.763 179.713 158.351C179.95 157.939 180.068 157.506 180.068 157.051V155.517C179.997 155.602 179.841 155.68 179.599 155.751C179.363 155.818 179.088 155.877 178.776 155.929C178.468 155.976 178.167 156.019 177.874 156.057C177.585 156.09 177.35 156.118 177.17 156.142C176.735 156.199 176.328 156.291 175.949 156.419C175.575 156.542 175.272 156.729 175.04 156.98C174.813 157.226 174.699 157.562 174.699 157.989C174.699 158.571 174.914 159.011 175.345 159.31C175.781 159.603 176.332 159.75 177 159.75Z" fill="white"/>
<path d="M241.933 116V101.455H247.018C248.032 101.455 248.867 101.63 249.526 101.98C250.184 102.326 250.674 102.792 250.996 103.379C251.318 103.962 251.479 104.608 251.479 105.318C251.479 105.943 251.367 106.459 251.145 106.866C250.927 107.274 250.638 107.596 250.278 107.832C249.923 108.069 249.537 108.244 249.121 108.358V108.5C249.566 108.528 250.013 108.685 250.463 108.969C250.913 109.253 251.289 109.66 251.592 110.19C251.895 110.721 252.047 111.369 252.047 112.136C252.047 112.866 251.881 113.521 251.55 114.104C251.218 114.686 250.695 115.148 249.98 115.489C249.265 115.83 248.335 116 247.189 116H241.933ZM243.695 114.438H247.189C248.339 114.438 249.156 114.215 249.639 113.77C250.127 113.32 250.371 112.776 250.371 112.136C250.371 111.644 250.245 111.189 249.994 110.773C249.743 110.351 249.386 110.015 248.922 109.764C248.458 109.509 247.909 109.381 247.274 109.381H243.695V114.438ZM243.695 107.847H246.962C247.492 107.847 247.97 107.742 248.396 107.534C248.827 107.326 249.168 107.032 249.419 106.653C249.675 106.275 249.803 105.83 249.803 105.318C249.803 104.679 249.58 104.137 249.135 103.692C248.69 103.242 247.984 103.017 247.018 103.017H243.695V107.847Z" fill="black"/>
<path d="M260.466 343H258.705C258.6 342.493 258.418 342.048 258.158 341.665C257.902 341.281 257.589 340.959 257.22 340.699C256.856 340.434 256.451 340.235 256.006 340.102C255.561 339.97 255.097 339.903 254.614 339.903C253.733 339.903 252.935 340.126 252.22 340.571C251.51 341.016 250.944 341.672 250.523 342.538C250.106 343.405 249.898 344.468 249.898 345.727C249.898 346.987 250.106 348.05 250.523 348.916C250.944 349.783 251.51 350.438 252.22 350.884C252.935 351.329 253.733 351.551 254.614 351.551C255.097 351.551 255.561 351.485 256.006 351.352C256.451 351.22 256.856 351.023 257.22 350.763C257.589 350.498 257.902 350.173 258.158 349.79C258.418 349.402 258.6 348.956 258.705 348.455H260.466C260.333 349.198 260.092 349.863 259.741 350.45C259.391 351.037 258.955 351.537 258.435 351.949C257.914 352.356 257.329 352.666 256.68 352.879C256.036 353.092 255.348 353.199 254.614 353.199C253.373 353.199 252.27 352.896 251.304 352.29C250.338 351.684 249.578 350.822 249.024 349.705C248.47 348.587 248.193 347.261 248.193 345.727C248.193 344.193 248.47 342.867 249.024 341.75C249.578 340.633 250.338 339.771 251.304 339.165C252.27 338.559 253.373 338.256 254.614 338.256C255.348 338.256 256.036 338.362 256.68 338.575C257.329 338.788 257.914 339.101 258.435 339.513C258.955 339.92 259.391 340.417 259.741 341.004C260.092 341.587 260.333 342.252 260.466 343Z" fill="black"/>
<path d="M367.933 232V217.455H376.655V219.017H369.695V223.932H376.001V225.494H369.695V232H367.933Z" fill="black"/>
<path d="M228.999 115.96C228.977 115.408 228.511 114.978 227.96 115.001L218.967 115.365C218.415 115.387 217.986 115.852 218.008 116.404C218.03 116.956 218.496 117.385 219.048 117.363L227.041 117.04L227.365 125.033C227.387 125.585 227.852 126.014 228.404 125.992C228.956 125.969 229.385 125.504 229.363 124.952L228.999 115.96ZM145.735 206.678L228.735 116.678L227.265 115.322L144.265 205.322L145.735 206.678Z" fill="white"/>
<path d="M362 239.974C361.985 239.421 361.526 238.986 360.974 239L351.977 239.238C351.425 239.253 350.989 239.712 351.003 240.264C351.018 240.817 351.477 241.252 352.03 241.238L360.027 241.026L360.238 249.023C360.253 249.575 360.712 250.011 361.264 249.997C361.817 249.982 362.252 249.523 362.238 248.97L362 239.974ZM269.726 337.688L361.726 240.688L360.274 239.312L268.274 336.312L269.726 337.688Z" fill="white"/>
<path d="M234.952 337.999C235.504 338.025 235.973 337.599 235.999 337.048L236.427 328.058C236.453 327.506 236.027 327.038 235.476 327.011C234.924 326.985 234.455 327.411 234.429 327.963L234.049 335.954L226.058 335.573C225.506 335.547 225.038 335.973 225.011 336.524C224.985 337.076 225.411 337.545 225.963 337.571L234.952 337.999ZM144.26 238.673L234.26 337.673L235.74 336.327L145.74 237.327L144.26 238.673Z" fill="white"/>
<path d="M352.952 216.999C353.504 217.025 353.973 216.599 353.999 216.048L354.427 207.058C354.453 206.506 354.027 206.038 353.476 206.011C352.924 205.985 352.455 206.411 352.429 206.963L352.049 214.954L344.058 214.573C343.506 214.547 343.038 214.973 343.011 215.524C342.985 216.076 343.411 216.545 343.963 216.571L352.952 216.999ZM262.26 117.673L352.26 216.673L353.74 215.327L263.74 116.327L262.26 117.673Z" fill="white"/>
<path d="M254.456 68.3025L254.138 69.2506L254.456 68.3025ZM253.477 90.0301C253.592 90.5704 254.123 90.9156 254.663 90.8012L263.468 88.936C264.008 88.8216 264.353 88.2908 264.239 87.7505C264.124 87.2102 263.593 86.865 263.053 86.9795L255.227 88.6374L253.569 80.811C253.454 80.2707 252.924 79.9255 252.383 80.04C251.843 80.1544 251.498 80.6852 251.612 81.2255L253.477 90.0301ZM237.71 89.0565C231.875 85.8601 229.651 82.8619 229.326 80.4184C229.007 78.0241 230.462 75.6779 233.262 73.6249C236.032 71.5937 239.9 70.0298 243.797 69.2153C247.711 68.3975 251.502 68.3668 254.138 69.2506L254.774 67.3544C251.664 66.3119 247.475 66.4037 243.388 67.2576C239.286 68.115 235.134 69.7722 232.079 72.0121C229.054 74.2302 226.88 77.205 227.343 80.6822C227.799 84.1102 230.767 87.534 236.75 90.8106L237.71 89.0565ZM254.138 69.2506C256.687 70.1053 257.876 71.665 258.332 73.5284C258.809 75.4748 258.504 77.8428 257.805 80.226C257.112 82.589 256.067 84.8537 255.186 86.5387C254.746 87.3783 254.352 88.0674 254.068 88.5451C253.926 88.7838 253.812 88.9693 253.734 89.094C253.695 89.1564 253.665 89.2035 253.645 89.2344C253.635 89.2499 253.628 89.2613 253.623 89.2686C253.621 89.2722 253.619 89.2748 253.618 89.2763C253.618 89.2771 253.618 89.2776 253.617 89.2778C253.617 89.2779 253.617 89.2779 253.617 89.2779C253.617 89.2778 253.617 89.2777 254.456 89.8229C255.294 90.3681 255.294 90.3678 255.295 90.3674C255.295 90.3672 255.295 90.3668 255.295 90.3664C255.296 90.3655 255.296 90.3644 255.297 90.363C255.299 90.3603 255.302 90.3565 255.305 90.3516C255.311 90.3418 255.32 90.3278 255.332 90.3097C255.355 90.2736 255.388 90.221 255.43 90.153C255.515 90.0171 255.637 89.8193 255.787 89.5673C256.086 89.0637 256.499 88.3425 256.958 87.4655C257.872 85.7174 258.981 83.3244 259.724 80.7888C260.462 78.2735 260.875 75.5022 260.275 73.0524C259.654 70.5195 257.97 68.426 254.774 67.3544L254.138 69.2506Z" fill="white"/>
<path d="M244.825 384.835L245.049 383.86L244.825 384.835ZM243.693 363.114C243.526 362.588 242.965 362.296 242.438 362.462L233.855 365.172C233.329 365.338 233.037 365.9 233.203 366.426C233.369 366.953 233.931 367.245 234.458 367.079L242.086 364.67L244.495 372.299C244.661 372.826 245.223 373.118 245.75 372.951C246.276 372.785 246.569 372.223 246.402 371.697L243.693 363.114ZM259.48 362.555C265.598 365.171 268.102 367.94 268.662 370.34C269.211 372.692 267.99 375.168 265.403 377.483C262.843 379.773 259.145 381.705 255.344 382.893C251.528 384.086 247.759 384.484 245.049 383.86L244.6 385.809C247.796 386.545 251.957 386.048 255.941 384.802C259.942 383.551 263.913 381.499 266.736 378.974C269.532 376.473 271.408 373.301 270.61 369.885C269.824 366.518 266.538 363.398 260.266 360.716L259.48 362.555ZM245.049 383.86C242.429 383.257 241.095 381.819 240.46 380.009C239.797 378.118 239.871 375.732 240.335 373.292C240.796 370.873 241.617 368.517 242.331 366.755C242.687 365.877 243.013 365.153 243.249 364.65C243.367 364.398 243.463 364.203 243.528 364.071C243.561 364.005 243.586 363.955 243.603 363.923C243.611 363.906 243.617 363.894 243.621 363.887C243.623 363.883 243.625 363.88 243.625 363.878C243.626 363.878 243.626 363.877 243.626 363.877C243.626 363.877 243.626 363.877 243.626 363.877C243.626 363.877 243.626 363.877 242.739 363.415C241.852 362.954 241.852 362.954 241.851 362.955C241.851 362.955 241.851 362.955 241.851 362.956C241.85 362.957 241.85 362.958 241.849 362.959C241.847 362.962 241.845 362.966 241.843 362.972C241.837 362.982 241.83 362.997 241.82 363.016C241.801 363.054 241.773 363.11 241.737 363.181C241.666 363.325 241.564 363.534 241.439 363.799C241.19 364.329 240.849 365.087 240.477 366.004C239.737 367.833 238.865 370.322 238.371 372.918C237.88 375.493 237.738 378.291 238.573 380.671C239.436 383.132 241.315 385.052 244.6 385.809L245.049 383.86Z" fill="white"/>
<path d="M180.761 306V291.455H182.438V296.824H182.58C182.703 296.634 182.873 296.393 183.091 296.099C183.313 295.801 183.631 295.536 184.043 295.304C184.459 295.067 185.023 294.949 185.733 294.949C186.652 294.949 187.461 295.179 188.162 295.638C188.863 296.097 189.41 296.748 189.803 297.591C190.196 298.434 190.392 299.428 190.392 300.574C190.392 301.729 190.196 302.731 189.803 303.578C189.41 304.421 188.865 305.074 188.169 305.538C187.473 305.998 186.67 306.227 185.761 306.227C185.061 306.227 184.5 306.111 184.078 305.879C183.657 305.643 183.332 305.375 183.105 305.077C182.878 304.774 182.703 304.523 182.58 304.324H182.381V306H180.761ZM182.409 300.545C182.409 301.369 182.53 302.096 182.771 302.726C183.013 303.351 183.366 303.841 183.83 304.196C184.294 304.546 184.862 304.722 185.534 304.722C186.235 304.722 186.82 304.537 187.288 304.168C187.762 303.794 188.117 303.292 188.354 302.662C188.595 302.027 188.716 301.322 188.716 300.545C188.716 299.778 188.598 299.087 188.361 298.472C188.129 297.851 187.776 297.361 187.303 297.001C186.834 296.637 186.244 296.455 185.534 296.455C184.852 296.455 184.279 296.627 183.815 296.973C183.351 297.314 183.001 297.792 182.764 298.408C182.527 299.018 182.409 299.731 182.409 300.545Z" fill="white"/>
<path d="M238.744 61.2557C238.053 61.2557 237.426 61.1255 236.862 60.8651C236.299 60.5999 235.851 60.2188 235.52 59.7216C235.188 59.2197 235.023 58.6136 235.023 57.9034C235.023 57.2784 235.146 56.7718 235.392 56.3835C235.638 55.9905 235.967 55.6828 236.379 55.4602C236.791 55.2377 237.246 55.072 237.743 54.9631C238.245 54.8494 238.749 54.7595 239.256 54.6932C239.919 54.608 240.456 54.544 240.868 54.5014C241.285 54.4541 241.588 54.3759 241.777 54.267C241.971 54.1581 242.068 53.9687 242.068 53.6989V53.642C242.068 52.9413 241.876 52.3968 241.493 52.0085C241.114 51.6203 240.539 51.4261 239.767 51.4261C238.967 51.4261 238.339 51.6013 237.885 51.9517C237.43 52.3021 237.111 52.6761 236.926 53.0739L235.335 52.5057C235.619 51.8428 235.998 51.3267 236.472 50.9574C236.95 50.5833 237.471 50.3229 238.034 50.1761C238.602 50.0246 239.161 49.9489 239.71 49.9489C240.061 49.9489 240.463 49.9915 240.918 50.0767C241.377 50.1572 241.82 50.3253 242.246 50.581C242.677 50.8366 243.034 51.2225 243.318 51.7386C243.602 52.2547 243.744 52.946 243.744 53.8125V61H242.068V59.5227H241.983C241.869 59.7595 241.68 60.0128 241.415 60.2827C241.15 60.5526 240.797 60.7822 240.357 60.9716C239.916 61.161 239.379 61.2557 238.744 61.2557ZM239 59.75C239.663 59.75 240.222 59.6198 240.676 59.3594C241.135 59.099 241.481 58.7628 241.713 58.3509C241.95 57.9389 242.068 57.5057 242.068 57.0511V55.517C241.997 55.6023 241.841 55.6804 241.599 55.7514C241.363 55.8177 241.088 55.8769 240.776 55.929C240.468 55.9763 240.167 56.0189 239.874 56.0568C239.585 56.09 239.35 56.1184 239.17 56.142C238.735 56.1989 238.328 56.2912 237.949 56.419C237.575 56.5421 237.272 56.7292 237.04 56.9801C236.813 57.2263 236.699 57.5625 236.699 57.9886C236.699 58.571 236.914 59.0114 237.345 59.3097C237.781 59.6032 238.332 59.75 239 59.75Z" fill="white"/>
<path d="M251.744 405.256C251.053 405.256 250.426 405.125 249.862 404.865C249.299 404.6 248.851 404.219 248.52 403.722C248.188 403.22 248.023 402.614 248.023 401.903C248.023 401.278 248.146 400.772 248.392 400.384C248.638 399.991 248.967 399.683 249.379 399.46C249.791 399.238 250.246 399.072 250.743 398.963C251.245 398.849 251.749 398.759 252.256 398.693C252.919 398.608 253.456 398.544 253.868 398.501C254.285 398.454 254.588 398.376 254.777 398.267C254.971 398.158 255.068 397.969 255.068 397.699V397.642C255.068 396.941 254.876 396.397 254.493 396.009C254.114 395.62 253.539 395.426 252.767 395.426C251.967 395.426 251.339 395.601 250.885 395.952C250.43 396.302 250.111 396.676 249.926 397.074L248.335 396.506C248.619 395.843 248.998 395.327 249.472 394.957C249.95 394.583 250.471 394.323 251.034 394.176C251.602 394.025 252.161 393.949 252.71 393.949C253.061 393.949 253.463 393.991 253.918 394.077C254.377 394.157 254.82 394.325 255.246 394.581C255.677 394.837 256.034 395.223 256.318 395.739C256.602 396.255 256.744 396.946 256.744 397.812V405H255.068V403.523H254.983C254.869 403.759 254.68 404.013 254.415 404.283C254.15 404.553 253.797 404.782 253.357 404.972C252.916 405.161 252.379 405.256 251.744 405.256ZM252 403.75C252.663 403.75 253.222 403.62 253.676 403.359C254.135 403.099 254.481 402.763 254.713 402.351C254.95 401.939 255.068 401.506 255.068 401.051V399.517C254.997 399.602 254.841 399.68 254.599 399.751C254.363 399.818 254.088 399.877 253.776 399.929C253.468 399.976 253.167 400.019 252.874 400.057C252.585 400.09 252.35 400.118 252.17 400.142C251.735 400.199 251.328 400.291 250.949 400.419C250.575 400.542 250.272 400.729 250.04 400.98C249.813 401.226 249.699 401.562 249.699 401.989C249.699 402.571 249.914 403.011 250.345 403.31C250.781 403.603 251.332 403.75 252 403.75Z" fill="white"/>
<path d="M315.114 150.318H316.591V151.114H315.284C314.773 151.114 314.33 151.196 313.956 151.362C313.582 151.528 313.293 151.75 313.089 152.03C312.886 152.304 312.784 152.615 312.784 152.96C312.784 153.472 313.033 153.884 313.53 154.196C314.027 154.509 314.688 154.665 315.511 154.665C316.307 154.665 316.92 154.513 317.351 154.21C317.782 153.907 318.068 153.443 318.21 152.818H319.972C319.91 153.33 319.761 153.794 319.524 154.21C319.287 154.627 318.973 154.984 318.58 155.283C318.187 155.576 317.725 155.804 317.195 155.964C316.664 156.121 316.075 156.199 315.426 156.199C314.583 156.199 313.828 156.069 313.161 155.808C312.498 155.543 311.974 155.174 311.591 154.7C311.212 154.227 311.023 153.675 311.023 153.045C311.023 152.757 311.077 152.454 311.186 152.136C311.3 151.819 311.501 151.523 311.79 151.249C312.083 150.974 312.498 150.751 313.033 150.581C313.572 150.406 314.266 150.318 315.114 150.318ZM316.591 150.773H315.114C314.285 150.773 313.613 150.692 313.097 150.531C312.585 150.37 312.192 150.162 311.918 149.906C311.648 149.646 311.463 149.362 311.364 149.054C311.269 148.746 311.222 148.448 311.222 148.159C311.222 147.487 311.397 146.911 311.747 146.433C312.098 145.955 312.585 145.588 313.21 145.332C313.84 145.077 314.569 144.949 315.398 144.949C316.226 144.949 316.951 145.074 317.571 145.325C318.196 145.576 318.696 145.938 319.07 146.412C319.448 146.881 319.683 147.444 319.773 148.102H318.011C317.893 147.61 317.611 147.212 317.166 146.909C316.721 146.606 316.132 146.455 315.398 146.455C314.65 146.455 314.051 146.613 313.601 146.93C313.151 147.243 312.926 147.652 312.926 148.159C312.926 148.614 313.12 148.978 313.509 149.253C313.902 149.527 314.493 149.665 315.284 149.665H316.591V150.773Z" fill="white"/>
<path d="M327.114 302.318H328.591V303.114H327.284C326.773 303.114 326.33 303.196 325.956 303.362C325.582 303.528 325.293 303.75 325.089 304.03C324.886 304.304 324.784 304.615 324.784 304.96C324.784 305.472 325.033 305.884 325.53 306.196C326.027 306.509 326.688 306.665 327.511 306.665C328.307 306.665 328.92 306.513 329.351 306.21C329.782 305.907 330.068 305.443 330.21 304.818H331.972C331.91 305.33 331.761 305.794 331.524 306.21C331.287 306.627 330.973 306.984 330.58 307.283C330.187 307.576 329.725 307.804 329.195 307.964C328.664 308.121 328.075 308.199 327.426 308.199C326.583 308.199 325.828 308.069 325.161 307.808C324.498 307.543 323.974 307.174 323.591 306.7C323.212 306.227 323.023 305.675 323.023 305.045C323.023 304.757 323.077 304.454 323.186 304.136C323.3 303.819 323.501 303.523 323.79 303.249C324.083 302.974 324.498 302.751 325.033 302.581C325.572 302.406 326.266 302.318 327.114 302.318ZM328.591 302.773H327.114C326.285 302.773 325.613 302.692 325.097 302.531C324.585 302.37 324.192 302.162 323.918 301.906C323.648 301.646 323.463 301.362 323.364 301.054C323.269 300.746 323.222 300.448 323.222 300.159C323.222 299.487 323.397 298.911 323.747 298.433C324.098 297.955 324.585 297.588 325.21 297.332C325.84 297.077 326.569 296.949 327.398 296.949C328.226 296.949 328.951 297.074 329.571 297.325C330.196 297.576 330.696 297.938 331.07 298.412C331.448 298.881 331.683 299.444 331.773 300.102H330.011C329.893 299.61 329.611 299.212 329.166 298.909C328.721 298.606 328.132 298.455 327.398 298.455C326.65 298.455 326.051 298.613 325.601 298.93C325.151 299.243 324.926 299.652 324.926 300.159C324.926 300.614 325.12 300.978 325.509 301.253C325.902 301.527 326.493 301.665 327.284 301.665H328.591V302.773Z" fill="white"/>
</svg>
