<svg  width="708" height="350"   viewBox="0 0 708 350" fill="none" xmlns="http://www.w3.org/2000/svg">
<rect width="708" height="350" fill="#252424"/>
<circle cx="336.172" cy="196" r="15.5" fill="#D9D9D9" stroke="#378AD6" stroke-width="5"/>
<circle cx="132.172" cy="192" r="15.5" fill="#D9D9D9" stroke="#80003D" stroke-width="5"/>
<circle cx="230" cy="192" r="15.5" fill="#D9D9D9" stroke="#008000" stroke-width="5"/>
<path d="M223.761 201V186.455H228.847C229.86 186.455 230.696 186.63 231.354 186.98C232.012 187.326 232.502 187.792 232.824 188.379C233.146 188.962 233.307 189.608 233.307 190.318C233.307 190.943 233.196 191.459 232.973 191.866C232.755 192.274 232.466 192.596 232.107 192.832C231.751 193.069 231.366 193.244 230.949 193.358V193.5C231.394 193.528 231.841 193.685 232.291 193.969C232.741 194.253 233.117 194.66 233.42 195.19C233.723 195.721 233.875 196.369 233.875 197.136C233.875 197.866 233.709 198.521 233.378 199.104C233.046 199.686 232.523 200.148 231.808 200.489C231.093 200.83 230.163 201 229.017 201H223.761ZM225.523 199.438H229.017C230.168 199.438 230.984 199.215 231.467 198.77C231.955 198.32 232.199 197.776 232.199 197.136C232.199 196.644 232.073 196.189 231.822 195.773C231.571 195.351 231.214 195.015 230.75 194.764C230.286 194.509 229.737 194.381 229.102 194.381H225.523V199.438ZM225.523 192.847H228.79C229.32 192.847 229.798 192.742 230.224 192.534C230.655 192.326 230.996 192.032 231.247 191.653C231.503 191.275 231.631 190.83 231.631 190.318C231.631 189.679 231.408 189.137 230.963 188.692C230.518 188.242 229.813 188.017 228.847 188.017H225.523V192.847Z" fill="black"/>
<path d="M135.716 188.091C135.631 187.371 135.285 186.812 134.679 186.415C134.073 186.017 133.33 185.818 132.449 185.818C131.805 185.818 131.241 185.922 130.759 186.131C130.28 186.339 129.906 186.625 129.636 186.99C129.371 187.355 129.239 187.769 129.239 188.233C129.239 188.621 129.331 188.955 129.516 189.234C129.705 189.509 129.946 189.739 130.24 189.923C130.534 190.103 130.841 190.252 131.163 190.371C131.485 190.484 131.781 190.577 132.051 190.648L133.528 191.045C133.907 191.145 134.329 191.282 134.793 191.457C135.261 191.633 135.709 191.872 136.135 192.175C136.566 192.473 136.921 192.857 137.2 193.325C137.48 193.794 137.619 194.369 137.619 195.051C137.619 195.837 137.413 196.547 137.001 197.182C136.594 197.816 135.998 198.321 135.212 198.695C134.43 199.069 133.481 199.256 132.364 199.256C131.322 199.256 130.42 199.088 129.658 198.751C128.9 198.415 128.304 197.946 127.868 197.345C127.437 196.744 127.193 196.045 127.136 195.25H128.955C129.002 195.799 129.187 196.254 129.509 196.614C129.835 196.969 130.247 197.234 130.744 197.409C131.246 197.58 131.786 197.665 132.364 197.665C133.036 197.665 133.64 197.556 134.175 197.338C134.71 197.116 135.134 196.808 135.446 196.415C135.759 196.017 135.915 195.553 135.915 195.023C135.915 194.54 135.78 194.147 135.51 193.844C135.24 193.541 134.885 193.295 134.445 193.105C134.004 192.916 133.528 192.75 133.017 192.608L131.227 192.097C130.091 191.77 129.191 191.304 128.528 190.697C127.866 190.091 127.534 189.298 127.534 188.318C127.534 187.504 127.754 186.794 128.195 186.188C128.64 185.577 129.236 185.103 129.984 184.767C130.737 184.426 131.578 184.256 132.506 184.256C133.443 184.256 134.277 184.424 135.006 184.76C135.735 185.091 136.313 185.546 136.739 186.124C137.17 186.701 137.397 187.357 137.42 188.091H135.716Z" fill="black"/>
<path d="M316.707 194.707C317.098 194.317 317.098 193.683 316.707 193.293L310.343 186.929C309.953 186.538 309.319 186.538 308.929 186.929C308.538 187.319 308.538 187.953 308.929 188.343L314.586 194L308.929 199.657C308.538 200.047 308.538 200.681 308.929 201.071C309.319 201.462 309.953 201.462 310.343 201.071L316.707 194.707ZM248 195L316 195L316 193L248 193L248 195Z" fill="white"/>
<path d="M212.707 192.707C213.098 192.317 213.098 191.683 212.707 191.293L206.343 184.929C205.953 184.538 205.319 184.538 204.929 184.929C204.538 185.319 204.538 185.953 204.929 186.343L210.586 192L204.929 197.657C204.538 198.047 204.538 198.681 204.929 199.071C205.319 199.462 205.953 199.462 206.343 199.071L212.707 192.707ZM150 193L212 193L212 191L150 191L150 193Z" fill="white"/>
<path d="M283.114 183.318H284.591V184.114H283.284C282.773 184.114 282.33 184.196 281.956 184.362C281.582 184.528 281.293 184.75 281.089 185.03C280.886 185.304 280.784 185.615 280.784 185.96C280.784 186.472 281.033 186.884 281.53 187.196C282.027 187.509 282.688 187.665 283.511 187.665C284.307 187.665 284.92 187.513 285.351 187.21C285.782 186.907 286.068 186.443 286.21 185.818H287.972C287.91 186.33 287.761 186.794 287.524 187.21C287.287 187.627 286.973 187.984 286.58 188.283C286.187 188.576 285.725 188.804 285.195 188.964C284.664 189.121 284.075 189.199 283.426 189.199C282.583 189.199 281.828 189.069 281.161 188.808C280.498 188.543 279.974 188.174 279.591 187.7C279.212 187.227 279.023 186.675 279.023 186.045C279.023 185.757 279.077 185.454 279.186 185.136C279.3 184.819 279.501 184.523 279.79 184.249C280.083 183.974 280.498 183.751 281.033 183.581C281.572 183.406 282.266 183.318 283.114 183.318ZM284.591 183.773H283.114C282.285 183.773 281.613 183.692 281.097 183.531C280.585 183.37 280.192 183.162 279.918 182.906C279.648 182.646 279.463 182.362 279.364 182.054C279.269 181.746 279.222 181.448 279.222 181.159C279.222 180.487 279.397 179.911 279.747 179.433C280.098 178.955 280.585 178.588 281.21 178.332C281.84 178.077 282.569 177.949 283.398 177.949C284.226 177.949 284.951 178.074 285.571 178.325C286.196 178.576 286.696 178.938 287.07 179.412C287.448 179.881 287.683 180.444 287.773 181.102H286.011C285.893 180.61 285.611 180.212 285.166 179.909C284.721 179.606 284.132 179.455 283.398 179.455C282.65 179.455 282.051 179.613 281.601 179.93C281.151 180.243 280.926 180.652 280.926 181.159C280.926 181.614 281.12 181.978 281.509 182.253C281.902 182.527 282.493 182.665 283.284 182.665H284.591V183.773Z" fill="white"/>
<path d="M171.744 189.256C171.053 189.256 170.426 189.125 169.862 188.865C169.299 188.6 168.851 188.219 168.52 187.722C168.188 187.22 168.023 186.614 168.023 185.903C168.023 185.278 168.146 184.772 168.392 184.384C168.638 183.991 168.967 183.683 169.379 183.46C169.791 183.238 170.246 183.072 170.743 182.963C171.245 182.849 171.749 182.759 172.256 182.693C172.919 182.608 173.456 182.544 173.868 182.501C174.285 182.454 174.588 182.376 174.777 182.267C174.971 182.158 175.068 181.969 175.068 181.699V181.642C175.068 180.941 174.876 180.397 174.493 180.009C174.114 179.62 173.539 179.426 172.767 179.426C171.967 179.426 171.339 179.601 170.885 179.952C170.43 180.302 170.111 180.676 169.926 181.074L168.335 180.506C168.619 179.843 168.998 179.327 169.472 178.957C169.95 178.583 170.471 178.323 171.034 178.176C171.602 178.025 172.161 177.949 172.71 177.949C173.061 177.949 173.463 177.991 173.918 178.077C174.377 178.157 174.82 178.325 175.246 178.581C175.677 178.837 176.034 179.223 176.318 179.739C176.602 180.255 176.744 180.946 176.744 181.812V189H175.068V187.523H174.983C174.869 187.759 174.68 188.013 174.415 188.283C174.15 188.553 173.797 188.782 173.357 188.972C172.916 189.161 172.379 189.256 171.744 189.256ZM172 187.75C172.663 187.75 173.222 187.62 173.676 187.359C174.135 187.099 174.481 186.763 174.713 186.351C174.95 185.939 175.068 185.506 175.068 185.051V183.517C174.997 183.602 174.841 183.68 174.599 183.751C174.363 183.818 174.088 183.877 173.776 183.929C173.468 183.976 173.167 184.019 172.874 184.057C172.585 184.09 172.35 184.118 172.17 184.142C171.735 184.199 171.328 184.291 170.949 184.419C170.575 184.542 170.272 184.729 170.04 184.98C169.813 185.226 169.699 185.562 169.699 185.989C169.699 186.571 169.914 187.011 170.345 187.31C170.781 187.603 171.332 187.75 172 187.75Z" fill="white"/>
<path d="M331.761 205V190.455H340.483V192.017H333.523V196.932H339.83V198.494H333.523V205H331.761Z" fill="black"/>
<path d="M239.474 151.319L239.149 152.264L239.474 151.319ZM238.481 173.672C238.602 174.211 239.137 174.55 239.676 174.429L248.457 172.454C248.996 172.333 249.334 171.798 249.213 171.259C249.092 170.72 248.557 170.382 248.018 170.503L240.213 172.258L238.458 164.453C238.337 163.914 237.802 163.575 237.263 163.697C236.724 163.818 236.385 164.353 236.506 164.892L238.481 173.672ZM222.721 172.709C216.895 169.431 214.66 166.346 214.334 163.809C214.013 161.316 215.49 158.889 218.287 156.779C221.059 154.688 224.926 153.077 228.822 152.237C232.734 151.393 236.519 151.36 239.149 152.264L239.799 150.373C236.685 149.302 232.489 149.4 228.4 150.282C224.293 151.168 220.139 152.877 217.082 155.183C214.05 157.47 211.894 160.52 212.35 164.065C212.801 167.567 215.753 171.083 221.74 174.452L222.721 172.709ZM239.149 152.264C241.689 153.139 242.885 154.741 243.345 156.676C243.823 158.691 243.513 161.138 242.812 163.594C242.116 166.029 241.067 168.362 240.184 170.097C239.743 170.961 239.348 171.671 239.063 172.163C238.921 172.409 238.806 172.6 238.728 172.729C238.689 172.793 238.659 172.842 238.64 172.873C238.63 172.889 238.622 172.901 238.618 172.909C238.615 172.912 238.614 172.915 238.613 172.917C238.612 172.918 238.612 172.918 238.612 172.918C238.611 172.918 238.611 172.918 238.611 172.918C238.611 172.918 238.612 172.918 239.457 173.453C240.302 173.988 240.302 173.987 240.302 173.987C240.302 173.987 240.302 173.986 240.303 173.986C240.303 173.985 240.304 173.984 240.305 173.983C240.307 173.98 240.309 173.976 240.312 173.971C240.318 173.961 240.327 173.946 240.339 173.928C240.362 173.891 240.395 173.837 240.438 173.767C240.523 173.627 240.644 173.424 240.794 173.165C241.094 172.647 241.507 171.906 241.966 171.004C242.881 169.207 243.99 166.747 244.735 164.143C245.473 161.559 245.886 158.72 245.291 156.214C244.677 153.628 243.003 151.476 239.799 150.373L239.149 152.264Z" fill="white"/>
<path d="M222.744 145.256C222.053 145.256 221.426 145.125 220.862 144.865C220.299 144.6 219.851 144.219 219.52 143.722C219.188 143.22 219.023 142.614 219.023 141.903C219.023 141.278 219.146 140.772 219.392 140.384C219.638 139.991 219.967 139.683 220.379 139.46C220.791 139.238 221.246 139.072 221.743 138.963C222.245 138.849 222.749 138.759 223.256 138.693C223.919 138.608 224.456 138.544 224.868 138.501C225.285 138.454 225.588 138.376 225.777 138.267C225.971 138.158 226.068 137.969 226.068 137.699V137.642C226.068 136.941 225.876 136.397 225.493 136.009C225.114 135.62 224.539 135.426 223.767 135.426C222.967 135.426 222.339 135.601 221.885 135.952C221.43 136.302 221.111 136.676 220.926 137.074L219.335 136.506C219.619 135.843 219.998 135.327 220.472 134.957C220.95 134.583 221.471 134.323 222.034 134.176C222.602 134.025 223.161 133.949 223.71 133.949C224.061 133.949 224.463 133.991 224.918 134.077C225.377 134.157 225.82 134.325 226.246 134.581C226.677 134.837 227.034 135.223 227.318 135.739C227.602 136.255 227.744 136.946 227.744 137.812V145H226.068V143.523H225.983C225.869 143.759 225.68 144.013 225.415 144.283C225.15 144.553 224.797 144.782 224.357 144.972C223.916 145.161 223.379 145.256 222.744 145.256ZM223 143.75C223.663 143.75 224.222 143.62 224.676 143.359C225.135 143.099 225.481 142.763 225.713 142.351C225.95 141.939 226.068 141.506 226.068 141.051V139.517C225.997 139.602 225.841 139.68 225.599 139.751C225.363 139.818 225.088 139.877 224.776 139.929C224.468 139.976 224.167 140.019 223.874 140.057C223.585 140.09 223.35 140.118 223.17 140.142C222.735 140.199 222.328 140.291 221.949 140.419C221.575 140.542 221.272 140.729 221.04 140.98C220.813 141.226 220.699 141.562 220.699 141.989C220.699 142.571 220.914 143.011 221.345 143.31C221.781 143.603 222.332 143.75 223 143.75ZM231.031 145V130.455H232.707V135.824H232.849C232.972 135.634 233.143 135.393 233.36 135.099C233.583 134.801 233.9 134.536 234.312 134.304C234.729 134.067 235.292 133.949 236.002 133.949C236.921 133.949 237.731 134.179 238.431 134.638C239.132 135.097 239.679 135.748 240.072 136.591C240.465 137.434 240.662 138.428 240.662 139.574C240.662 140.729 240.465 141.731 240.072 142.578C239.679 143.421 239.135 144.074 238.439 144.538C237.743 144.998 236.94 145.227 236.031 145.227C235.33 145.227 234.769 145.111 234.348 144.879C233.926 144.643 233.602 144.375 233.375 144.077C233.147 143.774 232.972 143.523 232.849 143.324H232.65V145H231.031ZM232.679 139.545C232.679 140.369 232.799 141.096 233.041 141.726C233.282 142.351 233.635 142.841 234.099 143.196C234.563 143.546 235.131 143.722 235.804 143.722C236.504 143.722 237.089 143.537 237.558 143.168C238.031 142.794 238.386 142.292 238.623 141.662C238.865 141.027 238.985 140.322 238.985 139.545C238.985 138.778 238.867 138.087 238.63 137.472C238.398 136.851 238.046 136.361 237.572 136.001C237.103 135.637 236.514 135.455 235.804 135.455C235.122 135.455 234.549 135.627 234.085 135.973C233.621 136.314 233.27 136.792 233.034 137.408C232.797 138.018 232.679 138.731 232.679 139.545Z" fill="white"/>
</svg>
