<svg  width="708" height="350"   viewBox="0 0 708 350" fill="none" xmlns="http://www.w3.org/2000/svg">
<g clip-path="url(#clip0_132_50)">
<rect width="708" height="350" fill="#252424"/>
<circle cx="86.1721" cy="188" r="15.5" fill="#D9D9D9" stroke="#80003D" stroke-width="5"/>
<circle cx="448" cy="188" r="15.5" fill="#D9D9D9" stroke="#378AD6" stroke-width="5"/>
<path d="M443.509 196.014V181.468H452.231V183.031H445.27V187.945H451.577V189.508H445.27V196.014H443.509Z" fill="black"/>
<path d="M430.565 187.825C431.021 187.513 431.137 186.891 430.825 186.435L425.742 179.008C425.43 178.553 424.807 178.436 424.352 178.748C423.896 179.06 423.779 179.682 424.091 180.138L428.61 186.74L422.008 191.258C421.553 191.57 421.436 192.193 421.748 192.648C422.06 193.104 422.682 193.221 423.138 192.909L430.565 187.825ZM104.196 188.981C160.445 177.731 202.494 170.122 250.149 169C297.801 167.877 351.1 173.239 429.816 187.983L430.184 186.017C351.4 171.261 297.949 165.873 250.101 167C202.256 168.128 160.055 175.769 103.804 187.019L104.196 188.981Z" fill="white"/>
<path d="M430.539 194.158C431.004 194.456 431.14 195.074 430.842 195.539L425.987 203.118C425.689 203.583 425.071 203.718 424.606 203.42C424.141 203.122 424.005 202.504 424.303 202.039L428.619 195.303L421.882 190.987C421.417 190.689 421.282 190.071 421.58 189.606C421.878 189.141 422.496 189.005 422.961 189.303L430.539 194.158ZM104.221 195.025C172.729 210.527 214.753 218.876 259.317 219.062C303.883 219.249 351.037 211.273 429.786 194.023L430.214 195.977C351.463 213.227 304.117 221.25 259.308 221.062C214.497 220.874 172.271 212.473 103.779 196.975L104.221 195.025Z" fill="white"/>
<path d="M260.744 162.256C260.053 162.256 259.426 162.125 258.862 161.865C258.299 161.6 257.851 161.219 257.52 160.722C257.188 160.22 257.023 159.614 257.023 158.903C257.023 158.278 257.146 157.772 257.392 157.384C257.638 156.991 257.967 156.683 258.379 156.46C258.791 156.238 259.246 156.072 259.743 155.963C260.245 155.849 260.749 155.759 261.256 155.693C261.919 155.608 262.456 155.544 262.868 155.501C263.285 155.454 263.588 155.376 263.777 155.267C263.971 155.158 264.068 154.969 264.068 154.699V154.642C264.068 153.941 263.876 153.397 263.493 153.009C263.114 152.62 262.539 152.426 261.767 152.426C260.967 152.426 260.339 152.601 259.885 152.952C259.43 153.302 259.111 153.676 258.926 154.074L257.335 153.506C257.619 152.843 257.998 152.327 258.472 151.957C258.95 151.583 259.471 151.323 260.034 151.176C260.602 151.025 261.161 150.949 261.71 150.949C262.061 150.949 262.463 150.991 262.918 151.077C263.377 151.157 263.82 151.325 264.246 151.581C264.677 151.837 265.034 152.223 265.318 152.739C265.602 153.255 265.744 153.946 265.744 154.812V162H264.068V160.523H263.983C263.869 160.759 263.68 161.013 263.415 161.283C263.15 161.553 262.797 161.782 262.357 161.972C261.916 162.161 261.379 162.256 260.744 162.256ZM261 160.75C261.663 160.75 262.222 160.62 262.676 160.359C263.135 160.099 263.481 159.763 263.713 159.351C263.95 158.939 264.068 158.506 264.068 158.051V156.517C263.997 156.602 263.841 156.68 263.599 156.751C263.363 156.818 263.088 156.877 262.776 156.929C262.468 156.976 262.167 157.019 261.874 157.057C261.585 157.09 261.35 157.118 261.17 157.142C260.735 157.199 260.328 157.291 259.949 157.419C259.575 157.542 259.272 157.729 259.04 157.98C258.813 158.226 258.699 158.562 258.699 158.989C258.699 159.571 258.914 160.011 259.345 160.31C259.781 160.603 260.332 160.75 261 160.75ZM272.014 162.256C271.323 162.256 270.695 162.125 270.132 161.865C269.568 161.6 269.121 161.219 268.789 160.722C268.458 160.22 268.292 159.614 268.292 158.903C268.292 158.278 268.415 157.772 268.662 157.384C268.908 156.991 269.237 156.683 269.649 156.46C270.061 156.238 270.515 156.072 271.012 155.963C271.514 155.849 272.019 155.759 272.525 155.693C273.188 155.608 273.725 155.544 274.137 155.501C274.554 155.454 274.857 155.376 275.047 155.267C275.241 155.158 275.338 154.969 275.338 154.699V154.642C275.338 153.941 275.146 153.397 274.762 153.009C274.384 152.62 273.808 152.426 273.037 152.426C272.236 152.426 271.609 152.601 271.154 152.952C270.7 153.302 270.38 153.676 270.196 154.074L268.605 153.506C268.889 152.843 269.268 152.327 269.741 151.957C270.219 151.583 270.74 151.323 271.304 151.176C271.872 151.025 272.431 150.949 272.98 150.949C273.33 150.949 273.733 150.991 274.187 151.077C274.646 151.157 275.089 151.325 275.515 151.581C275.946 151.837 276.304 152.223 276.588 152.739C276.872 153.255 277.014 153.946 277.014 154.812V162H275.338V160.523H275.252C275.139 160.759 274.949 161.013 274.684 161.283C274.419 161.553 274.066 161.782 273.626 161.972C273.186 162.161 272.648 162.256 272.014 162.256ZM272.27 160.75C272.932 160.75 273.491 160.62 273.946 160.359C274.405 160.099 274.751 159.763 274.983 159.351C275.219 158.939 275.338 158.506 275.338 158.051V156.517C275.267 156.602 275.11 156.68 274.869 156.751C274.632 156.818 274.358 156.877 274.045 156.929C273.737 156.976 273.437 157.019 273.143 157.057C272.854 157.09 272.62 157.118 272.44 157.142C272.004 157.199 271.597 157.291 271.218 157.419C270.844 157.542 270.541 157.729 270.309 157.98C270.082 158.226 269.968 158.562 269.968 158.989C269.968 159.571 270.184 160.011 270.615 160.31C271.05 160.603 271.602 160.75 272.27 160.75ZM282.857 155.636L282.971 152.511L280.329 154.188L279.647 152.994L282.431 151.545L279.647 150.097L280.329 148.903L282.971 150.58L282.857 147.455H284.221L284.107 150.58L286.749 148.903L287.431 150.097L284.647 151.545L287.431 152.994L286.749 154.188L284.107 152.511L284.221 155.636H282.857Z" fill="white"/>
<path d="M257.761 240V225.455H259.438V230.824H259.58C259.703 230.634 259.873 230.393 260.091 230.099C260.313 229.801 260.631 229.536 261.043 229.304C261.459 229.067 262.023 228.949 262.733 228.949C263.652 228.949 264.461 229.179 265.162 229.638C265.863 230.097 266.41 230.748 266.803 231.591C267.196 232.434 267.392 233.428 267.392 234.574C267.392 235.729 267.196 236.731 266.803 237.578C266.41 238.421 265.865 239.074 265.169 239.538C264.473 239.998 263.67 240.227 262.761 240.227C262.061 240.227 261.5 240.111 261.078 239.879C260.657 239.643 260.332 239.375 260.105 239.077C259.878 238.774 259.703 238.523 259.58 238.324H259.381V240H257.761ZM259.409 234.545C259.409 235.369 259.53 236.096 259.771 236.726C260.013 237.351 260.366 237.841 260.83 238.196C261.294 238.546 261.862 238.722 262.534 238.722C263.235 238.722 263.82 238.537 264.288 238.168C264.762 237.794 265.117 237.292 265.354 236.662C265.595 236.027 265.716 235.322 265.716 234.545C265.716 233.778 265.598 233.087 265.361 232.472C265.129 231.851 264.776 231.361 264.303 231.001C263.834 230.637 263.244 230.455 262.534 230.455C261.852 230.455 261.279 230.627 260.815 230.973C260.351 231.314 260.001 231.792 259.764 232.408C259.527 233.018 259.409 233.731 259.409 234.545ZM273.166 240.256C272.475 240.256 271.848 240.125 271.284 239.865C270.721 239.6 270.273 239.219 269.942 238.722C269.61 238.22 269.445 237.614 269.445 236.903C269.445 236.278 269.568 235.772 269.814 235.384C270.06 234.991 270.389 234.683 270.801 234.46C271.213 234.238 271.668 234.072 272.165 233.963C272.667 233.849 273.171 233.759 273.678 233.693C274.34 233.608 274.878 233.544 275.29 233.501C275.706 233.454 276.009 233.376 276.199 233.267C276.393 233.158 276.49 232.969 276.49 232.699V232.642C276.49 231.941 276.298 231.397 275.915 231.009C275.536 230.62 274.961 230.426 274.189 230.426C273.389 230.426 272.761 230.601 272.307 230.952C271.852 231.302 271.533 231.676 271.348 232.074L269.757 231.506C270.041 230.843 270.42 230.327 270.893 229.957C271.372 229.583 271.893 229.323 272.456 229.176C273.024 229.025 273.583 228.949 274.132 228.949C274.482 228.949 274.885 228.991 275.339 229.077C275.799 229.157 276.241 229.325 276.668 229.581C277.098 229.837 277.456 230.223 277.74 230.739C278.024 231.255 278.166 231.946 278.166 232.812V240H276.49V238.523H276.405C276.291 238.759 276.102 239.013 275.837 239.283C275.571 239.553 275.219 239.782 274.778 239.972C274.338 240.161 273.801 240.256 273.166 240.256ZM273.422 238.75C274.085 238.75 274.643 238.62 275.098 238.359C275.557 238.099 275.903 237.763 276.135 237.351C276.372 236.939 276.49 236.506 276.49 236.051V234.517C276.419 234.602 276.263 234.68 276.021 234.751C275.785 234.818 275.51 234.877 275.197 234.929C274.89 234.976 274.589 235.019 274.295 235.057C274.007 235.09 273.772 235.118 273.592 235.142C273.157 235.199 272.75 235.291 272.371 235.419C271.997 235.542 271.694 235.729 271.462 235.98C271.234 236.226 271.121 236.562 271.121 236.989C271.121 237.571 271.336 238.011 271.767 238.31C272.203 238.603 272.754 238.75 273.422 238.75ZM284.01 233.636L284.123 230.511L281.481 232.188L280.799 230.994L283.583 229.545L280.799 228.097L281.481 226.903L284.123 228.58L284.01 225.455H285.373L285.26 228.58L287.902 226.903L288.583 228.097L285.799 229.545L288.583 230.994L287.902 232.188L285.26 230.511L285.373 233.636H284.01Z" fill="white"/>
<path d="M89.2614 186.534L87.7557 186.96C87.661 186.709 87.5213 186.465 87.3366 186.229C87.1567 185.987 86.9105 185.788 86.598 185.632C86.2855 185.476 85.8854 185.398 85.3977 185.398C84.7301 185.398 84.1738 185.552 83.7287 185.859C83.2884 186.162 83.0682 186.548 83.0682 187.017C83.0682 187.434 83.2197 187.763 83.5227 188.004C83.8258 188.246 84.2992 188.447 84.9432 188.608L86.5625 189.006C87.5379 189.242 88.2647 189.605 88.7429 190.092C89.2211 190.575 89.4602 191.198 89.4602 191.96C89.4602 192.585 89.2803 193.144 88.9205 193.636C88.5653 194.129 88.0682 194.517 87.429 194.801C86.7898 195.085 86.0464 195.227 85.1989 195.227C84.0862 195.227 83.1652 194.986 82.4361 194.503C81.7069 194.02 81.2453 193.314 81.0511 192.386L82.642 191.989C82.7936 192.576 83.08 193.016 83.5014 193.31C83.9276 193.603 84.4839 193.75 85.1705 193.75C85.9517 193.75 86.572 193.584 87.0312 193.253C87.4953 192.917 87.7273 192.514 87.7273 192.045C87.7273 191.667 87.5947 191.349 87.3295 191.094C87.0644 190.833 86.6572 190.639 86.108 190.511L84.2898 190.085C83.2907 189.848 82.5568 189.482 82.0881 188.984C81.6241 188.482 81.392 187.855 81.392 187.102C81.392 186.487 81.5649 185.942 81.9105 185.469C82.2609 184.995 82.7367 184.624 83.3381 184.354C83.9441 184.084 84.6307 183.949 85.3977 183.949C86.4773 183.949 87.3248 184.186 87.9403 184.659C88.5606 185.133 89.0009 185.758 89.2614 186.534Z" fill="black"/>
</g>
<defs>
<clipPath id="clip0_132_50">
<rect width="708" height="350" fill="white"/>
</clipPath>
</defs>
</svg>
