<svg width="509" height="350" viewBox="0 0 509 350" fill="none" xmlns="http://www.w3.org/2000/svg">
<g clip-path="url(#clip0_554_232)">
<rect width="509" height="350" fill="#252424"/>
<circle cx="120.172" cy="198" r="15.5" fill="#D9D9D9" stroke="#008000" stroke-width="5"/>
<circle cx="444.172" cy="198" r="15.5" fill="#D9D9D9" stroke="#378AD6" stroke-width="5"/>
<circle cx="22.1719" cy="198" r="15.5" fill="#D9D9D9" stroke="#80003D" stroke-width="5"/>
<circle cx="338" cy="194" r="15.5" fill="#D9D9D9" stroke="#008000" stroke-width="5"/>
<path d="M331.761 203V188.455H336.847C337.86 188.455 338.696 188.63 339.354 188.98C340.012 189.326 340.502 189.792 340.824 190.379C341.146 190.962 341.307 191.608 341.307 192.318C341.307 192.943 341.196 193.459 340.973 193.866C340.755 194.274 340.466 194.596 340.107 194.832C339.751 195.069 339.366 195.244 338.949 195.358V195.5C339.394 195.528 339.841 195.685 340.291 195.969C340.741 196.253 341.117 196.66 341.42 197.19C341.723 197.721 341.875 198.369 341.875 199.136C341.875 199.866 341.709 200.521 341.378 201.104C341.046 201.686 340.523 202.148 339.808 202.489C339.093 202.83 338.163 203 337.017 203H331.761ZM333.523 201.438H337.017C338.168 201.438 338.984 201.215 339.467 200.77C339.955 200.32 340.199 199.776 340.199 199.136C340.199 198.644 340.073 198.189 339.822 197.773C339.571 197.351 339.214 197.015 338.75 196.764C338.286 196.509 337.737 196.381 337.102 196.381H333.523V201.438ZM333.523 194.847H336.79C337.32 194.847 337.798 194.742 338.224 194.534C338.655 194.326 338.996 194.032 339.247 193.653C339.503 193.275 339.631 192.83 339.631 192.318C339.631 191.679 339.408 191.137 338.963 190.692C338.518 190.242 337.813 190.017 336.847 190.017H333.523V194.847Z" fill="black"/>
<path d="M320.439 193.898C320.935 193.655 321.14 193.056 320.897 192.56L316.937 184.478C316.694 183.982 316.095 183.777 315.599 184.02C315.103 184.263 314.898 184.862 315.141 185.358L318.661 192.542L311.477 196.062C310.981 196.305 310.776 196.904 311.019 197.4C311.262 197.896 311.861 198.101 312.357 197.858L320.439 193.898ZM140.729 194.492C171.708 183.318 194.775 175.804 220.91 174.752C247.04 173.699 276.32 179.106 319.675 193.946L320.323 192.054C276.863 177.178 247.314 171.687 220.83 172.753C194.352 173.819 171.022 181.439 140.05 192.61L140.729 194.492Z" fill="white"/>
<path d="M137.834 206.066C137.318 206.262 137.059 206.84 137.255 207.356L140.459 215.766C140.656 216.283 141.233 216.542 141.75 216.345C142.266 216.148 142.525 215.571 142.328 215.055L139.48 207.579L146.956 204.731C147.473 204.534 147.732 203.957 147.535 203.44C147.338 202.924 146.761 202.665 146.244 202.862L137.834 206.066ZM319.782 207.331C281.414 224.971 258.034 234.391 233.331 234.589C208.624 234.787 182.475 225.758 138.599 206.088L137.781 207.912C181.634 227.573 208.151 236.791 233.347 236.589C258.546 236.387 282.307 226.762 320.618 209.148L319.782 207.331Z" fill="white"/>
<path d="M223.744 168.256C223.053 168.256 222.426 168.125 221.862 167.865C221.299 167.6 220.851 167.219 220.52 166.722C220.188 166.22 220.023 165.614 220.023 164.903C220.023 164.278 220.146 163.772 220.392 163.384C220.638 162.991 220.967 162.683 221.379 162.46C221.791 162.238 222.246 162.072 222.743 161.963C223.245 161.849 223.749 161.759 224.256 161.693C224.919 161.608 225.456 161.544 225.868 161.501C226.285 161.454 226.588 161.376 226.777 161.267C226.971 161.158 227.068 160.969 227.068 160.699V160.642C227.068 159.941 226.876 159.397 226.493 159.009C226.114 158.62 225.539 158.426 224.767 158.426C223.967 158.426 223.339 158.601 222.885 158.952C222.43 159.302 222.111 159.676 221.926 160.074L220.335 159.506C220.619 158.843 220.998 158.327 221.472 157.957C221.95 157.583 222.471 157.323 223.034 157.176C223.602 157.025 224.161 156.949 224.71 156.949C225.061 156.949 225.463 156.991 225.918 157.077C226.377 157.157 226.82 157.325 227.246 157.581C227.677 157.837 228.034 158.223 228.318 158.739C228.602 159.255 228.744 159.946 228.744 160.812V168H227.068V166.523H226.983C226.869 166.759 226.68 167.013 226.415 167.283C226.15 167.553 225.797 167.782 225.357 167.972C224.916 168.161 224.379 168.256 223.744 168.256ZM224 166.75C224.663 166.75 225.222 166.62 225.676 166.359C226.135 166.099 226.481 165.763 226.713 165.351C226.95 164.939 227.068 164.506 227.068 164.051V162.517C226.997 162.602 226.841 162.68 226.599 162.751C226.363 162.818 226.088 162.877 225.776 162.929C225.468 162.976 225.167 163.019 224.874 163.057C224.585 163.09 224.35 163.118 224.17 163.142C223.735 163.199 223.328 163.291 222.949 163.419C222.575 163.542 222.272 163.729 222.04 163.98C221.813 164.226 221.699 164.562 221.699 164.989C221.699 165.571 221.914 166.011 222.345 166.31C222.781 166.603 223.332 166.75 224 166.75Z" fill="white"/>
<path d="M223.761 255V240.455H225.438V245.824H225.58C225.703 245.634 225.873 245.393 226.091 245.099C226.313 244.801 226.631 244.536 227.043 244.304C227.459 244.067 228.023 243.949 228.733 243.949C229.652 243.949 230.461 244.179 231.162 244.638C231.863 245.097 232.41 245.748 232.803 246.591C233.196 247.434 233.392 248.428 233.392 249.574C233.392 250.729 233.196 251.731 232.803 252.578C232.41 253.421 231.865 254.074 231.169 254.538C230.473 254.998 229.67 255.227 228.761 255.227C228.061 255.227 227.5 255.111 227.078 254.879C226.657 254.643 226.332 254.375 226.105 254.077C225.878 253.774 225.703 253.523 225.58 253.324H225.381V255H223.761ZM225.409 249.545C225.409 250.369 225.53 251.096 225.771 251.726C226.013 252.351 226.366 252.841 226.83 253.196C227.294 253.546 227.862 253.722 228.534 253.722C229.235 253.722 229.82 253.537 230.288 253.168C230.762 252.794 231.117 252.292 231.354 251.662C231.595 251.027 231.716 250.322 231.716 249.545C231.716 248.778 231.598 248.087 231.361 247.472C231.129 246.851 230.776 246.361 230.303 246.001C229.834 245.637 229.244 245.455 228.534 245.455C227.852 245.455 227.279 245.627 226.815 245.973C226.351 246.314 226.001 246.792 225.764 247.408C225.527 248.018 225.409 248.731 225.409 249.545Z" fill="white"/>
<path d="M116.358 205H114.511L119.852 190.455H121.67L127.011 205H125.165L120.818 192.756H120.705L116.358 205ZM117.04 199.318H124.483V200.881H117.04V199.318Z" fill="black"/>
<path d="M25.7159 194.091C25.6307 193.371 25.285 192.812 24.679 192.415C24.0729 192.017 23.3295 191.818 22.4489 191.818C21.8049 191.818 21.2415 191.922 20.7585 192.131C20.2803 192.339 19.9063 192.625 19.6364 192.99C19.3712 193.355 19.2386 193.769 19.2386 194.233C19.2386 194.621 19.331 194.955 19.5156 195.234C19.705 195.509 19.9465 195.739 20.2401 195.923C20.5336 196.103 20.8414 196.252 21.1634 196.371C21.4853 196.484 21.7812 196.577 22.0511 196.648L23.5284 197.045C23.9072 197.145 24.3286 197.282 24.7926 197.457C25.2614 197.633 25.7088 197.872 26.1349 198.175C26.5658 198.473 26.9209 198.857 27.2003 199.325C27.4796 199.794 27.6193 200.369 27.6193 201.051C27.6193 201.837 27.4134 202.547 27.0014 203.182C26.5942 203.816 25.9976 204.321 25.2116 204.695C24.4304 205.069 23.4811 205.256 22.3636 205.256C21.322 205.256 20.42 205.088 19.6577 204.751C18.9001 204.415 18.3035 203.946 17.8679 203.345C17.437 202.744 17.1932 202.045 17.1364 201.25H18.9545C19.0019 201.799 19.1866 202.254 19.5085 202.614C19.8352 202.969 20.2472 203.234 20.7443 203.409C21.2462 203.58 21.786 203.665 22.3636 203.665C23.036 203.665 23.6397 203.556 24.1747 203.338C24.7098 203.116 25.1335 202.808 25.446 202.415C25.7585 202.017 25.9148 201.553 25.9148 201.023C25.9148 200.54 25.7798 200.147 25.5099 199.844C25.2401 199.541 24.8849 199.295 24.4446 199.105C24.0043 198.916 23.5284 198.75 23.017 198.608L21.2273 198.097C20.0909 197.77 19.1913 197.304 18.5284 196.697C17.8655 196.091 17.5341 195.298 17.5341 194.318C17.5341 193.504 17.7543 192.794 18.1946 192.188C18.6397 191.577 19.2363 191.103 19.9844 190.767C20.7372 190.426 21.5777 190.256 22.5057 190.256C23.4432 190.256 24.2765 190.424 25.0057 190.76C25.7348 191.091 26.3125 191.546 26.7386 192.124C27.1695 192.701 27.3968 193.357 27.4205 194.091H25.7159Z" fill="black"/>
<path d="M108.707 198.707C109.098 198.317 109.098 197.683 108.707 197.293L102.343 190.929C101.953 190.538 101.319 190.538 100.929 190.929C100.538 191.319 100.538 191.953 100.929 192.343L106.586 198L100.929 203.657C100.538 204.047 100.538 204.681 100.929 205.071C101.319 205.462 101.953 205.462 102.343 205.071L108.707 198.707ZM40 199L108 199L108 197L40 197L40 199Z" fill="white"/>
<path d="M424.707 196.707C425.098 196.317 425.098 195.683 424.707 195.293L418.343 188.929C417.953 188.538 417.319 188.538 416.929 188.929C416.538 189.319 416.538 189.953 416.929 190.343L422.586 196L416.929 201.657C416.538 202.047 416.538 202.681 416.929 203.071C417.319 203.462 417.953 203.462 418.343 203.071L424.707 196.707ZM356 197L424 197L424 195L356 195L356 197Z" fill="white"/>
<path d="M67.1136 186.318H68.5909V187.114H67.2841C66.7727 187.114 66.33 187.196 65.956 187.362C65.5819 187.528 65.2931 187.75 65.0895 188.03C64.8859 188.304 64.7841 188.615 64.7841 188.96C64.7841 189.472 65.0327 189.884 65.5298 190.196C66.027 190.509 66.6875 190.665 67.5114 190.665C68.3068 190.665 68.92 190.513 69.3509 190.21C69.7817 189.907 70.0682 189.443 70.2102 188.818H71.9716C71.91 189.33 71.7609 189.794 71.5241 190.21C71.2874 190.627 70.9725 190.984 70.5795 191.283C70.1866 191.576 69.7249 191.804 69.1946 191.964C68.6643 192.121 68.0748 192.199 67.4261 192.199C66.5833 192.199 65.8281 192.069 65.1605 191.808C64.4976 191.543 63.9744 191.174 63.5909 190.7C63.2121 190.227 63.0227 189.675 63.0227 189.045C63.0227 188.757 63.0772 188.454 63.1861 188.136C63.2997 187.819 63.5009 187.523 63.7898 187.249C64.0833 186.974 64.4976 186.751 65.0327 186.581C65.5724 186.406 66.2661 186.318 67.1136 186.318ZM68.5909 186.773H67.1136C66.285 186.773 65.6127 186.692 65.0966 186.531C64.5852 186.37 64.1922 186.162 63.9176 185.906C63.6477 185.646 63.4631 185.362 63.3636 185.054C63.2689 184.746 63.2216 184.448 63.2216 184.159C63.2216 183.487 63.3968 182.911 63.7472 182.433C64.0975 181.955 64.5852 181.588 65.2102 181.332C65.84 181.077 66.5691 180.949 67.3977 180.949C68.2263 180.949 68.9508 181.074 69.571 181.325C70.196 181.576 70.6955 181.938 71.0696 182.412C71.4484 182.881 71.6828 183.444 71.7727 184.102H70.0114C69.893 183.61 69.6113 183.212 69.1662 182.909C68.7211 182.606 68.1316 182.455 67.3977 182.455C66.6496 182.455 66.0507 182.613 65.6009 182.93C65.151 183.243 64.9261 183.652 64.9261 184.159C64.9261 184.614 65.1203 184.978 65.5085 185.253C65.9015 185.527 66.4934 185.665 67.2841 185.665H68.5909V186.773Z" fill="white"/>
<path d="M391.114 185.318H392.591V186.114H391.284C390.773 186.114 390.33 186.196 389.956 186.362C389.582 186.528 389.293 186.75 389.089 187.03C388.886 187.304 388.784 187.615 388.784 187.96C388.784 188.472 389.033 188.884 389.53 189.196C390.027 189.509 390.688 189.665 391.511 189.665C392.307 189.665 392.92 189.513 393.351 189.21C393.782 188.907 394.068 188.443 394.21 187.818H395.972C395.91 188.33 395.761 188.794 395.524 189.21C395.287 189.627 394.973 189.984 394.58 190.283C394.187 190.576 393.725 190.804 393.195 190.964C392.664 191.121 392.075 191.199 391.426 191.199C390.583 191.199 389.828 191.069 389.161 190.808C388.498 190.543 387.974 190.174 387.591 189.7C387.212 189.227 387.023 188.675 387.023 188.045C387.023 187.757 387.077 187.454 387.186 187.136C387.3 186.819 387.501 186.523 387.79 186.249C388.083 185.974 388.498 185.751 389.033 185.581C389.572 185.406 390.266 185.318 391.114 185.318ZM392.591 185.773H391.114C390.285 185.773 389.613 185.692 389.097 185.531C388.585 185.37 388.192 185.162 387.918 184.906C387.648 184.646 387.463 184.362 387.364 184.054C387.269 183.746 387.222 183.448 387.222 183.159C387.222 182.487 387.397 181.911 387.747 181.433C388.098 180.955 388.585 180.588 389.21 180.332C389.84 180.077 390.569 179.949 391.398 179.949C392.226 179.949 392.951 180.074 393.571 180.325C394.196 180.576 394.696 180.938 395.07 181.412C395.448 181.881 395.683 182.444 395.773 183.102H394.011C393.893 182.61 393.611 182.212 393.166 181.909C392.721 181.606 392.132 181.455 391.398 181.455C390.65 181.455 390.051 181.613 389.601 181.93C389.151 182.243 388.926 182.652 388.926 183.159C388.926 183.614 389.12 183.978 389.509 184.253C389.902 184.527 390.493 184.665 391.284 184.665H392.591V185.773Z" fill="white"/>
<path d="M439.761 207V192.455H448.483V194.017H441.523V198.932H447.83V200.494H441.523V207H439.761Z" fill="black"/>
</g>
<defs>
<clipPath id="clip0_554_232">
<rect width="509" height="350" fill="white"/>
</clipPath>
</defs>
</svg>
