<svg width="1200" height="600"   viewBox="0 0 708 425" fill="none" xmlns="http://www.w3.org/2000/svg">
<rect width="708" height="425" fill="#252424"/>
<circle cx="132.172" cy="220" r="15.5" fill="#D9D9D9" stroke="#80003D" stroke-width="5"/>
<circle cx="253" cy="345" r="15.5" fill="#D9D9D9" stroke="#008000" stroke-width="5"/>
<circle cx="372.172" cy="224" r="15.5" fill="#D9D9D9" stroke="#378AD6" stroke-width="5"/>
<path d="M133.716 216.091C133.631 215.371 133.285 214.812 132.679 214.415C132.073 214.017 131.33 213.818 130.449 213.818C129.805 213.818 129.241 213.922 128.759 214.131C128.28 214.339 127.906 214.625 127.636 214.99C127.371 215.355 127.239 215.769 127.239 216.233C127.239 216.621 127.331 216.955 127.516 217.234C127.705 217.509 127.946 217.739 128.24 217.923C128.534 218.103 128.841 218.252 129.163 218.371C129.485 218.484 129.781 218.577 130.051 218.648L131.528 219.045C131.907 219.145 132.329 219.282 132.793 219.457C133.261 219.633 133.709 219.872 134.135 220.175C134.566 220.473 134.921 220.857 135.2 221.325C135.48 221.794 135.619 222.369 135.619 223.051C135.619 223.837 135.413 224.547 135.001 225.182C134.594 225.816 133.998 226.321 133.212 226.695C132.43 227.069 131.481 227.256 130.364 227.256C129.322 227.256 128.42 227.088 127.658 226.751C126.9 226.415 126.304 225.946 125.868 225.345C125.437 224.744 125.193 224.045 125.136 223.25H126.955C127.002 223.799 127.187 224.254 127.509 224.614C127.835 224.969 128.247 225.234 128.744 225.409C129.246 225.58 129.786 225.665 130.364 225.665C131.036 225.665 131.64 225.556 132.175 225.338C132.71 225.116 133.134 224.808 133.446 224.415C133.759 224.017 133.915 223.553 133.915 223.023C133.915 222.54 133.78 222.147 133.51 221.844C133.24 221.541 132.885 221.295 132.445 221.105C132.004 220.916 131.528 220.75 131.017 220.608L129.227 220.097C128.091 219.77 127.191 219.304 126.528 218.697C125.866 218.091 125.534 217.298 125.534 216.318C125.534 215.504 125.754 214.794 126.195 214.188C126.64 213.577 127.236 213.103 127.984 212.767C128.737 212.426 129.578 212.256 130.506 212.256C131.443 212.256 132.277 212.424 133.006 212.76C133.735 213.091 134.313 213.546 134.739 214.124C135.17 214.701 135.397 215.357 135.42 216.091H133.716Z" fill="black"/>
<path d="M260.466 343H258.705C258.6 342.493 258.418 342.048 258.158 341.665C257.902 341.281 257.589 340.959 257.22 340.699C256.856 340.434 256.451 340.235 256.006 340.102C255.561 339.97 255.097 339.903 254.614 339.903C253.733 339.903 252.935 340.126 252.22 340.571C251.51 341.016 250.944 341.672 250.523 342.538C250.106 343.405 249.898 344.468 249.898 345.727C249.898 346.987 250.106 348.05 250.523 348.916C250.944 349.783 251.51 350.438 252.22 350.884C252.935 351.329 253.733 351.551 254.614 351.551C255.097 351.551 255.561 351.485 256.006 351.352C256.451 351.22 256.856 351.023 257.22 350.763C257.589 350.498 257.902 350.173 258.158 349.79C258.418 349.402 258.6 348.956 258.705 348.455H260.466C260.333 349.198 260.092 349.863 259.741 350.45C259.391 351.037 258.955 351.537 258.435 351.949C257.914 352.356 257.329 352.666 256.68 352.879C256.036 353.092 255.348 353.199 254.614 353.199C253.373 353.199 252.27 352.896 251.304 352.29C250.338 351.684 249.578 350.822 249.024 349.705C248.47 348.587 248.193 347.261 248.193 345.727C248.193 344.193 248.47 342.867 249.024 341.75C249.578 340.633 250.338 339.771 251.304 339.165C252.27 338.559 253.373 338.256 254.614 338.256C255.348 338.256 256.036 338.362 256.68 338.575C257.329 338.788 257.914 339.101 258.435 339.513C258.955 339.92 259.391 340.417 259.741 341.004C260.092 341.587 260.333 342.252 260.466 343Z" fill="black"/>
<path d="M367.933 232V217.455H376.655V219.017H369.695V223.932H376.001V225.494H369.695V232H367.933Z" fill="black"/>
<path d="M362 239.974C361.985 239.421 361.526 238.986 360.974 239L351.977 239.238C351.425 239.253 350.989 239.712 351.003 240.264C351.018 240.817 351.477 241.252 352.03 241.238L360.027 241.026L360.238 249.023C360.253 249.575 360.712 250.011 361.264 249.997C361.817 249.982 362.252 249.523 362.238 248.97L362 239.974ZM269.726 337.688L361.726 240.688L360.274 239.312L268.274 336.312L269.726 337.688Z" fill="white"/>
<path d="M234.952 337.999C235.504 338.025 235.973 337.599 235.999 337.048L236.427 328.058C236.453 327.506 236.027 327.038 235.476 327.011C234.924 326.985 234.455 327.411 234.429 327.963L234.049 335.954L226.058 335.573C225.506 335.547 225.038 335.973 225.011 336.524C224.985 337.076 225.411 337.545 225.963 337.571L234.952 337.999ZM144.26 238.673L234.26 337.673L235.74 336.327L145.74 237.327L144.26 238.673Z" fill="white"/>
<path d="M244.825 384.835L245.049 383.86L244.825 384.835ZM243.693 363.114C243.526 362.588 242.965 362.296 242.438 362.462L233.855 365.172C233.329 365.338 233.037 365.9 233.203 366.426C233.369 366.953 233.931 367.245 234.458 367.079L242.086 364.67L244.495 372.299C244.661 372.826 245.223 373.118 245.75 372.951C246.276 372.785 246.569 372.223 246.402 371.697L243.693 363.114ZM259.48 362.555C265.598 365.171 268.102 367.94 268.662 370.34C269.211 372.692 267.99 375.168 265.403 377.483C262.843 379.773 259.145 381.705 255.344 382.893C251.528 384.086 247.759 384.484 245.049 383.86L244.6 385.809C247.796 386.545 251.957 386.048 255.941 384.802C259.942 383.551 263.913 381.499 266.736 378.974C269.532 376.473 271.408 373.301 270.61 369.885C269.824 366.518 266.538 363.398 260.266 360.716L259.48 362.555ZM245.049 383.86C242.429 383.257 241.095 381.819 240.46 380.009C239.797 378.118 239.871 375.732 240.335 373.292C240.796 370.873 241.617 368.517 242.331 366.755C242.687 365.877 243.013 365.153 243.249 364.65C243.367 364.398 243.463 364.203 243.528 364.071C243.561 364.005 243.586 363.955 243.603 363.923C243.611 363.906 243.617 363.894 243.621 363.887C243.623 363.883 243.625 363.88 243.625 363.878C243.626 363.878 243.626 363.877 243.626 363.877C243.626 363.877 243.626 363.877 243.626 363.877C243.626 363.877 243.626 363.877 242.739 363.415C241.852 362.954 241.852 362.954 241.851 362.955C241.851 362.955 241.851 362.955 241.851 362.956C241.85 362.957 241.85 362.958 241.849 362.959C241.847 362.962 241.845 362.966 241.843 362.972C241.837 362.982 241.83 362.997 241.82 363.016C241.801 363.054 241.773 363.11 241.737 363.181C241.666 363.325 241.564 363.534 241.439 363.799C241.19 364.329 240.849 365.087 240.477 366.004C239.737 367.833 238.865 370.322 238.371 372.918C237.88 375.493 237.738 378.291 238.573 380.671C239.436 383.132 241.315 385.052 244.6 385.809L245.049 383.86Z" fill="white"/>
<path d="M180.761 306V291.455H182.438V296.824H182.58C182.703 296.634 182.873 296.393 183.091 296.099C183.313 295.801 183.631 295.536 184.043 295.304C184.459 295.067 185.023 294.949 185.733 294.949C186.652 294.949 187.461 295.179 188.162 295.638C188.863 296.097 189.41 296.748 189.803 297.591C190.196 298.434 190.392 299.428 190.392 300.574C190.392 301.729 190.196 302.731 189.803 303.578C189.41 304.421 188.865 305.074 188.169 305.538C187.473 305.998 186.67 306.227 185.761 306.227C185.061 306.227 184.5 306.111 184.078 305.879C183.657 305.643 183.332 305.375 183.105 305.077C182.878 304.774 182.703 304.523 182.58 304.324H182.381V306H180.761ZM182.409 300.545C182.409 301.369 182.53 302.096 182.771 302.726C183.013 303.351 183.366 303.841 183.83 304.196C184.294 304.546 184.862 304.722 185.534 304.722C186.235 304.722 186.82 304.537 187.288 304.168C187.762 303.794 188.117 303.292 188.354 302.662C188.595 302.027 188.716 301.322 188.716 300.545C188.716 299.778 188.598 299.087 188.361 298.472C188.129 297.851 187.776 297.361 187.303 297.001C186.834 296.637 186.244 296.455 185.534 296.455C184.852 296.455 184.279 296.627 183.815 296.973C183.351 297.314 183.001 297.792 182.764 298.408C182.527 299.018 182.409 299.731 182.409 300.545Z" fill="white"/>
<path d="M251.744 405.256C251.053 405.256 250.426 405.125 249.862 404.865C249.299 404.6 248.851 404.219 248.52 403.722C248.188 403.22 248.023 402.614 248.023 401.903C248.023 401.278 248.146 400.772 248.392 400.384C248.638 399.991 248.967 399.683 249.379 399.46C249.791 399.238 250.246 399.072 250.743 398.963C251.245 398.849 251.749 398.759 252.256 398.693C252.919 398.608 253.456 398.544 253.868 398.501C254.285 398.454 254.588 398.376 254.777 398.267C254.971 398.158 255.068 397.969 255.068 397.699V397.642C255.068 396.941 254.876 396.397 254.493 396.009C254.114 395.62 253.539 395.426 252.767 395.426C251.967 395.426 251.339 395.601 250.885 395.952C250.43 396.302 250.111 396.676 249.926 397.074L248.335 396.506C248.619 395.843 248.998 395.327 249.472 394.957C249.95 394.583 250.471 394.323 251.034 394.176C251.602 394.025 252.161 393.949 252.71 393.949C253.061 393.949 253.463 393.991 253.918 394.077C254.377 394.157 254.82 394.325 255.246 394.581C255.677 394.837 256.034 395.223 256.318 395.739C256.602 396.255 256.744 396.946 256.744 397.812V405H255.068V403.523H254.983C254.869 403.759 254.68 404.013 254.415 404.283C254.15 404.553 253.797 404.782 253.357 404.972C252.916 405.161 252.379 405.256 251.744 405.256ZM252 403.75C252.663 403.75 253.222 403.62 253.676 403.359C254.135 403.099 254.481 402.763 254.713 402.351C254.95 401.939 255.068 401.506 255.068 401.051V399.517C254.997 399.602 254.841 399.68 254.599 399.751C254.363 399.818 254.088 399.877 253.776 399.929C253.468 399.976 253.167 400.019 252.874 400.057C252.585 400.09 252.35 400.118 252.17 400.142C251.735 400.199 251.328 400.291 250.949 400.419C250.575 400.542 250.272 400.729 250.04 400.98C249.813 401.226 249.699 401.562 249.699 401.989C249.699 402.571 249.914 403.011 250.345 403.31C250.781 403.603 251.332 403.75 252 403.75Z" fill="white"/>
<path d="M327.114 302.318H328.591V303.114H327.284C326.773 303.114 326.33 303.196 325.956 303.362C325.582 303.528 325.293 303.75 325.089 304.03C324.886 304.304 324.784 304.615 324.784 304.96C324.784 305.472 325.033 305.884 325.53 306.196C326.027 306.509 326.688 306.665 327.511 306.665C328.307 306.665 328.92 306.513 329.351 306.21C329.782 305.907 330.068 305.443 330.21 304.818H331.972C331.91 305.33 331.761 305.794 331.524 306.21C331.287 306.627 330.973 306.984 330.58 307.283C330.187 307.576 329.725 307.804 329.195 307.964C328.664 308.121 328.075 308.199 327.426 308.199C326.583 308.199 325.828 308.069 325.161 307.808C324.498 307.543 323.974 307.174 323.591 306.7C323.212 306.227 323.023 305.675 323.023 305.045C323.023 304.757 323.077 304.454 323.186 304.136C323.3 303.819 323.501 303.523 323.79 303.249C324.083 302.974 324.498 302.751 325.033 302.581C325.572 302.406 326.266 302.318 327.114 302.318ZM328.591 302.773H327.114C326.285 302.773 325.613 302.692 325.097 302.531C324.585 302.37 324.192 302.162 323.918 301.906C323.648 301.646 323.463 301.362 323.364 301.054C323.269 300.746 323.222 300.448 323.222 300.159C323.222 299.487 323.397 298.911 323.747 298.433C324.098 297.955 324.585 297.588 325.21 297.332C325.84 297.077 326.569 296.949 327.398 296.949C328.226 296.949 328.951 297.074 329.571 297.325C330.196 297.576 330.696 297.938 331.07 298.412C331.448 298.881 331.683 299.444 331.773 300.102H330.011C329.893 299.61 329.611 299.212 329.166 298.909C328.721 298.606 328.132 298.455 327.398 298.455C326.65 298.455 326.051 298.613 325.601 298.93C325.151 299.243 324.926 299.652 324.926 300.159C324.926 300.614 325.12 300.978 325.509 301.253C325.902 301.527 326.493 301.665 327.284 301.665H328.591V302.773Z" fill="white"/>
<path d="M248.5 186L248.5 187L248.5 186ZM360.757 221.97C361.293 222.104 361.836 221.778 361.97 221.243L364.153 212.511C364.287 211.975 363.961 211.432 363.425 211.299C362.89 211.165 362.347 211.49 362.213 212.026L360.272 219.787L352.511 217.847C351.975 217.713 351.433 218.039 351.299 218.575C351.165 219.11 351.49 219.653 352.026 219.787L360.757 221.97ZM145 220C145.943 220.333 145.943 220.334 145.942 220.335C145.942 220.335 145.942 220.335 145.942 220.336C145.942 220.336 145.942 220.336 145.942 220.335C145.943 220.334 145.944 220.331 145.946 220.326C145.95 220.315 145.957 220.297 145.967 220.271C145.988 220.219 146.022 220.135 146.072 220.023C146.171 219.798 146.332 219.458 146.572 219.018C147.052 218.138 147.846 216.859 149.085 215.313C151.562 212.222 155.828 208.052 162.945 203.862C177.182 195.479 202.866 187 248.5 187L248.5 185C202.634 185 176.568 193.521 161.93 202.138C154.61 206.448 150.157 210.777 147.524 214.062C146.209 215.703 145.35 217.081 144.816 218.06C144.549 218.55 144.364 218.94 144.243 219.213C144.182 219.35 144.138 219.458 144.108 219.534C144.092 219.572 144.081 219.602 144.073 219.625C144.068 219.636 144.065 219.645 144.062 219.652C144.061 219.656 144.06 219.659 144.059 219.661C144.059 219.662 144.058 219.664 144.058 219.665C144.057 219.666 144.057 219.667 145 220ZM248.5 187C294.122 187 322.081 195.725 338.598 204.386C346.857 208.716 352.264 213.035 355.594 216.251C357.26 217.859 358.407 219.192 359.133 220.114C359.496 220.576 359.753 220.934 359.918 221.173C360 221.293 360.059 221.382 360.096 221.44C360.114 221.469 360.127 221.489 360.135 221.502C360.139 221.508 360.141 221.512 360.143 221.515C360.143 221.516 360.144 221.516 360.144 221.516C360.144 221.516 360.143 221.516 360.143 221.516C360.143 221.515 360.143 221.514 361 221C361.858 220.485 361.857 220.485 361.856 220.483C361.856 220.483 361.855 220.482 361.855 220.481C361.853 220.479 361.852 220.476 361.85 220.473C361.846 220.466 361.841 220.458 361.834 220.447C361.821 220.426 361.802 220.397 361.778 220.359C361.73 220.284 361.66 220.177 361.566 220.041C361.378 219.767 361.095 219.374 360.705 218.878C359.925 217.886 358.717 216.485 356.984 214.812C353.517 211.465 347.955 207.034 339.527 202.614C322.669 193.775 294.377 185 248.5 185L248.5 187Z" fill="white"/>
<path d="M241.744 178.256C241.053 178.256 240.426 178.125 239.862 177.865C239.299 177.6 238.851 177.219 238.52 176.722C238.188 176.22 238.023 175.614 238.023 174.903C238.023 174.278 238.146 173.772 238.392 173.384C238.638 172.991 238.967 172.683 239.379 172.46C239.791 172.238 240.246 172.072 240.743 171.963C241.245 171.849 241.749 171.759 242.256 171.693C242.919 171.608 243.456 171.544 243.868 171.501C244.285 171.454 244.588 171.376 244.777 171.267C244.971 171.158 245.068 170.969 245.068 170.699V170.642C245.068 169.941 244.876 169.397 244.493 169.009C244.114 168.62 243.539 168.426 242.767 168.426C241.967 168.426 241.339 168.601 240.885 168.952C240.43 169.302 240.111 169.676 239.926 170.074L238.335 169.506C238.619 168.843 238.998 168.327 239.472 167.957C239.95 167.583 240.471 167.323 241.034 167.176C241.602 167.025 242.161 166.949 242.71 166.949C243.061 166.949 243.463 166.991 243.918 167.077C244.377 167.157 244.82 167.325 245.246 167.581C245.677 167.837 246.034 168.223 246.318 168.739C246.602 169.255 246.744 169.946 246.744 170.812V178H245.068V176.523H244.983C244.869 176.759 244.68 177.013 244.415 177.283C244.15 177.553 243.797 177.782 243.357 177.972C242.916 178.161 242.379 178.256 241.744 178.256ZM242 176.75C242.663 176.75 243.222 176.62 243.676 176.359C244.135 176.099 244.481 175.763 244.713 175.351C244.95 174.939 245.068 174.506 245.068 174.051V172.517C244.997 172.602 244.841 172.68 244.599 172.751C244.363 172.818 244.088 172.877 243.776 172.929C243.468 172.976 243.167 173.019 242.874 173.057C242.585 173.09 242.35 173.118 242.17 173.142C241.735 173.199 241.328 173.291 240.949 173.419C240.575 173.542 240.272 173.729 240.04 173.98C239.813 174.226 239.699 174.562 239.699 174.989C239.699 175.571 239.914 176.011 240.345 176.31C240.781 176.603 241.332 176.75 242 176.75ZM253.014 178.256C252.323 178.256 251.695 178.125 251.132 177.865C250.568 177.6 250.121 177.219 249.789 176.722C249.458 176.22 249.292 175.614 249.292 174.903C249.292 174.278 249.415 173.772 249.662 173.384C249.908 172.991 250.237 172.683 250.649 172.46C251.061 172.238 251.515 172.072 252.012 171.963C252.514 171.849 253.019 171.759 253.525 171.693C254.188 171.608 254.725 171.544 255.137 171.501C255.554 171.454 255.857 171.376 256.047 171.267C256.241 171.158 256.338 170.969 256.338 170.699V170.642C256.338 169.941 256.146 169.397 255.762 169.009C255.384 168.62 254.808 168.426 254.037 168.426C253.236 168.426 252.609 168.601 252.154 168.952C251.7 169.302 251.38 169.676 251.196 170.074L249.605 169.506C249.889 168.843 250.268 168.327 250.741 167.957C251.219 167.583 251.74 167.323 252.304 167.176C252.872 167.025 253.431 166.949 253.98 166.949C254.33 166.949 254.733 166.991 255.187 167.077C255.646 167.157 256.089 167.325 256.515 167.581C256.946 167.837 257.304 168.223 257.588 168.739C257.872 169.255 258.014 169.946 258.014 170.812V178H256.338V176.523H256.252C256.139 176.759 255.949 177.013 255.684 177.283C255.419 177.553 255.066 177.782 254.626 177.972C254.186 178.161 253.648 178.256 253.014 178.256ZM253.27 176.75C253.932 176.75 254.491 176.62 254.946 176.359C255.405 176.099 255.751 175.763 255.983 175.351C256.219 174.939 256.338 174.506 256.338 174.051V172.517C256.267 172.602 256.11 172.68 255.869 172.751C255.632 172.818 255.358 172.877 255.045 172.929C254.737 172.976 254.437 173.019 254.143 173.057C253.854 173.09 253.62 173.118 253.44 173.142C253.004 173.199 252.597 173.291 252.218 173.419C251.844 173.542 251.541 173.729 251.309 173.98C251.082 174.226 250.968 174.562 250.968 174.989C250.968 175.571 251.184 176.011 251.615 176.31C252.05 176.603 252.602 176.75 253.27 176.75ZM263.857 171.636L263.971 168.511L261.329 170.188L260.647 168.994L263.431 167.545L260.647 166.097L261.329 164.903L263.971 166.58L263.857 163.455H265.221L265.107 166.58L267.749 164.903L268.431 166.097L265.647 167.545L268.431 168.994L267.749 170.188L265.107 168.511L265.221 171.636H263.857Z" fill="white"/>
</svg>
