<svg  width="1200" height="600"   viewBox="0 0 708 350" fill="none" xmlns="http://www.w3.org/2000/svg">
<rect width="708" height="350" fill="#252424"/>
<circle cx="336.172" cy="196" r="15.5" fill="#D9D9D9" stroke="#378AD6" stroke-width="5"/>
<circle cx="132.172" cy="192" r="15.5" fill="#D9D9D9" stroke="#80003D" stroke-width="5"/>
<path d="M135.716 188.091C135.631 187.371 135.285 186.812 134.679 186.415C134.073 186.017 133.33 185.818 132.449 185.818C131.805 185.818 131.241 185.922 130.759 186.131C130.28 186.339 129.906 186.625 129.636 186.99C129.371 187.355 129.239 187.769 129.239 188.233C129.239 188.621 129.331 188.955 129.516 189.234C129.705 189.509 129.946 189.739 130.24 189.923C130.534 190.103 130.841 190.252 131.163 190.371C131.485 190.484 131.781 190.577 132.051 190.648L133.528 191.045C133.907 191.145 134.329 191.282 134.793 191.457C135.261 191.633 135.709 191.872 136.135 192.175C136.566 192.473 136.921 192.857 137.2 193.325C137.48 193.794 137.619 194.369 137.619 195.051C137.619 195.837 137.413 196.547 137.001 197.182C136.594 197.816 135.998 198.321 135.212 198.695C134.43 199.069 133.481 199.256 132.364 199.256C131.322 199.256 130.42 199.088 129.658 198.751C128.9 198.415 128.304 197.946 127.868 197.345C127.437 196.744 127.193 196.045 127.136 195.25H128.955C129.002 195.799 129.187 196.254 129.509 196.614C129.835 196.969 130.247 197.234 130.744 197.409C131.246 197.58 131.786 197.665 132.364 197.665C133.036 197.665 133.64 197.556 134.175 197.338C134.71 197.116 135.134 196.808 135.446 196.415C135.759 196.017 135.915 195.553 135.915 195.023C135.915 194.54 135.78 194.147 135.51 193.844C135.24 193.541 134.885 193.295 134.445 193.105C134.004 192.916 133.528 192.75 133.017 192.608L131.227 192.097C130.091 191.77 129.191 191.304 128.528 190.697C127.866 190.091 127.534 189.298 127.534 188.318C127.534 187.504 127.754 186.794 128.195 186.188C128.64 185.577 129.236 185.103 129.984 184.767C130.737 184.426 131.578 184.256 132.506 184.256C133.443 184.256 134.277 184.424 135.006 184.76C135.735 185.091 136.313 185.546 136.739 186.124C137.17 186.701 137.397 187.357 137.42 188.091H135.716Z" fill="black"/>
<path d="M318.707 196.707C319.098 196.317 319.098 195.683 318.707 195.293L312.343 188.929C311.953 188.538 311.319 188.538 310.929 188.929C310.538 189.319 310.538 189.953 310.929 190.343L316.586 196L310.929 201.657C310.538 202.047 310.538 202.681 310.929 203.071C311.319 203.462 311.953 203.462 312.343 203.071L318.707 196.707ZM150 197H318V195H150V197Z" fill="white"/>
<path d="M214.744 187.256C214.053 187.256 213.426 187.125 212.862 186.865C212.299 186.6 211.851 186.219 211.52 185.722C211.188 185.22 211.023 184.614 211.023 183.903C211.023 183.278 211.146 182.772 211.392 182.384C211.638 181.991 211.967 181.683 212.379 181.46C212.791 181.238 213.246 181.072 213.743 180.963C214.245 180.849 214.749 180.759 215.256 180.693C215.919 180.608 216.456 180.544 216.868 180.501C217.285 180.454 217.588 180.376 217.777 180.267C217.971 180.158 218.068 179.969 218.068 179.699V179.642C218.068 178.941 217.876 178.397 217.493 178.009C217.114 177.62 216.539 177.426 215.767 177.426C214.967 177.426 214.339 177.601 213.885 177.952C213.43 178.302 213.111 178.676 212.926 179.074L211.335 178.506C211.619 177.843 211.998 177.327 212.472 176.957C212.95 176.583 213.471 176.323 214.034 176.176C214.602 176.025 215.161 175.949 215.71 175.949C216.061 175.949 216.463 175.991 216.918 176.077C217.377 176.157 217.82 176.325 218.246 176.581C218.677 176.837 219.034 177.223 219.318 177.739C219.602 178.255 219.744 178.946 219.744 179.812V187H218.068V185.523H217.983C217.869 185.759 217.68 186.013 217.415 186.283C217.15 186.553 216.797 186.782 216.357 186.972C215.916 187.161 215.379 187.256 214.744 187.256ZM215 185.75C215.663 185.75 216.222 185.62 216.676 185.359C217.135 185.099 217.481 184.763 217.713 184.351C217.95 183.939 218.068 183.506 218.068 183.051V181.517C217.997 181.602 217.841 181.68 217.599 181.751C217.363 181.818 217.088 181.877 216.776 181.929C216.468 181.976 216.167 182.019 215.874 182.057C215.585 182.09 215.35 182.118 215.17 182.142C214.735 182.199 214.328 182.291 213.949 182.419C213.575 182.542 213.272 182.729 213.04 182.98C212.813 183.226 212.699 183.562 212.699 183.989C212.699 184.571 212.914 185.011 213.345 185.31C213.781 185.603 214.332 185.75 215 185.75ZM223.4 180.864C223.4 179.074 223.632 177.429 224.096 175.928C224.565 174.422 225.233 173.037 226.099 171.773H227.576C227.235 172.241 226.916 172.819 226.618 173.506C226.324 174.187 226.066 174.938 225.843 175.757C225.621 176.571 225.446 177.414 225.318 178.286C225.195 179.157 225.133 180.016 225.133 180.864C225.133 181.991 225.242 183.134 225.46 184.294C225.678 185.454 225.971 186.531 226.341 187.526C226.71 188.52 227.122 189.33 227.576 189.955H226.099C225.233 188.69 224.565 187.308 224.096 185.807C223.632 184.301 223.4 182.653 223.4 180.864ZM230.277 187V172.455H231.953V177.824H232.095C232.218 177.634 232.389 177.393 232.607 177.099C232.829 176.801 233.146 176.536 233.558 176.304C233.975 176.067 234.538 175.949 235.249 175.949C236.167 175.949 236.977 176.179 237.678 176.638C238.378 177.097 238.925 177.748 239.318 178.591C239.711 179.434 239.908 180.428 239.908 181.574C239.908 182.729 239.711 183.731 239.318 184.578C238.925 185.421 238.381 186.074 237.685 186.538C236.989 186.998 236.186 187.227 235.277 187.227C234.576 187.227 234.015 187.111 233.594 186.879C233.172 186.643 232.848 186.375 232.621 186.077C232.393 185.774 232.218 185.523 232.095 185.324H231.896V187H230.277ZM231.925 181.545C231.925 182.369 232.045 183.096 232.287 183.726C232.528 184.351 232.881 184.841 233.345 185.196C233.809 185.546 234.377 185.722 235.05 185.722C235.75 185.722 236.335 185.537 236.804 185.168C237.277 184.794 237.633 184.292 237.869 183.662C238.111 183.027 238.232 182.322 238.232 181.545C238.232 180.778 238.113 180.087 237.876 179.472C237.644 178.851 237.292 178.361 236.818 178.001C236.349 177.637 235.76 177.455 235.05 177.455C234.368 177.455 233.795 177.627 233.331 177.973C232.867 178.314 232.517 178.792 232.28 179.408C232.043 180.018 231.925 180.731 231.925 181.545ZM245.682 187.256C244.991 187.256 244.363 187.125 243.8 186.865C243.236 186.6 242.789 186.219 242.457 185.722C242.126 185.22 241.96 184.614 241.96 183.903C241.96 183.278 242.083 182.772 242.33 182.384C242.576 181.991 242.905 181.683 243.317 181.46C243.729 181.238 244.183 181.072 244.68 180.963C245.182 180.849 245.687 180.759 246.193 180.693C246.856 180.608 247.393 180.544 247.805 180.501C248.222 180.454 248.525 180.376 248.714 180.267C248.909 180.158 249.006 179.969 249.006 179.699V179.642C249.006 178.941 248.814 178.397 248.43 178.009C248.052 177.62 247.476 177.426 246.705 177.426C245.904 177.426 245.277 177.601 244.822 177.952C244.368 178.302 244.048 178.676 243.864 179.074L242.273 178.506C242.557 177.843 242.936 177.327 243.409 176.957C243.887 176.583 244.408 176.323 244.972 176.176C245.54 176.025 246.098 175.949 246.648 175.949C246.998 175.949 247.401 175.991 247.855 176.077C248.314 176.157 248.757 176.325 249.183 176.581C249.614 176.837 249.972 177.223 250.256 177.739C250.54 178.255 250.682 178.946 250.682 179.812V187H249.006V185.523H248.92C248.807 185.759 248.617 186.013 248.352 186.283C248.087 186.553 247.734 186.782 247.294 186.972C246.854 187.161 246.316 187.256 245.682 187.256ZM245.938 185.75C246.6 185.75 247.159 185.62 247.614 185.359C248.073 185.099 248.419 184.763 248.651 184.351C248.887 183.939 249.006 183.506 249.006 183.051V181.517C248.935 181.602 248.778 181.68 248.537 181.751C248.3 181.818 248.026 181.877 247.713 181.929C247.405 181.976 247.105 182.019 246.811 182.057C246.522 182.09 246.288 182.118 246.108 182.142C245.672 182.199 245.265 182.291 244.886 182.419C244.512 182.542 244.209 182.729 243.977 182.98C243.75 183.226 243.636 183.562 243.636 183.989C243.636 184.571 243.852 185.011 244.283 185.31C244.718 185.603 245.27 185.75 245.938 185.75ZM257.321 180.864C257.321 182.653 257.086 184.301 256.618 185.807C256.154 187.308 255.488 188.69 254.622 189.955H253.145C253.485 189.486 253.803 188.908 254.096 188.222C254.395 187.54 254.655 186.792 254.877 185.977C255.1 185.158 255.273 184.313 255.396 183.442C255.524 182.566 255.588 181.706 255.588 180.864C255.588 179.737 255.479 178.593 255.261 177.433C255.043 176.273 254.75 175.196 254.38 174.202C254.011 173.207 253.599 172.398 253.145 171.773H254.622C255.488 173.037 256.154 174.422 256.618 175.928C257.086 177.429 257.321 179.074 257.321 180.864ZM263.771 180.636L263.885 177.511L261.243 179.188L260.561 177.994L263.345 176.545L260.561 175.097L261.243 173.903L263.885 175.58L263.771 172.455H265.135L265.021 175.58L267.663 173.903L268.345 175.097L265.561 176.545L268.345 177.994L267.663 179.188L265.021 177.511L265.135 180.636H263.771Z" fill="white"/>
<path d="M331.761 205V190.455H340.483V192.017H333.523V196.932H339.83V198.494H333.523V205H331.761Z" fill="black"/>
</svg>
