<svg width="1200" height="600" viewBox="0 0 708 350" fill="none" xmlns="http://www.w3.org/2000/svg">
<rect width="708" height="350" fill="#252424"/>
<circle cx="230.172" cy="192" r="15.5" fill="#D9D9D9" stroke="#80003D" stroke-width="5"/>
<circle cx="448" cy="188" r="15.5" fill="#D9D9D9" stroke="#378AD6" stroke-width="5"/>
<path d="M441.761 197V182.455H446.847C447.86 182.455 448.696 182.63 449.354 182.98C450.012 183.326 450.502 183.792 450.824 184.379C451.146 184.962 451.307 185.608 451.307 186.318C451.307 186.943 451.196 187.459 450.973 187.866C450.755 188.274 450.466 188.596 450.107 188.832C449.751 189.069 449.366 189.244 448.949 189.358V189.5C449.394 189.528 449.841 189.685 450.291 189.969C450.741 190.253 451.117 190.66 451.42 191.19C451.723 191.721 451.875 192.369 451.875 193.136C451.875 193.866 451.709 194.521 451.378 195.104C451.046 195.686 450.523 196.148 449.808 196.489C449.093 196.83 448.163 197 447.017 197H441.761ZM443.523 195.438H447.017C448.168 195.438 448.984 195.215 449.467 194.77C449.955 194.32 450.199 193.776 450.199 193.136C450.199 192.644 450.073 192.189 449.822 191.773C449.571 191.351 449.214 191.015 448.75 190.764C448.286 190.509 447.737 190.381 447.102 190.381H443.523V195.438ZM443.523 188.847H446.79C447.32 188.847 447.798 188.742 448.224 188.534C448.655 188.326 448.996 188.032 449.247 187.653C449.503 187.275 449.631 186.83 449.631 186.318C449.631 185.679 449.408 185.137 448.963 184.692C448.518 184.242 447.813 184.017 446.847 184.017H443.523V188.847Z" fill="black"/>
<path d="M430.439 187.898C430.935 187.655 431.14 187.056 430.897 186.56L426.937 178.478C426.694 177.982 426.095 177.777 425.599 178.02C425.103 178.263 424.898 178.862 425.141 179.358L428.661 186.542L421.477 190.062C420.981 190.305 420.776 190.904 421.019 191.4C421.262 191.896 421.861 192.101 422.357 191.858L430.439 187.898ZM250.729 188.492C281.708 177.318 304.775 169.804 330.91 168.752C357.04 167.699 386.32 173.106 429.675 187.946L430.323 186.054C386.863 171.178 357.314 165.687 330.83 166.753C304.352 167.819 281.022 175.439 250.05 186.61L250.729 188.492Z" fill="white"/>
<path d="M247.834 200.066C247.318 200.262 247.059 200.84 247.255 201.356L250.459 209.766C250.656 210.283 251.233 210.542 251.75 210.345C252.266 210.148 252.525 209.571 252.328 209.055L249.48 201.579L256.956 198.731C257.473 198.534 257.732 197.957 257.535 197.44C257.338 196.924 256.761 196.665 256.244 196.862L247.834 200.066ZM429.782 201.331C391.414 218.971 368.034 228.391 343.331 228.589C318.624 228.787 292.475 219.758 248.599 200.088L247.781 201.912C291.634 221.573 318.151 230.791 343.347 230.589C368.546 230.387 392.307 220.762 430.618 203.148L429.782 201.331Z" fill="white"/>
<path d="M333.744 162.256C333.053 162.256 332.426 162.125 331.862 161.865C331.299 161.6 330.851 161.219 330.52 160.722C330.188 160.22 330.023 159.614 330.023 158.903C330.023 158.278 330.146 157.772 330.392 157.384C330.638 156.991 330.967 156.683 331.379 156.46C331.791 156.238 332.246 156.072 332.743 155.963C333.245 155.849 333.749 155.759 334.256 155.693C334.919 155.608 335.456 155.544 335.868 155.501C336.285 155.454 336.588 155.376 336.777 155.267C336.971 155.158 337.068 154.969 337.068 154.699V154.642C337.068 153.941 336.876 153.397 336.493 153.009C336.114 152.62 335.539 152.426 334.767 152.426C333.967 152.426 333.339 152.601 332.885 152.952C332.43 153.302 332.111 153.676 331.926 154.074L330.335 153.506C330.619 152.843 330.998 152.327 331.472 151.957C331.95 151.583 332.471 151.323 333.034 151.176C333.602 151.025 334.161 150.949 334.71 150.949C335.061 150.949 335.463 150.991 335.918 151.077C336.377 151.157 336.82 151.325 337.246 151.581C337.677 151.837 338.034 152.223 338.318 152.739C338.602 153.255 338.744 153.946 338.744 154.812V162H337.068V160.523H336.983C336.869 160.759 336.68 161.013 336.415 161.283C336.15 161.553 335.797 161.782 335.357 161.972C334.916 162.161 334.379 162.256 333.744 162.256ZM334 160.75C334.663 160.75 335.222 160.62 335.676 160.359C336.135 160.099 336.481 159.763 336.713 159.351C336.95 158.939 337.068 158.506 337.068 158.051V156.517C336.997 156.602 336.841 156.68 336.599 156.751C336.363 156.818 336.088 156.877 335.776 156.929C335.468 156.976 335.167 157.019 334.874 157.057C334.585 157.09 334.35 157.118 334.17 157.142C333.735 157.199 333.328 157.291 332.949 157.419C332.575 157.542 332.272 157.729 332.04 157.98C331.813 158.226 331.699 158.562 331.699 158.989C331.699 159.571 331.914 160.011 332.345 160.31C332.781 160.603 333.332 160.75 334 160.75Z" fill="white"/>
<path d="M333.761 249V234.455H335.438V239.824H335.58C335.703 239.634 335.873 239.393 336.091 239.099C336.313 238.801 336.631 238.536 337.043 238.304C337.459 238.067 338.023 237.949 338.733 237.949C339.652 237.949 340.461 238.179 341.162 238.638C341.863 239.097 342.41 239.748 342.803 240.591C343.196 241.434 343.392 242.428 343.392 243.574C343.392 244.729 343.196 245.731 342.803 246.578C342.41 247.421 341.865 248.074 341.169 248.538C340.473 248.998 339.67 249.227 338.761 249.227C338.061 249.227 337.5 249.111 337.078 248.879C336.657 248.643 336.332 248.375 336.105 248.077C335.878 247.774 335.703 247.523 335.58 247.324H335.381V249H333.761ZM335.409 243.545C335.409 244.369 335.53 245.096 335.771 245.726C336.013 246.351 336.366 246.841 336.83 247.196C337.294 247.546 337.862 247.722 338.534 247.722C339.235 247.722 339.82 247.537 340.288 247.168C340.762 246.794 341.117 246.292 341.354 245.662C341.595 245.027 341.716 244.322 341.716 243.545C341.716 242.778 341.598 242.087 341.361 241.472C341.129 240.851 340.776 240.361 340.303 240.001C339.834 239.637 339.244 239.455 338.534 239.455C337.852 239.455 337.279 239.627 336.815 239.973C336.351 240.314 336.001 240.792 335.764 241.408C335.527 242.018 335.409 242.731 335.409 243.545Z" fill="white"/>
<path d="M226.358 199H224.511L229.852 184.455H231.67L237.011 199H235.165L230.818 186.756H230.705L226.358 199ZM227.04 193.318H234.483V194.881H227.04V193.318Z" fill="black"/>
</svg>
